<?xml version="1.0" encoding="utf-8"?>
<!-- Generator: Adobe Illustrator 21.0.2, SVG Export Plug-In . SVG Version: 6.00 Build 0)  -->
<svg version="1.1" id="Logo" xmlns="http://www.w3.org/2000/svg" xmlns:xlink="http://www.w3.org/1999/xlink" x="0px" y="0px"
	 viewBox="0 0 36 36" style="enable-background:new 0 0 36 36;" xml:space="preserve">
<style type="text/css">
	.st0{fill:#D93175;}
	.st1{fill:#FFFFFF;}
</style>
<g id="Dark_Blue">
	<path class="st0" d="M5,0h26c2.8,0,5,2.2,5,5v26c0,2.8-2.2,5-5,5H5c-2.8,0-5-2.2-5-5V5C0,2.2,2.2,0,5,0z"/>
</g>
<title>si-instagram</title>
<path class="st1" d="M18,10.6c2.4,0,2.7,0,3.6,0.1c0.6,0,1.1,0.1,1.7,0.3c0.8,0.3,1.4,0.9,1.7,1.7c0.2,0.5,0.3,1.1,0.3,1.7
	c0,1,0.1,1.2,0.1,3.6s0,2.7-0.1,3.6c0,0.6-0.1,1.1-0.3,1.7c-0.3,0.8-0.9,1.4-1.7,1.7c-0.5,0.2-1.1,0.3-1.7,0.3c-1,0-1.2,0.1-3.6,0.1
	s-2.7,0-3.6-0.1c-0.6,0-1.1-0.1-1.7-0.3c-0.8-0.3-1.4-0.9-1.7-1.7c-0.2-0.5-0.3-1.1-0.3-1.7c0-1-0.1-1.2-0.1-3.6s0-2.7,0.1-3.6
	c0-0.6,0.1-1.1,0.3-1.7c0.3-0.8,0.9-1.4,1.7-1.7c0.5-0.2,1.1-0.3,1.7-0.3C15.3,10.7,15.6,10.6,18,10.6 M18,9c-2.4,0-2.8,0-3.7,0.1
	c-0.7,0-1.5,0.2-2.2,0.4c-1.2,0.5-2.2,1.4-2.6,2.6c-0.3,0.7-0.4,1.4-0.4,2.2C9,15.2,9,15.6,9,18s0,2.8,0.1,3.7
	c0,0.7,0.2,1.5,0.4,2.2c0.5,1.2,1.4,2.2,2.6,2.6c0.7,0.3,1.4,0.4,2.2,0.4c1,0,1.3,0.1,3.7,0.1s2.8,0,3.7-0.1c0.7,0,1.5-0.2,2.2-0.4
	c1.2-0.5,2.2-1.4,2.6-2.6c0.3-0.7,0.4-1.4,0.4-2.2c0-1,0.1-1.3,0.1-3.7c0-2.4,0-2.8-0.1-3.7c0-0.7-0.2-1.5-0.4-2.2
	c-0.5-1.2-1.4-2.2-2.6-2.6c-0.7-0.3-1.4-0.4-2.2-0.4C20.8,9,20.4,9,18,9z"/>
<path class="st1" d="M18,13.4c-2.6,0-4.6,2.1-4.6,4.6s2.1,4.6,4.6,4.6c2.6,0,4.6-2.1,4.6-4.6S20.6,13.4,18,13.4
	C18,13.4,18,13.4,18,13.4z M18,21c-1.7,0-3-1.3-3-3s1.3-3,3-3s3,1.3,3,3S19.7,21,18,21z"/>
<circle class="st1" cx="22.8" cy="13.2" r="1.1"/>
</svg>
