<svg id="Layer_1" data-name="Layer 1" xmlns="http://www.w3.org/2000/svg" viewBox="0 0 36 36"><title>si-linkedin</title><path d="M33.34,0H2.66A2.63,2.63,0,0,0,0,2.6V33.4A2.63,2.63,0,0,0,2.66,36H33.34A2.63,2.63,0,0,0,36,33.4V2.6A2.63,2.63,0,0,0,33.34,0Z" style="fill:#0065a1"/><path d="M5.33,13.5h5.34V30.68H5.33ZM8,5a3.1,3.1,0,1,1-3.1,3.1A3.1,3.1,0,0,1,8,5" style="fill:#fff"/><path d="M14,13.5h5.12v2.35h.07a5.61,5.61,0,0,1,5.05-2.77c5.41,0,6.41,3.56,6.41,8.18v9.42H25.34V22.32c0-2,0-4.56-2.77-4.56s-3.2,2.17-3.2,4.41v8.5H14Z" style="fill:#fff"/></svg>