<svg id="Layer_1" data-name="Layer 1" xmlns="http://www.w3.org/2000/svg" viewBox="0 0 36 36"><title>si-twitter-01</title><g id="Dark_Blue" data-name="Dark Blue"><rect width="36" height="36" rx="5" ry="5" style="fill:#1da1f2"/></g><g id="Logo_FIXED" data-name="Logo FIXED"><path d="M13.83,27.14A13,13,0,0,0,27,14q0-.3,0-.6A9.39,9.39,0,0,0,29.25,11a9.22,9.22,0,0,1-2.65.73,4.63,4.63,0,0,0,2-2.55,9.25,9.25,0,0,1-2.93,1.12,4.62,4.62,0,0,0-7.87,4.21A13.11,13.11,0,0,1,8.32,9.7a4.62,4.62,0,0,0,1.43,6.16,4.58,4.58,0,0,1-2.09-.58v.06a4.62,4.62,0,0,0,3.7,4.53,4.61,4.61,0,0,1-2.08.08,4.62,4.62,0,0,0,4.31,3.21,9.26,9.26,0,0,1-5.73,2,9.4,9.4,0,0,1-1.1-.06,13.07,13.07,0,0,0,7.08,2.07" style="fill:#fff"/></g></svg>