<?xml version="1.0" encoding="utf-8"?>
<!-- Generator: Adobe Illustrator 21.0.2, SVG Export Plug-In . SVG Version: 6.00 Build 0)  -->
<svg version="1.1" id="Layer_1" xmlns="http://www.w3.org/2000/svg" xmlns:xlink="http://www.w3.org/1999/xlink" x="0px" y="0px"
	 viewBox="0 0 36 36" style="enable-background:new 0 0 36 36;" xml:space="preserve">
<style type="text/css">
	.st0{fill:#E90000;}
	.st1{fill:#FFFFFF;}
</style>
<title>si-youtube</title>
<g id="Dark_Blue">
	<path class="st0" d="M5,0h26c2.8,0,5,2.2,5,5v26c0,2.8-2.2,5-5,5H5c-2.8,0-5-2.2-5-5V5C0,2.2,2.2,0,5,0z"/>
</g>
<path class="st1" d="M26.6,13.6c-0.2-0.8-0.8-1.4-1.6-1.6c-1.4-0.4-7-0.4-7-0.4s-5.6,0-7,0.4c-0.8,0.2-1.4,0.8-1.6,1.6
	C9,15.1,9,18,9,18s0,3,0.4,4.4c0.2,0.8,0.8,1.4,1.6,1.6c1.4,0.4,7,0.4,7,0.4s5.6,0,7-0.4c0.8-0.2,1.4-0.8,1.6-1.6C27,21,27,18,27,18
	S27,15.1,26.6,13.6z M16.2,20.7v-5.4l4.7,2.7L16.2,20.7z"/>
</svg>
