<svg xmlns="http://www.w3.org/2000/svg" width="239.703" height="75.271" viewBox="0 0 239.703 75.271">
  <path id="Path_4422" data-name="Path 4422" d="M1926.123,847.334c-2.066-7.635-9.061-11.977-16.117-14.393-9.058-3.1-18.887-4.386-28.374-5.357-20.5-2.1-41.344-2.1-61.928-1.941a516.976,516.976,0,0,0-63.069,3.931c-9.723,1.271-19.456,2.8-29.018,4.99-8.268,1.9-16.524,4.463-23.909,8.717a48.788,48.788,0,0,0-10.046,7.586c-2.8,2.786-5.325,6.149-5.4,10.263-.127,7.02,6.669,11.447,12.425,13.784a68.678,68.678,0,0,0,12.449,3.273q7.485,1.506,15.05,2.572a266,266,0,0,0,30.463,2.548q7.841.2,15.68-.075c2.2-.074,2.206-3.5,0-3.42a261.649,261.649,0,0,1-58.664-4.6c-7.194-1.4-15.7-2.623-21.171-8.032-2.3-2.279-3.506-5.313-2.341-8.487,1.436-3.923,5.477-7.132,8.748-9.523,13.827-10.1,32.283-12.707,48.784-15.195a468.891,468.891,0,0,1,58.775-4.737c19.6-.465,39.3-.291,58.88.706a214.589,214.589,0,0,1,29.207,3.2c7.4,1.406,16.128,2.95,21.913,8.2,6.252,5.674,5.924,14.59,1.626,21.365-4.562,7.2-12.863,11.214-20.534,14.218-17.885,7-37.278,9.812-56.238,12.19a538.8,538.8,0,0,1-118.008,1.756q-7.279-.7-14.538-1.585c-2.18-.267-2.161,3.155,0,3.42a540.4,540.4,0,0,0,125.908.619c20.15-2.271,40.857-4.908,60.054-11.712,8.112-2.876,16.563-6.407,22.692-12.659C1924.876,863.391,1928.226,855.109,1926.123,847.334Z" transform="translate(-1702.41 -791.83) rotate(-1)" fill="#538fe4" fill-rule="evenodd"/>
</svg>
