<svg xmlns="http://www.w3.org/2000/svg" width="130.817" height="143.934" viewBox="0 0 130.817 143.934">
  <path id="Path_4219" data-name="Path 4219" d="M853.557,291.929a5,5,0,0,0,1.581,5.443,21.655,21.655,0,0,0,10.138,5.078c2.046.474,3.838,1.109,4.476,3.49a4.586,4.586,0,0,0,2.846,2.732,7.31,7.31,0,0,0,7.648-.953,6.811,6.811,0,0,1,5.393-1.223,58.652,58.652,0,0,0,8.738.662c3.18.025,3.3.128,3.153,3.2A125.587,125.587,0,0,1,896.2,325.1a45.875,45.875,0,0,0,.631,17.569c.162.949.416,2.052.53,3.168.429,4.228,2.544,7.673,5.215,10.76,3.565,4.121,7.847,4.553,12.306,1.525a29.847,29.847,0,0,0,5.393-4.574c1.255-1.383,2.462-2.055,4.4-1.349s4.145.359,5.215-1.347c2.028-3.235,3.923-6.792,1.823-10.723a4.853,4.853,0,0,1,.024-4.759c1.591-3.478,3.2-6.949,4.692-10.469,1.647-3.879,1.608-3.919,5.139-1.394,7.961,5.694,15.947,11.327,24.841,15.554a10.892,10.892,0,0,0,9.408.1c2.362-.982,3.925-2.964,5.892-4.433,2.349-1.753,2.831-3.9,2.135-6.533-.286-1.085-.572-2.175-.952-3.229-1.69-4.692-4.429-8.857-7.116-12.97-4.049-6.2-8.594-12.071-12.927-18.084-1.431-1.985-1.411-2.1.588-3.3,2.215-1.337,4.461-2.623,6.64-4.017a28.059,28.059,0,0,0,7.673-7.022,7.863,7.863,0,0,0,.781-8.306,7.907,7.907,0,0,1-.7-5.746,9.11,9.11,0,0,0,.288-2.671c-.151-2.616-2.343-5-4.669-4.876-3.3.172-6.687.764-8.955,3.309a6.323,6.323,0,0,1-6.555,2.236c-1.092-.208-2.249-.046-3.365-.156-2.026-.2-2.307-.506-2.153-2.54.373-4.93.81-9.856,1.213-14.783.812-9.939-2.251-18.321-9.719-25.121-2.183-1.988-5.105-2.209-7.363-3.909-.789-.594-1.932.074-2.862.532a22.09,22.09,0,0,0-8.721,7.732c-3.131,4.669-6.378,9.248-8.738,14.393-.873,1.9-1.441,1.937-3,.486-3.292-3.063-6.5-6.212-9.782-9.291a3.323,3.323,0,0,1-1.22-2.97,7.458,7.458,0,0,0-2.354-6.083c-.765-.82-1.452-1.713-2.147-2.6a7.338,7.338,0,0,0-11.663-.334,9.836,9.836,0,0,1-2.364,2.367,11.543,11.543,0,0,0-5.417,6.218,10.47,10.47,0,0,1-1.389,2.308c-4.363,6.175-4.984,13.027-2.684,19.92,2.455,7.363,5.865,14.356,11.3,20.131a13.043,13.043,0,0,1,1.274,1.572c1.144,1.674.973,2.161-1.091,2.762s-4.13,1.095-6.2,1.625a109.206,109.206,0,0,0-17.29,5.64A14.742,14.742,0,0,0,853.557,291.929ZM935.688,321.8a107.441,107.441,0,0,1-5.77,12.909,3.539,3.539,0,0,1-3.525,2.035,8.477,8.477,0,0,0-5.515,2.2c-2.65,2.163-3.171,3.842-2.033,7.088a11.2,11.2,0,0,0,.828,1.84,3.078,3.078,0,0,1-.506,3.992,23.5,23.5,0,0,1-5.449,4.48,6.187,6.187,0,0,1-7.263-.554,15.184,15.184,0,0,1-5.434-8.3c-.554-2.057-.922-4.165-1.374-6.25-.312-1.425-.6-2.854-.933-4.276-1.364-5.921.245-11.777.35-17.667.062-3.492,1.228-6.838,1.213-10.323-.006-1.384.6-2.144,1.949-2.214a91.744,91.744,0,0,0,15.679-2.109,2.846,2.846,0,0,1,2.752.938,143.9,143.9,0,0,0,14.218,12.892A2.657,2.657,0,0,1,935.688,321.8Zm-34.626-19.856c.556-3.312,1.74-6.491,2.238-9.83.149-1,.93-1.194,1.784-.653a11.235,11.235,0,0,1,1.634,1.184c2.89,2.666,5.791,5.322,8.619,8.053,1.683,1.627,1.5,2.153-.81,2.8-.972.271-1.973.438-2.96.651a46.312,46.312,0,0,1-7.712.763C901.377,304.947,900.673,304.258,901.061,301.945Zm-6.647-24.884c-.545-.626-.456-1.366.386-1.559,2.494-.569,5.011-1.044,7.531-1.491,1.38-.245,1.784.584,1.675,1.793-.252,2.779-1.571,5.249-2.105,8.239C898.691,282.126,896.582,279.557,894.414,277.061Zm53.847-.914c-3.368-2.248-5.541-5.211-8.47-7.9,2.962-1.71,5.918-1.151,8.676-1.561.56-.084.906.634.944,1.206C949.589,270.552,949.744,273.217,948.261,276.147Zm1.476,6.85c2.962,1.675,4.68,4.264,6.4,6.82.661.981.118,1.752-.867,2.081a55.34,55.34,0,0,1-5.781,1.706c-1.5.324-1.995-.289-1.667-1.939C948.385,288.847,949.056,286.052,949.737,283Zm-3.217-4.613a5.357,5.357,0,0,1,1.171,4.054,81.719,81.719,0,0,1-1.914,10.249,4.47,4.47,0,0,1-3.252,3.523c-1.394.422-2.79.843-4.192,1.237-4.1,1.155-8.212,2.3-11.774,3.29-1.2.323-1.866.445-2.494.682-2.493.941-4.52.294-6.462-1.478-3.895-3.554-8.03-6.838-11.677-10.673a4.015,4.015,0,0,1-1.263-4.212c.929-3.35,1.759-6.728,2.6-10.1a2.707,2.707,0,0,1,2.577-2.268c5.043-.36,9.689-2.718,14.84-2.732,2.989-.007,5.878-1.332,8.939-1.442,1.287-.047,2.488-.109,3.487.772C940.378,272.173,943.8,274.909,946.52,278.384ZM938.337,315.2c-1.124,2.293-1.5,2.365-3.464.829a91.628,91.628,0,0,1-11.249-10.153c-1.331-1.452-1.2-1.985.617-2.5,5.619-1.6,11.249-3.16,16.876-4.729.948-.265,1.955-.683,2.559.529-.069.44-.114.771-.173,1.1A56.187,56.187,0,0,1,938.337,315.2ZM961.9,296.863c5.622,8.116,11.746,15.891,16.544,24.569a44.673,44.673,0,0,1,2.72,7.232,3.259,3.259,0,0,1-.708,3.463c-2.428,2.522-4.994,4.882-8.639,5.546a7.431,7.431,0,0,1-5.238-.545c-5.359-2.825-10.76-5.559-15.572-9.331-3.264-2.559-6.811-4.754-10.142-7.231-2.254-1.678-2.339-2.005-1.111-4.5a62.911,62.911,0,0,0,5.646-15.805,5.156,5.156,0,0,1,4.407-4.443,45.021,45.021,0,0,0,6.431-1.973,3.064,3.064,0,0,1,3.862,1.024C960.667,295.556,961.391,296.132,961.9,296.863Zm-7.537-30.855c1-.066,2.018.113,3.026.1,1.951-.031,3.007.76,3.575,2.762,1.053,3.705,2.424,4.443,6.317,4.8a9.238,9.238,0,0,0,6.028-1.382c1.736-1.066,2.724-.381,2.922,1.634a8.382,8.382,0,0,1-2.081,5.9,31.153,31.153,0,0,1-8.8,7.233c-5.264,2.9-5.256,2.941-9.165-1.445-1.493-1.675-2.882-3.446-4.412-5.086a4.6,4.6,0,0,1-1.253-4.307,53.9,53.9,0,0,0,.957-7.333C951.581,266.584,952.147,266.155,954.361,266.008Zm-36-24.973a66.7,66.7,0,0,1,11.8-17.91c2.9-3.243,4.567-3.552,8.643-1.871a17.068,17.068,0,0,1,5.458,3.867,26.884,26.884,0,0,1,6.665,11.491c.295,3.854.943,7.594.458,11.465-.53,4.224-.59,8.507-1.26,12.728-.409,2.58-.419,2.734-3.069,3.107-2.889.406-5.8.661-8.7.946a4.817,4.817,0,0,1-4.226-1.643q-7.512-8.2-15.051-16.367C917.47,245.1,917.36,243.345,918.364,241.036Zm-1.323,7.736c.824.757,1.55,1.62,2.334,2.422,3.916,4.01,7.522,8.312,11.631,12.144,1.695,1.58,1.427,2.308-.787,2.827-3.055.718-6.132,1.342-9.2,2.007q-.057-.261-.113-.522c-3.175.688-6.336,1.452-9.53,2.036-2.051.376-2.432-.111-2.13-2.09a79.386,79.386,0,0,1,5.36-18.3C915.253,247.724,915.784,247.617,917.041,248.771Zm-36.2,9.905a41.161,41.161,0,0,0-2.789-5.758c-3.611-7.38-3.233-14.488,1.452-21.309.634-.922,1.141-1.932,1.781-2.849.618-.888.875-2.12,2.136-2.436.91.477,1.048,1.444,1.5,2.2a14.813,14.813,0,0,0,5.132,5.208c2.813,1.7,5.309,1.3,7.876-.347,2.753-1.761,2.709-1.683,5.094.358,3.081,2.637,5.708,5.724,8.647,8.493,1.713,1.615,2.232,3.279,1.074,5.383-.16.29-.17.664-.333.952-3.267,5.771-4.577,12.166-5.757,18.569a4.134,4.134,0,0,1-3.944,3.807c-3.109.48-6.2,1.084-9.281,1.742a3.667,3.667,0,0,1-3.886-1.337C886.208,267.431,882.426,263.855,880.842,258.677Zm7.594,17.883a4.01,4.01,0,0,1,3.94,1.3q3.688,3.928,7.428,7.807a3.71,3.71,0,0,1,1.1,3.365c-.713,4.546-1.116,9.141-2.235,13.622-.318,1.27-.651,2.422-2.245,2.561-3.576-.07-7.178.285-10.726-.542a3.364,3.364,0,0,1-2.634-2.283c-1.917-5.091-6.714-6.67-10.971-3.153-2.442,2.017-4.437,1.939-6.993.943a21.428,21.428,0,0,1-6.732-3.728,3.8,3.8,0,0,1-1.261-4.2c1.133-4.414,4.191-7.235,8.1-8.88A112.415,112.415,0,0,1,888.436,276.559Z" transform="translate(-853.324 -216.16)" fill="#172553" opacity="0.5"/>
</svg>
