<svg xmlns="http://www.w3.org/2000/svg" width="197.588" height="74.536" viewBox="0 0 197.588 74.536"><path d="M1884.113,847.334c-1.7-7.635-7.461-11.977-13.27-14.393-7.458-3.1-15.551-4.386-23.363-5.357-16.876-2.1-34.042-2.1-50.991-1.941a351.615,351.615,0,0,0-51.931,3.931,214.271,214.271,0,0,0-23.893,4.99c-6.808,1.9-13.605,4.463-19.687,8.717a41.994,41.994,0,0,0-8.272,7.586c-2.308,2.786-4.385,6.149-4.446,10.263-.1,7.02,5.491,11.447,10.23,13.784a48.767,48.767,0,0,0,10.25,3.273q6.163,1.506,12.392,2.572a181.3,181.3,0,0,0,25.083,2.548q6.456.2,12.911-.075c1.808-.074,1.816-3.5,0-3.42a178.426,178.426,0,0,1-48.3-4.6c-5.923-1.4-12.931-2.623-17.432-8.032a9.021,9.021,0,0,1-1.927-8.487c1.183-3.923,4.51-7.132,7.2-9.523,11.385-10.1,26.581-12.707,40.168-15.195a319.5,319.5,0,0,1,48.395-4.737c16.14-.465,32.355-.291,48.481.706a146.8,146.8,0,0,1,24.048,3.2c6.1,1.406,13.28,2.95,18.043,8.2,5.147,5.674,4.877,14.59,1.339,21.365-3.757,7.2-10.591,11.214-16.907,14.218-14.726,7-30.694,9.812-46.305,12.19a365.871,365.871,0,0,1-97.166,1.756q-5.994-.7-11.971-1.585c-1.8-.267-1.78,3.155,0,3.42a366.969,366.969,0,0,0,103.671.619c16.592-2.271,33.641-4.908,49.448-11.712,6.68-2.876,13.638-6.407,18.684-12.659C1883.087,863.391,1885.845,855.109,1884.113,847.334Z" transform="translate(-1702.41 -792.566) rotate(-1)" fill="#252122" fill-rule="evenodd"/></svg>