<svg xmlns="http://www.w3.org/2000/svg" width="89.45" height="103.088" viewBox="0 0 89.45 103.088">
  <g id="Group_158" data-name="Group 158" transform="translate(-1385.776 -620.922)" opacity="0.5">
    <path id="Path_4202" data-name="Path 4202" d="M1498.156,669.332a20.505,20.505,0,0,0-9.827,1.09,16.87,16.87,0,0,0-4.755,2.617c-1.041.817-2.218,2.732-3.682,2.727a19.5,19.5,0,0,1-2.361-5.781c-.629-2.146-.263-2.566,1.94-3.981a87,87,0,0,1,12.152-6.1c2.189-.97,5.72-5.543,1.42-4.168-4.114,1.315-8.473,4.452-12.326,6.487-2.566,1.356-8.029,2.926-7.768,6.109.227,2.766,2.573,5.681,3.546,8.21.789,2.048,1.247,7.325,4.392,3.851,2.021-2.234,2.963-4.284,5.8-5.872,4.651-2.6,12.223-3.54,13.88,1.722.905,2.873-.3,12.7-5.229,13.5-1.2.194-1.96-.7-3.162-.738a15.529,15.529,0,0,0-3.156.436c-3.935,1.056-.636,3.773,1.763,4.169,5.924.978,10.464-6.25,11.835-10.722C1504.067,678.161,1504.1,670.485,1498.156,669.332Z" transform="translate(-28.2 -11.181)" fill="#172553"/>
    <path id="Path_4203" data-name="Path 4203" d="M1444.062,718.907c-.231,2.393-.043,7.146,2.845,8.064,2.29.728,4.41-3.618,5.431-5.193,4.363-6.725,10.24-9.105,17.475-12.548.132.294,5.579-4.538.752-3.855-1.642.232-3.334,2.125-4.807,2.9-1.875.989-3.877,1.686-5.749,2.7a27.2,27.2,0,0,0-8.605,6.957c-.708.911-2.129,4.369-3.44,4.207-1.431-.177-.891-3.373-.832-4.341.38-6.238,4.586-11.4,5.971-17.487.572-2.511,1.937-6.687.635-8.912-1.186-2.027-4.288-2-6.7-1.827-5.855.413-10.1,7.73-8.6,12.394.766,2.376,3.477,2.981,3.238-.162-.184-2.418-1.02-4.093.85-6.53,1.588-2.07,5.184-3.318,7.493-2.285,2.74,1.226,1.251,4.738.579,7.1C1448.766,706.529,1444.7,712.3,1444.062,718.907Z" transform="translate(-16.939 -22.189)" fill="#172553"/>
    <path id="Path_4204" data-name="Path 4204" d="M1409.655,687.238c-2.574-5.3-5.354-10.5-8.016-15.752-.818-1.615-2.688-4.4-1.452-6.5,1.167-1.983,4.988-4.448,7.014-5.689,6.33-3.877,12.859-7.345,19.065-11.444,6.127-4.046,12.8-6.986,18.84-11.164,6.091-4.21,12.5-8.024,18.837-11.873,1.172-.711,2.457-1.332,2.556-2.619.07-.921-.366-1.418-1.384-1.235a11.614,11.614,0,0,0-2.483,1.544c-1.429.921-2.891,1.791-4.361,2.648-6.351,3.7-12.582,7.64-18.98,11.256-6.846,3.869-13.865,7.118-20.4,11.537-5.994,4.055-12.914,7.346-18.476,11.878-2.18,1.777-4.9,3.993-5.158,6.491-.252,2.439.927,4.731,2.163,6.559,3.079,4.556,4.612,9.866,7.042,14.8,2.572,5.223,5.459,10.312,7.3,15.9,1.51,4.585,3.113,9.906,2.587,15.08-5.08-3.8-10.058-7.709-15.216-11.427-1.961-1.413-5.124-3.394-8.328-2.151-2.907,1.127-3.7,5.27-4.406,7.526-.374,1.191-1.317,3.37.275,3.8,1.327.357,2.515-1.021,3.2-1.951,1.592-2.175,2.2-5.705,5.314-4.149,5.638,2.818,9.347,7.568,14.425,10.965,1.371.917,4.372,3.491,6.679,2.548,1.962-.8,2.705-3.883,3.008-5.316,1.09-5.171-1.715-10.6-3.491-14.911C1413.587,698.209,1412.185,692.453,1409.655,687.238Z" fill="#172553"/>
  </g>
</svg>
