<svg xmlns="http://www.w3.org/2000/svg" width="566.898" height="575.622" viewBox="0 0 566.898 575.622">
  <path id="Path_4967" data-name="Path 4967" d="M-4114.812,3808.972a919.646,919.646,0,0,0-80.862,60.667,906.84,906.84,0,0,0-70.105,65.521q16.25-27.092,31.123-54.978,8.376-15.711,16.308-31.653a5.262,5.262,0,0,0-1.344-6.727c-2.248-1.68-4.735-1.24-6.847.407a468.353,468.353,0,0,0-51.132,46.322q18.111-34.225,33.382-69.857,7.519-17.553,14.362-35.384c1.964-5.125-5.223-8.406-8.716-5.073q-31.635,30.174-60.588,62.993,19.22-31.022,37.947-62.346,18.817-31.47,37.135-63.235a5.222,5.222,0,0,0-1.343-6.726c-2.229-1.665-4.762-1.266-6.848.407a766.481,766.481,0,0,0-71.575,65.229l-.056.058c7.566-11.435,14.778-23.082,21.163-35.175,7.754-14.686,14.162-30.178,17.884-46.4.939-4.1-3.7-8.631-7.66-5.889a836.956,836.956,0,0,0-89.992,71.855q-14.974,13.753-29.261,28.23,20.165-26.448,41.118-52.28,18.154-22.378,36.879-44.281a5.268,5.268,0,0,0,.407-6.847c-1.5-1.876-4.578-2.875-6.727-1.343-33.211,23.678-64.053,50.5-93.007,79.2-21.541,21.349-42.063,43.691-61.987,66.552q6.943-9.694,14.017-19.3,36.519-49.548,76.516-96.4,22.646-26.537,46.339-52.153c4.557-4.926-2.483-12.006-7.374-7.374q-48.709,46.128-93.341,96.316-17.6,19.8-34.519,40.2,8.8-13.537,17.6-27.074,51.28-78.892,102.563-157.786l57.856-89.007c3.312-5.094-3.984-10.279-8.19-6.319q-60.952,57.4-117.866,118.894-56.558,61.128-108.839,126.036-23.1,28.69-45.341,58.068l6.39-48.778c.367-2.8-2.659-5.214-5.214-5.214-3.122,0-4.848,2.408-5.216,5.214q-4.428,33.816-8.858,67.631c-.292,2.226,1.827,4.479,3.828,5.029,2.395.658,4.491-.519,5.889-2.4q49.6-66.622,103.717-129.715,53.921-62.882,112.042-121.991,16.916-17.2,34.171-34.057l-78.08,120.122L-4509.63,3825.96l-57.855,89.007a5.275,5.275,0,0,0,1.871,7.134,5.313,5.313,0,0,0,7.134-1.871q37.241-55.26,79.116-107.194,11.339-14.046,23.009-27.823-23.183,30.613-45.018,62.217-19.948,28.889-38.724,58.565c-3.1,4.9,4.4,10.971,8.19,6.32,25.676-31.515,51.533-62.9,78.668-93.182,26.85-29.96,54.968-58.853,85.213-85.409q7.966-6.993,16.126-13.753-17.588,21.487-34.643,43.4-31.72,40.781-61.578,82.961-16.765,23.714-32.913,47.857c-1.566,2.342-.454,5.774,1.871,7.135,2.6,1.523,5.511.441,7.134-1.871a817.769,817.769,0,0,1,71.105-87.7,828.81,828.81,0,0,1,82.813-77.488q19.118-15.573,39.167-29.937c-7.58,22.8-20.078,43.682-33.358,63.68-17.752,26.73-36.2,53.016-54.332,79.485q-3.171,4.63-6.344,9.257-13.094,17.972-25.133,36.685a5.279,5.279,0,0,0,1.871,7.134,5.318,5.318,0,0,0,7.135-1.871q12.419-18.125,24.836-36.25,15.193-20.863,31.791-40.656a766.708,766.708,0,0,1,66.517-69.8q8.852-8.188,17.963-16.084-25.449,43.488-51.837,86.419-28.252,45.959-57.571,91.253-10.3,14.078-20.118,28.5-17,24.983-32.476,50.953c-3.474,5.826,5.279,10.771,9.006,5.264q26.665-39.4,52.523-79.347,3.4-4.651,6.858-9.266a998.39,998.39,0,0,1,68.167-81.426q12.072-12.965,24.6-25.492a938.9,938.9,0,0,1-46.726,96.939q-9.154,16.5-18.96,32.625a5.293,5.293,0,0,0,1.87,7.134c2.662,1.557,5.445.394,7.135-1.871a460.736,460.736,0,0,1,65.252-70.549c.464-.409.934-.814,1.4-1.221q-23.111,44.2-49.661,86.481-9.475,15.075-19.37,29.878c-3.249,4.862,4.362,10.881,8.189,6.318a907.579,907.579,0,0,1,68.527-73.079,894.763,894.763,0,0,1,75.8-64.766q16.393-12.477,33.346-24.19a648.441,648.441,0,0,1-38.779,89.146q-7.471,14.158-15.63,27.937c-3.437,5.815,5.375,10.872,9.006,5.264a71.542,71.542,0,0,1,26.174-24.039c5.907-3.191.647-12.2-5.264-9.006q-1.912,1.033-3.757,2.167a667.127,667.127,0,0,0,32.419-72.44q5.738-15.182,10.717-30.635C-4105.791,3810.647-4111.051,3806.46-4114.812,3808.972Z" transform="translate(5267.721 -2567.927) rotate(11)" fill="#172553" fill-rule="evenodd"/>
</svg>
