<svg id="Group_765" data-name="Group 765" xmlns="http://www.w3.org/2000/svg" width="314.404" height="163.069" viewBox="0 0 314.404 163.069">
  <path id="Path_13577" data-name="Path 13577" d="M753.437,534.414h.969v.86h-.969Z" transform="translate(-625.165 -534.414)" fill="#538fe4" fill-rule="evenodd"/>
  <path id="Path_13578" data-name="Path 13578" d="M758.764,535.274c.228-.807,2.877-.569,3.386,0,.166.187-.007.545.485.431C761.705,536.915,760.111,535.114,758.764,535.274Z" transform="translate(-626.813 -534.414)" fill="#538fe4" fill-rule="evenodd"/>
  <path id="Path_13579" data-name="Path 13579" d="M781.992,534.844c.426.886-1.256,1.931-1.453.861-.49.279-.5.988-1.451.86a1.9,1.9,0,0,1-.483-1.291C780.283,535.62,780.465,534.634,781.992,534.844Z" transform="translate(-631.784 -534.414)" fill="#538fe4" fill-rule="evenodd"/>
  <path id="Path_13580" data-name="Path 13580" d="M763.117,535.274c1.012-.182,1.281.295,1.936.431C765,536.927,762.988,536.532,763.117,535.274Z" transform="translate(-627.702 -534.414)" fill="#538fe4" fill-rule="evenodd"/>
  <path id="Path_13581" data-name="Path 13581" d="M796.027,535.274c.145,1.134-.67,1.412-1.937,1.291C793.947,535.431,794.762,535.152,796.027,535.274Z" transform="translate(-635.504 -534.414)" fill="#538fe4" fill-rule="evenodd"/>
  <path id="Path_13582" data-name="Path 13582" d="M814.418,535.274c2.1.179-.51,2.5,0,0Z" transform="translate(-640.461 -534.414)" fill="#538fe4" fill-rule="evenodd"/>
  <path id="Path_13583" data-name="Path 13583" d="M726.336,536.135h.969V537h-.969Z" transform="translate(-618.355 -534.414)" fill="#538fe4" fill-rule="evenodd"/>
  <path id="Path_13584" data-name="Path 13584" d="M777.152,536.565a3.544,3.544,0,0,0,1.453.86c-.238-.095.315-.618.483-.429.244.27-.151.947.484.859,1.1.1,3.151-.913,5.322-.43.69.153.928.624.971-.429a8.618,8.618,0,0,0,4.84.429c2.291-.229,4.154.83,7.258.43a32.808,32.808,0,0,1,7.258-.43c1.007.1,1.017.742,2.422.43.191-.04.623-.43.486-.43.385,0,.484.422.965.43a27.152,27.152,0,0,0,3.39,0c1.375-.18,2.061-1.129,4.354-.859,1.1.128,2.66.359,4.84.429a5.906,5.906,0,0,1,.968,0c.192.044.625.43.485.43.4,0,.472-.458.967-.43.759.046.843.414,1.449.43.881.027,1.99-.708,2.906.431,2.434-.442,4.82-1.145,7.26-.431-.342,1.131-2.272.85-2.9,1.722-1.323.315-.973-.855-1.936-.86-.5-.157-.775.83-.969.86-.582.092-.795-.921-1.451-.86-.594.054-1.133.7-1.937.86-1.192.233-2.795-.181-3.87,0-.939.159-1.509.842-2.419.863-1.045.132-.729-.69-1.452-.863a22.535,22.535,0,0,0-5.81,0c-1.028.109-1.666.763-3.387.431-.5-.1-1.037-.631-1.935-.431-.194.042-.625.431-.485.431-.385,0-.492-.514-.969-.431-1.179.2-1.33.839-2.42.863-1.072.235-.687-.824-1.451-.863a8,8,0,0,1-3.869,0c-.687-.136-.887-.365-1.453-.43-1.127-.129-1.293,1-2.422,0-.017-.017.01-.43,0-.43-1.1.141-1.529,1.554-2.9,1.291-1.229-1.449-2.512-.292-4.356-.861-1.029-.369-.644.611-.966.861-.286.218-1.086-.135-.969.432a7.8,7.8,0,0,0-4.842,0c-.193-.831-1.873-.343-1.451-1.723-1.7.886-2.93-.532-4.356.86a19.78,19.78,0,0,1-3.386-.86c-.85-.207-1.58.743-2.42.86a23.178,23.178,0,0,1-5.324-.43c-.821-.117-1.088-.266-1.936-.43-.647-.125-1.4.194-1.453-.431a4.155,4.155,0,0,0-1.936,1.722c-.642-.559-1.8-.567-1.935.432-.526-.109-.328-.858-.965-.863-1.725-.365-2.9,1.245-3.393-.43-.5-1.446,1.508-.67,2.422-.861.42-.285.467-.624.971-.861.375-.178,1.053.151,1.449,0,.2-.076.006-.367.484-.429,1.1-.141,1.819.779,3.385.429.209-.046.608-.433.487-.429.412-.009.752.535,1.453.429.668-.1,1.767-.423,1.935-.86.914-.384,1.141.8,1.451.86.76.141,1.112-.4,1.938-.429,1.059-.03,1.973.83,3.871.429.352-.073.551-1.292.482-1.29,1.221-.041-.378,1.771,1.452,1.29-.063.017.214-.731.484-.429.018.018,0,.431,0,.429C775.559,537.193,776.359,536.432,777.152,536.565Z" transform="translate(-635.305 -534.414)" fill="#538fe4" fill-rule="evenodd"/>
  <path id="Path_13585" data-name="Path 13585" d="M892.336,537.855c.428,1.279-1.029,1.139-1.936,1.292.176-.03-.267-.671-.484-.43-.9,1-5.07-.1-7.258,0-2.094.1-3.908,1.216-7.262.86a24.969,24.969,0,0,1-3.386-.86c-1.809-.46-1.377,1.068-2.905.86-.365-1.251-3.988.391-4.353-.86-.639.439-1.785.42-2.422.86a2.213,2.213,0,0,1-1.936-.86c-1.257.172-1.459,1.284-2.9,1.291-2.863-.588-5.517.281-9.2-.431-.377-.072-.5-.461-.967-.43-.719.047-1.326.755-1.935.861-1.907.33-3.352-.688-4.84,0,.15-.992-1.4-.479-1.455-1.291-.09-1.829,3.035-.49,3.873-.431,2.361-1.212,8.341-.983,13.066-.861-.09,0,.207.417.484.43.352.016.817-.428,1.456-.43-.092,0,.187.43.48.43.393,0,1.146-.386,1.937-.43,2.383-.126,6.4-.175,9.2,0a15,15,0,0,0,4.84,0,28.721,28.721,0,0,1,8.228-.429,10.075,10.075,0,0,0,3.869,0c.153-.019.885.091.967,0,.928-1.009.5.236.969.429C889.51,537.852,891.658,536.794,892.336,537.855Z" transform="translate(-655.918 -534.414)" fill="#538fe4" fill-rule="evenodd"/>
  <path id="Path_13586" data-name="Path 13586" d="M908.309,537.425c-.153.7-.7.654-1.454.861a15.169,15.169,0,0,1-1.937.431,7.371,7.371,0,0,1-1.936,0c-.449-.4-.246-.14-.966,0-.461.089-.987-.072-1.454,0-1.722.262-2.857.811-3.873-.431a5.386,5.386,0,0,1,3.873-.861,14.668,14.668,0,0,0,3.872,0C905.719,537.273,906.9,537.538,908.309,537.425Z" transform="translate(-663.225 -534.414)" fill="#538fe4" fill-rule="evenodd"/>
  <path id="Path_13587" data-name="Path 13587" d="M908.793,537.425c1.008-.181,1.281.295,1.935.43C910.881,538.616,908.016,538.623,908.793,537.425Z" transform="translate(-664.386 -534.414)" fill="#538fe4" fill-rule="evenodd"/>
  <path id="Path_13588" data-name="Path 13588" d="M838.615,537.855c-.2.824-.174,1.853-1.451,1.722C837.027,538.452,837.342,537.726,838.615,537.855Z" transform="translate(-646.275 -534.414)" fill="#538fe4" fill-rule="evenodd"/>
  <path id="Path_13589" data-name="Path 13589" d="M894.754,537.855h.969v.862h-.969Z" transform="translate(-660.675 -534.414)" fill="#538fe4" fill-rule="evenodd"/>
  <path id="Path_13590" data-name="Path 13590" d="M687.619,540.44c-1.342.112-2.687-.156-3.871,0-.715.089-.877.4-1.453.43-1.039.042-1.256-.43-1.934-.43-.529,0-1.836.728-3.388.43a7.312,7.312,0,0,0-2.907,0c-.8.06-1.615-.049-2.418,0-1.31.075-2.509.673-3.873,0-.457-1.567,1.637-1.025,2.42-1.723.422-.375,1.776.277,2.907.43.933.126,2.175-.454,2.417.431.512-.647,1.137-.147,2.42-.431.2-.043.62-.43.485-.43.469,0,1.043.512,1.937.43a7.747,7.747,0,0,0,2.418-.43c.453-.489,2.055-.449,3.389,0C687.019,539.434,687.969,539.36,687.619,540.44Z" transform="translate(-604.647 -534.414)" fill="#538fe4" fill-rule="evenodd"/>
  <path id="Path_13591" data-name="Path 13591" d="M715.205,540.87h1.451a2.549,2.549,0,0,1,.485,2.15C715.855,542.873,715.508,541.89,715.205,540.87Z" transform="translate(-615.639 -534.414)" fill="#538fe4" fill-rule="evenodd"/>
  <path id="Path_13592" data-name="Path 13592" d="M684.232,541.3c.782-.121.832.406,1.452.43-.092.348-.487.429-.483.862h-.969Z" transform="translate(-607.805 -534.414)" fill="#538fe4" fill-rule="evenodd"/>
  <path id="Path_13593" data-name="Path 13593" d="M687.135,541.3a1.2,1.2,0,0,1,.968,1.292c-.781.121-.832-.408-1.453-.431C686.744,541.81,687.137,541.73,687.135,541.3Z" transform="translate(-608.413 -534.414)" fill="#538fe4" fill-rule="evenodd"/>
  <path id="Path_13594" data-name="Path 13594" d="M693.428,541.3h2.9C696.232,542.742,693.33,542.947,693.428,541.3Z" transform="translate(-610.215 -534.414)" fill="#538fe4" fill-rule="evenodd"/>
  <path id="Path_13595" data-name="Path 13595" d="M670.2,541.728c.283,1.542-1.431,1.308-2.9,1.292C667.115,541.572,669.391,542.3,670.2,541.728Z" transform="translate(-603.617 -534.414)" fill="#538fe4" fill-rule="evenodd"/>
  <path id="Path_13596" data-name="Path 13596" d="M917.988,541.728c1.819,1.1-1.027,1.632-2.42,1.292C915.564,540.989,917.512,542.7,917.988,541.728Z" transform="translate(-666.315 -534.414)" fill="#538fe4" fill-rule="evenodd"/>
  <path id="Path_13597" data-name="Path 13597" d="M902.982,542.59c-.287,1.529-5.939,2.976-6.293.43C898.383,542.622,901.66,541.947,902.982,542.59Z" transform="translate(-662.179 -534.414)" fill="#538fe4" fill-rule="evenodd"/>
  <path id="Path_13598" data-name="Path 13598" d="M913.144,542.159h.969c.225.919-.687.818-1.451.861C912.756,542.671,913.15,542.591,913.144,542.159Z" transform="translate(-665.278 -534.414)" fill="#538fe4" fill-rule="evenodd"/>
  <path id="Path_13599" data-name="Path 13599" d="M840.068,542.59c1.178,1.417,2.391.141,4.84.43-.146,1.132.668,1.412,1.934,1.291.355,1.172-.959.865-.965,1.719-.867-.038-1.027-.4-1.936-.429-1.459-.044-2.211,1.049-3.388,0-.639-.568-.252-.026-1.455.429-.821.159-.911-.336-.967-.861a7.051,7.051,0,0,0-3.387,2.152c-.766.035-1.848-.206-1.935.432-.526-.108-.327-.856-.967-.861-.383-1.773,2.316-.808,1.933-2.581.565.07.862-.1.969-.43,1.369-.357,1.254.6,2.42.43A4.553,4.553,0,0,0,840.068,542.59Z" transform="translate(-647.049 -534.414)" fill="#538fe4" fill-rule="evenodd"/>
  <path id="Path_13600" data-name="Path 13600" d="M887.978,543.02c-.089,1.208-.839,1.833-2.416,1.719.079-1.216-2.982.357-2.9-.858-.994-.014-.822,1.238-1.937,1.288-.559.027-.866.019-.969.432-2.543-1.227-6.779.559-8.225-.862-.144-2.242,3.891-1.849,5.809-1.719a4.023,4.023,0,0,0,.963,0c.525-.568.144,0,.484,0,2.047,0,3.57-.616,5.811.43C886.207,543.185,886.242,542.185,887.978,543.02Z" transform="translate(-657.631 -534.414)" fill="#538fe4" fill-rule="evenodd"/>
  <path id="Path_13601" data-name="Path 13601" d="M894.275,542.59h.963v1.291h-1.449C893.65,543.185,894.244,543.139,894.275,542.59Z" transform="translate(-660.521 -534.414)" fill="#538fe4" fill-rule="evenodd"/>
  <path id="Path_13602" data-name="Path 13602" d="M644.062,543.45c-.425.958-3.761,2.01-3.386,0C641.752,542.454,642.562,543.6,644.062,543.45Z" transform="translate(-582.115 -534.414)" fill="#538fe4" fill-rule="evenodd"/>
  <path id="Path_13603" data-name="Path 13603" d="M644.547,543.02a1.2,1.2,0,0,1,.969,1.291A1.2,1.2,0,0,1,644.547,543.02Z" transform="translate(-582.115 -534.414)" fill="#538fe4" fill-rule="evenodd"/>
  <path id="Path_13604" data-name="Path 13604" d="M719.56,543.02c1.008.942,1.565-.377,2.422.43.225.917-.693.819-1.453.861.205.9-.334,1.138-.484,1.719-1.041.46-2.149-.423-2.9-.429-.323,0-.866.375-1.452.429-.382.038-3.832-.465-4.355,0-.344.307-.545.184-1.451,0-.307-.059-.666.068-.971,0-.924-.206-.5-.122-2.416,0a12.6,12.6,0,0,1-5.326-.429c-1.018-2.179,1.974-.463,2.9-1.29.629-.559.43-.174,1.938,0,.922.106,2.162-.022,2.9,0,1.16.03,1.2.648,2.9.428,1.217-.155,3.377-.26,3.873-.428.538-.182.469-1.064,1.452-.861-.164.863.1,1.346.968,1.289C719.672,545.126,718.791,543.337,719.56,543.02Z" transform="translate(-613.484 -534.414)" fill="#538fe4" fill-rule="evenodd"/>
  <path id="Path_13605" data-name="Path 13605" d="M868.137,543.881c.043,2.141-4.19,1.145-6.774,1.72-.408.09-1.336.671-1.937-.432-.963.435-2.065.745-2.418,1.723a2.99,2.99,0,0,0-1.94-.43c-.414-.348-.287-1.179-.965-1.293-2.07.187-4.906,1.442-6.775.432-.131-4.36,7.813-.463,9.193-2.581.4-.158,2.748,1.557,3.389.861.024-.026-.019-.431,0-.431.322-.015.592.41.484.431,1.727-.309,2.862-1.32,5.807-.861.051.007.1.412.484.43C867.369,543.481,868.059,543.325,868.137,543.881Z" transform="translate(-652.073 -534.414)" fill="#538fe4" fill-rule="evenodd"/>
  <path id="Path_13606" data-name="Path 13606" d="M892.82,543.02c.76,1.479-3.24,2.043-2.9.43C890.484,542.954,891.629,542.963,892.82,543.02Z" transform="translate(-659.835 -534.414)" fill="#538fe4" fill-rule="evenodd"/>
  <path id="Path_13607" data-name="Path 13607" d="M830.873,543.881c-.711,2.132-3.773,3.259-5.326,1.288C825.769,543.219,829.248,543.337,830.873,543.881Z" transform="translate(-643.928 -534.414)" fill="#538fe4" fill-rule="evenodd"/>
  <path id="Path_13608" data-name="Path 13608" d="M689.557,544.311c1.043-1.449,2.22.564,3.386.428.823.158.912-.336.967-.858.635.516.762.167,1.453,0,.944-.519.756.8.967.858,1.371.365,4.2-.774,3.871,1.291a105.577,105.577,0,0,1-10.644,0C689.7,545.767,690.76,544.374,689.557,544.311Z" transform="translate(-609.754 -534.414)" fill="#538fe4" fill-rule="evenodd"/>
  <path id="Path_13609" data-name="Path 13609" d="M831.357,544.311c.526-1.768,2.024,1.533,0,.858C831.656,544.787,831.941,544.4,831.357,544.311Z" transform="translate(-644.753 -534.414)" fill="#538fe4" fill-rule="evenodd"/>
  <path id="Path_13610" data-name="Path 13610" d="M779.572,544.739c-.148.586-1.211.357-1.935.43C777.771,544.175,778.93,544.182,779.572,544.739Z" transform="translate(-631.359 -534.414)" fill="#538fe4" fill-rule="evenodd"/>
  <path id="Path_13611" data-name="Path 13611" d="M913.144,546.892a29.425,29.425,0,0,1-4.835.861,12.058,12.058,0,0,1-1.938,0,30,30,0,0,0-6.775,0c-1.905.2-3.791.85-5.807.858-.3-.877-2.445-.119-1.937-1.719,1.455-.717,2.919-.435,4.355-.43.363,0,.516.535.967.43.14-.032.01-.438.484-.43a5.341,5.341,0,0,1,.971,0c.131.028.713.405.482.43,1.141-.124,1.688-1.14,2.9-.862,1.669-.34,2.043.48,2.9.862.816-1,3.488-.345,5.81-.862C910.986,545.973,913.478,544.891,913.144,546.892Z" transform="translate(-663.919 -534.414)" fill="#538fe4" fill-rule="evenodd"/>
  <path id="Path_13612" data-name="Path 13612" d="M823.131,546.03c1.012-.181,1.281.3,1.935.432C825.219,547.221,822.353,547.229,823.131,546.03Z" transform="translate(-642.804 -534.414)" fill="#538fe4" fill-rule="evenodd"/>
  <path id="Path_13613" data-name="Path 13613" d="M923.793,546.892c-3.117-.335-4.768.637-7.74.429a1.193,1.193,0,0,1,.966-1.291c.444.672,1.995-.16,4.354,0C922.6,546.114,924.309,545.667,923.793,546.892Z" transform="translate(-667.426 -534.414)" fill="#538fe4" fill-rule="evenodd"/>
  <path id="Path_13614" data-name="Path 13614" d="M764.084,546.462c1.791,1.3-1.469,1.45,0,0Z" transform="translate(-627.739 -534.414)" fill="#538fe4" fill-rule="evenodd"/>
  <path id="Path_13615" data-name="Path 13615" d="M787.316,546.462c.1,1.277-1.724,1.516-2.422.859C784.967,546.381,786.117,546.4,787.316,546.462Z" transform="translate(-633.247 -534.414)" fill="#538fe4" fill-rule="evenodd"/>
  <path id="Path_13616" data-name="Path 13616" d="M889.432,546.892c.087.673-.768,2.115-1.938,1.719-.18-.058.047-.521-.484-.428a7.6,7.6,0,0,0-.963.428c-.174.063-.863-.117-.969,0-.025.025.018.43,0,.43a18.285,18.285,0,0,1-2.9-.43c-.772-.185-2.414.012-1.938-1.29.985-1.067,2.129.076,3.391,0C885.525,547.207,887.672,545.733,889.432,546.892Z" transform="translate(-658.524 -534.414)" fill="#538fe4" fill-rule="evenodd"/>
  <path id="Path_13617" data-name="Path 13617" d="M742.791,546.892h.969C743.857,548.1,740.141,546.773,742.791,546.892Z" transform="translate(-622.342 -534.414)" fill="#538fe4" fill-rule="evenodd"/>
  <path id="Path_13618" data-name="Path 13618" d="M878.783,547.321c.348,1.832-2.318,1.138-3.869,1.29-1.338.133-2.791.834-3.387,0-.107-1.912,2.356-1.184,3.869-1.29.141-.008.893.085.971,0C876.961,546.673,876.916,547.595,878.783,547.321Z" transform="translate(-655.953 -534.414)" fill="#538fe4" fill-rule="evenodd"/>
  <path id="Path_13619" data-name="Path 13619" d="M612.6,548.183c.659.133.4,1.075.483,1.719,1.875.446,1.992-.223,3.39.432-.132,2.3-6.742,2.516-6.777,0-1.361.44-2.062.488-1.935-1.293,1.472-.015,3.185-.249,2.9,1.293C611.369,549.665,612.277,549.181,612.6,548.183Z" transform="translate(-582.115 -534.414)" fill="#538fe4" fill-rule="evenodd"/>
  <path id="Path_13620" data-name="Path 13620" d="M735.531,548.183h1.936v.858h-1.936Z" transform="translate(-620.755 -534.414)" fill="#538fe4" fill-rule="evenodd"/>
  <path id="Path_13621" data-name="Path 13621" d="M743.76,548.183c.486,1.294-1.078.763-1.936.858A2.219,2.219,0,0,1,743.76,548.183Z" transform="translate(-622.348 -534.414)" fill="#538fe4" fill-rule="evenodd"/>
  <path id="Path_13622" data-name="Path 13622" d="M754.891,550.334c-1.389.084-2.643.053-2.422-1.293C753.4,548.207,755.434,548.594,754.891,550.334Z" transform="translate(-625.076 -534.414)" fill="#538fe4" fill-rule="evenodd"/>
  <path id="Path_13623" data-name="Path 13623" d="M788.285,550.334c-1.2.943-3.195-.02-3.873-.862-.217-1.2,2.637.338,2.42-.861.781-.119.832.409,1.453.43Z" transform="translate(-633.302 -534.414)" fill="#538fe4" fill-rule="evenodd"/>
  <path id="Path_13624" data-name="Path 13624" d="M802.318,548.611a2.563,2.563,0,0,1,.485,2.153c-1.795.3-2.076-.735-3.871-.43C799.332,548.246,800.859,549.117,802.318,548.611Z" transform="translate(-636.983 -534.414)" fill="#538fe4" fill-rule="evenodd"/>
  <path id="Path_13625" data-name="Path 13625" d="M811.516,548.611c1.468.532-.526,1.482,0,2.583C810.435,551.015,811.135,548.912,811.516,548.611Z" transform="translate(-639.636 -534.414)" fill="#538fe4" fill-rule="evenodd"/>
  <path id="Path_13626" data-name="Path 13626" d="M825.547,548.611c.178,2.234-1.844,1.568-2.9.861C823.09,548.722,824.158,548.524,825.547,548.611Z" transform="translate(-642.837 -534.414)" fill="#538fe4" fill-rule="evenodd"/>
  <path id="Path_13627" data-name="Path 13627" d="M826.516,548.611h1.937c.205.9-.334,1.14-.484,1.723C826.693,550.463,826.381,549.737,826.516,548.611Z" transform="translate(-643.674 -534.414)" fill="#538fe4" fill-rule="evenodd"/>
  <path id="Path_13628" data-name="Path 13628" d="M728.756,549.041h1.935c.278.9,1.2,1.231.967,2.584-1.676.346-1.857-.642-3.389-.431-.017-1.1.364-.525.971-.43C729.3,549.993,728.648,549.856,728.756,549.041Z" transform="translate(-619.057 -534.414)" fill="#538fe4" fill-rule="evenodd"/>
  <path id="Path_13629" data-name="Path 13629" d="M745.211,549.041c.781-.119.834.408,1.453.431-.092.349-.486.43-.484.862h-.969Z" transform="translate(-623.145 -534.414)" fill="#538fe4" fill-rule="evenodd"/>
  <path id="Path_13630" data-name="Path 13630" d="M803.769,549.041c.827-.155.916.337.969.861-.41-.078-.455.169-.482.432C803.687,550.265,803.848,549.55,803.769,549.041Z" transform="translate(-637.812 -534.414)" fill="#538fe4" fill-rule="evenodd"/>
  <path id="Path_13631" data-name="Path 13631" d="M700.687,552.054c-1.285-.434-2.753-.705-2.9-2.152C699.41,548.505,701.773,551.041,700.687,552.054Z" transform="translate(-611.334 -534.414)" fill="#538fe4" fill-rule="evenodd"/>
  <path id="Path_13632" data-name="Path 13632" d="M708.912,549.9c-.264,1.513-2.8.693-3.871.432C705.742,549.611,707.922,549.073,708.912,549.9Z" transform="translate(-613.219 -534.414)" fill="#538fe4" fill-rule="evenodd"/>
  <path id="Path_13633" data-name="Path 13633" d="M712.3,549.472c.82-.157.912.337.966.862-.41-.079-.457.168-.484.43C712.221,550.694,712.379,549.979,712.3,549.472Z" transform="translate(-614.828 -534.414)" fill="#538fe4" fill-rule="evenodd"/>
  <path id="Path_13634" data-name="Path 13634" d="M718.109,551.625c-.431-.191-.865-.379-.968-.861-1-.26-3.364.7-2.9-.862C715.924,549.171,718.482,549.33,718.109,551.625Z" transform="translate(-615.539 -534.414)" fill="#538fe4" fill-rule="evenodd"/>
  <path id="Path_13635" data-name="Path 13635" d="M722.951,549.472v1.722c-1.525-.215-1.894.938-2.906,0A4.553,4.553,0,0,1,722.951,549.472Z" transform="translate(-616.935 -534.414)" fill="#538fe4" fill-rule="evenodd"/>
  <path id="Path_13636" data-name="Path 13636" d="M727.3,549.472c.06.772-.592.91-.483,1.722-.762-.185-.414-1.351-1.937-.86A2.507,2.507,0,0,1,727.3,549.472Z" transform="translate(-618.115 -534.414)" fill="#538fe4" fill-rule="evenodd"/>
  <path id="Path_13637" data-name="Path 13637" d="M691.49,551.194c-1-.259-3.359.694-2.9-.86C689.775,549.99,691.379,549.595,691.49,551.194Z" transform="translate(-608.983 -534.414)" fill="#538fe4" fill-rule="evenodd"/>
  <path id="Path_13638" data-name="Path 13638" d="M694.394,549.9a2.446,2.446,0,0,0,1.452.432c-.436.749-1.08,1.658-1.936.86C693.773,550.5,694.369,550.455,694.394,549.9Z" transform="translate(-610.268 -534.414)" fill="#538fe4" fill-rule="evenodd"/>
  <path id="Path_13639" data-name="Path 13639" d="M750.051,550.334c.177,1.823-2.1.378-2.9.43C746.92,549.795,749.775,549.436,750.051,550.334Z" transform="translate(-623.776 -534.414)" fill="#538fe4" fill-rule="evenodd"/>
  <path id="Path_13640" data-name="Path 13640" d="M775.7,549.9c1.01-.181,1.279.3,1.934.432-.424.629-.385,1.666-1.934,1.291Z" transform="translate(-630.872 -534.414)" fill="#538fe4" fill-rule="evenodd"/>
  <path id="Path_13641" data-name="Path 13641" d="M795.059,549.9h1.451v.862h-1.451Z" transform="translate(-635.685 -534.414)" fill="#538fe4" fill-rule="evenodd"/>
  <path id="Path_13642" data-name="Path 13642" d="M797.478,550.334c.186-.819.614.275.485.86C797.779,552.014,797.348,550.92,797.478,550.334Z" transform="translate(-636.169 -534.414)" fill="#538fe4" fill-rule="evenodd"/>
  <path id="Path_13643" data-name="Path 13643" d="M603.894,550.334c.432.191.866.378.965.86.418,1.719-1.775,1.371-2.9,1.721-1.453.452-2.76,1.468-3.871.43,0-1.286,1.953-1.338,2.9-1.72.229-.093-.039-.406.485-.431a2.114,2.114,0,0,0,.484,0A4.982,4.982,0,0,0,603.894,550.334Z" transform="translate(-582.115 -534.414)" fill="#538fe4" fill-rule="evenodd"/>
  <path id="Path_13644" data-name="Path 13644" d="M683.264,550.764c-.155-.76,2.713-.767,1.937.43C684.187,551.376,683.918,550.9,683.264,550.764Z" transform="translate(-607.598 -534.414)" fill="#538fe4" fill-rule="evenodd"/>
  <path id="Path_13645" data-name="Path 13645" d="M671.164,551.194c-.666,1.59-2.412-.454-2.9,1.29-.453-.457-1.785-.132-1.453-1.29C668.242,550.6,668.916,551.446,671.164,551.194Z" transform="translate(-603.56 -534.414)" fill="#538fe4" fill-rule="evenodd"/>
  <path id="Path_13646" data-name="Path 13646" d="M696.814,550.764c2.219.287-.388,2.605,0,0Z" transform="translate(-610.925 -534.414)" fill="#538fe4" fill-rule="evenodd"/>
  <path id="Path_13647" data-name="Path 13647" d="M704.074,551.194h.967v.86h-.967Z" transform="translate(-612.761 -534.414)" fill="#538fe4" fill-rule="evenodd"/>
  <path id="Path_13648" data-name="Path 13648" d="M889.916,553.345c1.055-.078,1.537.352,1.453,1.291.867.056,1.022-.526,1.938-.43.224,1.34-1.221,1.539-1.938.86-1.142.133-.9,1.495-2.422,1.291C889.754,555.782,889.113,553.92,889.916,553.345Z" transform="translate(-659.85 -534.414)" fill="#538fe4" fill-rule="evenodd"/>
  <path id="Path_13649" data-name="Path 13649" d="M900.562,553.775c.52,1.608-1.2,1.227-.966,2.582-1.088.329-1.543-1.987-2.422-.43C895.633,554.525,898.518,553.413,900.562,553.775Z" transform="translate(-661.735 -534.414)" fill="#538fe4" fill-rule="evenodd"/>
  <path id="Path_13650" data-name="Path 13650" d="M901.531,553.775c.942-.17.709,1.959-.484,1.291v-.86C901.459,554.284,901.5,554.039,901.531,553.775Z" transform="translate(-662.275 -534.414)" fill="#538fe4" fill-rule="evenodd"/>
  <path id="Path_13651" data-name="Path 13651" d="M915.568,557.648c.364,1.573-1.232,1.113-2.906,1.292-.143.014-.887-.089-.969,0-.41.446-.468,0-1.449,0-1.178-.005-2.435.354-3.389,0,.172-1.255,2.293-.818,3.389-.861a4.253,4.253,0,0,0,.965,0c.531-.575.156.025.484,0A17.8,17.8,0,0,1,915.568,557.648Z" transform="translate(-665.264 -534.414)" fill="#538fe4" fill-rule="evenodd"/>
  <path id="Path_13652" data-name="Path 13652" d="M922.824,557.648c-.445.993-8.385.135-2.418,0C921.213,557.63,922.019,557.66,922.824,557.648Z" transform="translate(-687.308 -534.414)" fill="#538fe4" fill-rule="evenodd"/>
  <path id="Path_13653" data-name="Path 13653" d="M976.545,564.532a1.333,1.333,0,0,1-1.449.862A1.333,1.333,0,0,1,976.545,564.532Z" transform="translate(-687.308 -534.414)" fill="#538fe4" fill-rule="evenodd"/>
  <path id="Path_13654" data-name="Path 13654" d="M984.771,661.772c1.991.751.571,1.134-.964,1.291-.922.1-3.471.365-2.905-.862.778-.118.834.409,1.453.431C982.646,661.891,984.648,662.666,984.771,661.772Z" transform="translate(-687.308 -534.414)" fill="#538fe4" fill-rule="evenodd"/>
  <path id="Path_13655" data-name="Path 13655" d="M659.549,672.1c-.055,1.1-1.619.855-2.9.861C657.033,672.048,658.637,671.281,659.549,672.1Z" transform="translate(-582.115 -534.414)" fill="#538fe4" fill-rule="evenodd"/>
  <path id="Path_13656" data-name="Path 13656" d="M655.678,673.391c-.184,1.192-2.883,1.021-3.387.86-1.51-.482.91-.155,1.451-.86C654.705,674.107,654.357,673.352,655.678,673.391Z" transform="translate(-582.115 -534.414)" fill="#538fe4" fill-rule="evenodd"/>
  <path id="Path_13657" data-name="Path 13657" d="M634.383,674.682h.969v.858h-.969Z" transform="translate(-582.115 -534.414)" fill="#538fe4" fill-rule="evenodd"/>
  <path id="Path_13658" data-name="Path 13658" d="M609.7,685.868h.967C610.764,687.079,607.053,685.747,609.7,685.868Z" transform="translate(-582.115 -534.414)" fill="#538fe4" fill-rule="evenodd"/>
  <path id="Path_13659" data-name="Path 13659" d="M616.478,685.868h1.45C618.062,687.026,613.66,685.867,616.478,685.868Z" transform="translate(-582.115 -534.414)" fill="#538fe4" fill-rule="evenodd"/>
  <path id="Path_13660" data-name="Path 13660" d="M802.8,686.728c.955.34,1.74,1.5.966,2.153C801.826,688.941,802.49,687.776,802.8,686.728Z" transform="translate(-637.567 -534.414)" fill="#538fe4" fill-rule="evenodd"/>
  <path id="Path_13661" data-name="Path 13661" d="M624.705,688.02c.465,1.854-3.061,1.457-3.871.861C621.607,688.135,623.012,687.947,624.705,688.02Z" transform="translate(-582.115 -534.414)" fill="#538fe4" fill-rule="evenodd"/>
  <path id="Path_13662" data-name="Path 13662" d="M834.26,689.741a3.026,3.026,0,0,0-.967,3.012c-3.024.346-3.635.187-6.777.43.084-1.223-1.633-.84-.969-2.583,1.418-.219,2.73,1.367,2.422-.859,1.031-.2.922.614.968,1.288a7.474,7.474,0,0,0,1.452-1.719C832.184,689.006,832.467,690.045,834.26,689.741Z" transform="translate(-644.422 -534.414)" fill="#538fe4" fill-rule="evenodd"/>
  <path id="Path_13663" data-name="Path 13663" d="M776.668,689.741c1.156,1.359,3.508-1.023,3.871.859,1.543-.809,2.027.11,3.873-.43.209.82,1.043,1.081.969,2.152-1.567-.186-4.188.565-4.356-.861-.888,1.164-1.638.074-2.42.861C777.736,691.657,776.182,691.608,776.668,689.741Z" transform="translate(-631.912 -534.414)" fill="#538fe4" fill-rule="evenodd"/>
  <path id="Path_13664" data-name="Path 13664" d="M799.9,691.461c-.574-.17-.246.753-.484.861s-.7-.059-.967,0a.846.846,0,0,0-.486.431c-.8.077-.819-.42-1.453-.431-.512-.009-2.248.846-3.869.431-.145-.878-1.311-.845-1.454-1.724.067-1.947,3.284-1.1,5.323-1.288.924.807.875-.256,2.422,0C798.937,690.594,800.254,690.286,799.9,691.461Z" transform="translate(-635.649 -534.414)" fill="#538fe4" fill-rule="evenodd"/>
  <path id="Path_13665" data-name="Path 13665" d="M605.344,690.17H606.8v.859h-1.455Z" transform="translate(-582.115 -534.414)" fill="#538fe4" fill-rule="evenodd"/>
  <path id="Path_13666" data-name="Path 13666" d="M786.35,690.17H787.8c.132.7-.459.74-.487,1.291h-.966Z" transform="translate(-633.497 -534.414)" fill="#538fe4" fill-rule="evenodd"/>
  <path id="Path_13667" data-name="Path 13667" d="M924.762,692.753c-3.174-.784-5.659.461-8.225-.862V690.6c2.148-1.445,4.609.922,6.287,0C922.912,691.813,925.127,691.136,924.762,692.753Z" transform="translate(-667.639 -534.414)" fill="#538fe4" fill-rule="evenodd"/>
  <path id="Path_13668" data-name="Path 13668" d="M890.4,690.6c1.953.73,3.481-.824,3.389,1.722C891.977,692.356,889.871,692.648,890.4,690.6Z" transform="translate(-660.027 -534.414)" fill="#538fe4" fill-rule="evenodd"/>
  <path id="Path_13669" data-name="Path 13669" d="M849.266,691.891h.966v.862h-.966Z" transform="translate(-649.244 -534.414)" fill="#538fe4" fill-rule="evenodd"/>
  <path id="Path_13670" data-name="Path 13670" d="M615.994,693.613c.08.932-1.719.194-2.422.429-.765-.035-1.845.209-1.935-.429C613.566,693.984,615.215,692.971,615.994,693.613Z" transform="translate(-582.115 -534.414)" fill="#538fe4" fill-rule="evenodd"/>
  <path id="Path_13671" data-name="Path 13671" d="M697.3,694.473c-.117.755-.832.982-1.936.86A2.217,2.217,0,0,1,697.3,694.473Z" transform="translate(-610.638 -534.414)" fill="#538fe4" fill-rule="evenodd"/>
  <path id="Path_13672" data-name="Path 13672" d="M620.834,695.764c1.012-.183,1.279.3,1.934.43C622.92,696.953,620.059,696.963,620.834,695.764Z" transform="translate(-582.115 -534.414)" fill="#538fe4" fill-rule="evenodd"/>
  <path id="Path_13673" data-name="Path 13673" d="M623.252,696.194c1.469-1.59,1.631,1.306,0,0Z" transform="translate(-582.115 -534.414)" fill="#538fe4" fill-rule="evenodd"/>
  <path id="Path_13674" data-name="Path 13674" d="M703.59,536.565c.062-.95,2.053-.181,2.906-.43,1.553-.378.662,1.417,1.934,1.29,1.066.017,2.673-.021,3.873,0,1.343.025,2.853-.381,3.386.43.5,1.448-1.5.672-2.42.862-.914.047-.335,1.422-1.453,1.291-1.564.531-.369-1.394-1.933-.861-1.524-.493-1.176.675-1.938.861-3.1.044-5.552-.059-8.711,0,.123,0-.236.7-.484.432-.844-.941-2.813-.13-4.84,0a6.237,6.237,0,0,0-.967,0c-.966.214-.892.2-2.9,0-.762-.081-1.854.235-1.938-.432-.05-1.836,4.581-.278,5.325-1.722,1.455.957,1.687.507,3.871.431.564-.07.408-.785.484-1.292,1.854.6,5.248-.828,6.776.861.859-.382,1.232-1.2,2.9-.861C707.047,536.361,704.094,537.552,703.59,536.565Z" transform="translate(-610.562 -534.414)" fill="#538fe4" fill-rule="evenodd"/>
  <path id="Path_13675" data-name="Path 13675" d="M744.728,538.717a10.107,10.107,0,0,1,3.87-.431,2.009,2.009,0,0,0,.968-2.151c.932.8.381.788,1.938.43v1.721c-.248.793-1.276-.2-1.453,0-.139.155-.631,1.132-1.453,1.291a26.365,26.365,0,0,1-3.387,0c-.508.019-2.129-.387-2.42.431-.568-.068-.408-.783-.482-1.291a3.045,3.045,0,0,0-.971,1.291c-.565-.742-1.178.005-1.936,0-.789-.006-.82-.4-1.449-.431-.3-.013-.879.383-1.453.431-.779.06-1.787-.514-2.42,0v-1.291c-1.1-.592-1.82,1.108-1.937,0-.579-.157-.241.735-.485.86-.808.415-2.752-.3-2.9.863-1.319.311-.973-.858-1.934-.863-.754.621-3.01.471-5.322.431-1.191-.023-3.022.369-3.391-.431-.234-1.762,4.4-.44,6.291-.86.848-.188.6-.283,2.422,0,.764-.07,0-.448,0-.431.043-.62,1.041-.483.965-1.721a5.058,5.058,0,0,1,2.9,1.29c1.491.322.932-1.179,2.42-.859-.623.513,2.137.736,2.42.429.692-.749.641.067,1.453,0a.615.615,0,0,1,.483-.429,26.628,26.628,0,0,0,3.388.429c1.272.127.383-1.668,1.936-1.29-.215.384-.424.769-.967.861.072.96,1.219-.56,2.418,0C744.18,537.768,744.836,537.9,744.728,538.717Z" transform="translate(-619.155 -534.414)" fill="#538fe4" fill-rule="evenodd"/>
  <path id="Path_13676" data-name="Path 13676" d="M738.435,544.311c1.176,1.288-3.636,2.07-4.355,1.29-.418-.454-.219-.109-1.937,0-.633.041-1.3-.079-1.934,0-.818.1-1.063.472-1.94.429a32.247,32.247,0,0,1-3.869-.861c.573-.637.418-1.922,1.936-1.719,2.121-.314-.389.855.969.861,2,.344,1.466-1.564,3.386-1.291,1.793-.3,1.207,1.508,1.936,2.149.951.351,1.094-.755,1.453-.858C735.289,543.959,736.725,544.56,738.435,544.311Z" transform="translate(-619.037 -534.414)" fill="#538fe4" fill-rule="evenodd"/>
  <path id="Path_13677" data-name="Path 13677" d="M809.094,545.6c-.848.642.427,1.8-1.451,2.152-1.563.385-.682-1.4-1.454-1.723-1.2-.063-2.347-.08-2.42.862-1.466-.135-1.96-2.43-.966-3.442a18.782,18.782,0,0,1,5.326.431c.166.049,0,.406.482.43.569.025.407.816.483,1.29.568-.07.408-.785.484-1.29,1.736.254,2.34-.5,3.387-.861,3.191.6,6.06.24,9.195,0-.75,1.528,1.643.259,1.453,1.289.332,1.1-.828.58-1.453.862-.213.095-.812.822-.969.861-.57.142-.291-.4-.48-.432-.234-.039-1.5.831-2.9.432-.86.385-.618,1.745-2.42,1.291a2.56,2.56,0,0,1-.485-2.152c-1.763.3-2.234,1.746-4.357,1.72-.178-.73.379-.81.971-.859C810.893,545.344,809.209,546.268,809.094,545.6Z" transform="translate(-640.276 -534.414)" fill="#538fe4" fill-rule="evenodd"/>
  <path id="Path_13678" data-name="Path 13678" d="M717.015,549.041c.155,1.908-2.113.938-2.176,2.584.427,1.3,3.306-.311,3.264.429,1.086-.282-.347-.919,0-1.72.292-.371.994-.256,1.087-.862,1.436.461-.092,1.307,0,2.582h3.263c1.082-.007.465-2.029,1.089-2.582.707-.21,1.305,2.137,0,1.722-.226,1.539,1.111.178,1.813.431.292.1.223.84.725.859.325.016,2.046-.974,2.9,0,.648.738,1.256-.285,2.539-.43-.041-.812-1.2-.3-1.087-1.29-.252-1.157.748-.831,1.087-1.292.088-.756.622-.978,1.45-.861-.279,1.1-.363,2.442-1.089,3.014.369,2,4.175-.076,5.077,1.29.395-.106.246-.856.725-.861,1.483.424,1.465-.047,3.262,0,.235.438.835.446.726,1.291.3-.293.367-.612.725-.861.135-.089.631.136.726,0,.342-.495,1.089,0,1.451-.43.028-.035-.034-.417,0-.429.317-.106.785.154,1.087,0,.165-.083-.037-.434.363-.431a2.389,2.389,0,0,1,1.813.86c.616.159.683-.335.726-.86.788.143.979.431,1.813.431.611,0,1.226-.478,1.812-.431.814.065,2.9,2.23,3.989,0,.139-1.457-1.606-.676-1.089-2.583,1.833.29,2.744-.984,3.628.43.465-.592,1.574-.424,2.536-.43.1,1.407-1.406.913-1.447,2.153-.886-.361-2.355-.667-2.541.861.06.5.662.364,1.087.429.3.26.347-.864.365-.86.377.1.294.711.725.86a5.169,5.169,0,0,0,3.264-.429,4.229,4.229,0,0,1,1.087-.431c.737-.069,1.358.4,2.174.431,1.412.048,2.931-.881,4.353-.431.641-.816.336-2.754,1.087-3.441,1.248-.79,1.844.307,2.538,1.288-.29,1.091-1.491,1.1-2.175,1.723.867,1.133,3.087.154,3.99,0,.593-.1,1.218.077,1.812,0,.214-.339.736-.757,1.09-1.292a2.6,2.6,0,0,0,.725-1.719h3.626a1.019,1.019,0,0,0,1.088.858c.143,1.033-1.653-.236-1.088,1.291-1.176.251-1.689-.294-2.54-.43-.53.375-1.148.643-1.086,1.722.109.855.375-.127,1.45,0,.542.065.657.435,1.089.431.473-.005.732-.752,1.812-.431.169.05,1.752.5,2.539-.43,1.663.578,1.5.134,3.262,0,.559-2.095-1.327-1.292-1.813-2.153-.349-1.38,1.278-.738,1.813-.858a10.337,10.337,0,0,1,1.815-.432c.8-.015.906.334,1.451.432.806.144,2.162-.475,2.537.43.347-.253.311-.665.726-.862.591-.279,1.78.21,2.538,0,.253,1.592-.574,1.9-1.813,1.72-.217-.644-.789-.021-.725,0-.2-.079-.708-.858-.726-.858-.211-.024-.923.385-1.448.428A8.654,8.654,0,0,0,789.9,549.9c.524,1.462,2.312.816,3.263.862a21.775,21.775,0,0,0,3.989,0c.978-.142,2-.785,2.9-.862.706-.056,1.2.417,1.812.432,1.4.033,2.117-.423,3.627,0,.723.2.692-.043,1.089.43.451.536,2.085-.842,2.9-.43,1.061-.113,1.113.972,2.174.86,1.115-.112,1.633-.934,2.539-1.292.853.707,2.124-.058,3.263,0,1.231.067,1.858.592,3.263,0,.085-.034.094-.348.363-.43.2-.057,1.849-.411,1.45.862.847-.133,1.5-.842,2.177,0-.031.786-.634.544-1.089.86-.151.106-.609.822-.725.86-.586.2-1.69-.149-2.538,0-.547.1-.642.378-1.087.43-.6.073-.614-.435-1.09-.43-.59.01-.616.331-1.087.43s-.991-.127-1.449,0c-.3.086-.36.374-.726.431.121-.018-.193-.682-.363-.431-.243.362-.518.457-1.087.431-.709-.034-1.012-.456-1.452-.431-.588.035-.614.353-1.089.431-1.247.208-2.638-.145-3.624.43.824,1.166,1.4,1.345,2.9.861-.446,1.392,1.174.328.725,1.721a1.974,1.974,0,0,1-2.535,0c-1.024.077-.453,2.045-1.815,1.721-.253-.345-.563-1.178,0-1.291.11-.994-1.049-.478-1.089-1.291.144-.235-.18-1.1,0-1.291.052-.052.723.052.726,0,.048-.544-.771-.693-.726-1.291-.575-.487-1.147.438-1.81.431-.548-.006-.677-.494-1.089-.431-.667.1-1.279.7-1.813.861a10.18,10.18,0,0,1-4.715,0,6.952,6.952,0,0,0-3.263-.43c-.748.134-1.812.148-3.266.43-1.308.255-2.222,1.348-3.625.861.494,1.279,2.506.756,3.989.86.608.714.289,2.527.363,3.874.909-1.219.688-3.778,2.176-4.3,1.168.193,2.106.658,1.813,2.582.758.182.959-.3,1.451-.431.662-.7-.256-1.362.725-2.151.436.334.63-.423.725-.43.918-.064.316,1.3,1.088.43.39-.441,1.21-.672,1.089,1.291a1.8,1.8,0,0,1,1.451-.43v2.582c-.963,0-2.072-.162-2.54.43-.158,1.176,1.112.37,1.814.431.924.079,1.948.531,3.265-.431.261-1.318-.628-1.265-.363-2.582.874.176.785-.785,1.81-.43a1.183,1.183,0,0,0,.725,1.29c.107,1.56-2.449-.04-1.81,2.153.164.937.583-.407.722-.431.353-.06,1.089.86,2.177.431,1.14-.495.881.674,1.452.86-.638,1.252-2.007,1.638-3.63,1.722.416,1.255,1.985.83,1.089,2.581,1.07-.454,1.26-1.947,1.815-3.012.85.137,1.361.68,2.539.431.562-1.817-2.014.094-1.451-1.722.369-.28.375-.989,1.087-.86,3.585-.233,5.466-.011,8.337-.431.441,2.243-1.493,1.67-2.9,1.721-.289,1.636,1.714.546,2.538.861.3-.082.361-.433.725-.431.932-.044.584-1.6,1.09-2.151.955-.413,3.105-.831,3.988,0,.253,1.593-1.272,1.073-1.813,1.721.148.829,1.408.339,1.087,1.722.11,1.133-.5,1.411-1.45,1.289.232,1.2,1.075.072,1.813,0a11.391,11.391,0,0,1,4.715.431c-.008.446-.827.318-.725.86.322,1.733,4.162,1.985,6.89,1.722.76-.074,1.215-.224,2.536-.43.676-.107,1.039-.841,2.176-.43.809.29.611.118,2.175,0,.781-.061,1.636.067,2.177,0s.651-.422,1.087-.431c.59-.013.619.334,1.089.431a11.121,11.121,0,0,0,4.351-.431,4.577,4.577,0,0,1,1.45,0c.662.1,2.292.747,3.625.431a2.257,2.257,0,0,1,.365,1.289c1.684-.251,2.188.589,3.265,0,0,.444.455.3.726.43.092.044.476.446.358.431.336.041.789-.412.726-.431.645.187.858.8,1.451.862,2.3.238,5.09-.717,7.979-.431-.369.566-.357,1.588-.725,2.153.792,1.151,1.98.144,2.9,0a11.4,11.4,0,0,0,2.9-.43c.129-.059.646.114.726,0,.347-.508.737-.32,1.451-.431.773-.123,1.472-.23,2.9-.432a46.166,46.166,0,0,1,9.067-.429c-.054.941-.913.923-1.815.861.477.842,1.379.444,1.815.431.229-.01,1.3.173,1.448,0,.019-.023-.012-.431,0-.431,1.2.011,2.472.847,3.991.431.235.9-.416.593-.725.86-.554.469-1.172,1.793-2.54,1.721-.04,1.239,1.163-.07,1.451,0,.025.005.106.386.362.43a6.8,6.8,0,0,1,2.179.43c.869,1.756-.616,2.125-.363,4.3.085,1.076.953,1.4.726,3.443-.071.618-.37.8-.363,1.289,0,.733.489.959.363,1.723-.014.063-.348.07-.363.43s-.41.424-.363.859c.09.469.719.292.726.86v3.013c-.7.175-.289,1.669-1.453,1.291.088.757.625.982,1.453.861-.228,1.6.585,4.429-.726,4.732a2.786,2.786,0,0,1,.363,1.721c-.1.519.577.208.725.432.1.151-.041.666,0,.861.094.446.172,1.289.36,3.011.142,1.292.59,3.676-.36,5.161.53.949-.047,3.207,1.086,3.443-.109,1.592-1.6,1.549-1.086,3.872-1.179.182-1.153,1.79-2.177,2.152.508.876,1.248-.422,2.177.432-.006.853-.991.546-.725,1.719-.27,1.325.992.829.725,2.153-.749.976-2.128,1.208-3.266,1.72.637,1.273,1.93-.248,2.9,0,.058.8.035,1.674-.726,1.721-.532.034-.278,1.027-.727,1.722a2.7,2.7,0,0,0-2.177.86c-.2.808.475.831.363.431,0-.018.608.607.364.86-.049.049-.723-.046-.727,0-.055.942.417.283.727,1.721a2.079,2.079,0,0,1-1.813.431c1.076,1.246,2.984-.164,4.354,0-.3,1.215.511,1.114.363,2.15-.269.688-1.778-.1-1.453,1.291.032,1,.925-.083,1.453,0,.82.127.761.317,1.448.861.026,1.464-1.067,1.6-1.81,2.151.223.393.545.387.725.861.221.577-.321,1.719.36,1.719a6.126,6.126,0,0,0-.722,3.873c-1.569.724-3.641.846-5.081,1.721-.423.07-.3.785-.363,1.292-.973.3-.7-.89-1.085-1.292-.468.6-1.577.426-2.54.431-1.021.077-.453,2.045-1.813,1.721-.067-.349-.363-.429-.363-.86h.726c.019-.785-1.083-.09-1.448-.43-.339-.313.243-2.121-.726-1.723a7.057,7.057,0,0,1-4.354.861c.307,1.537.895.052,2.178.431.169,1.339-.913,1.538-1.452.861.032.609.063,1.219-.363,1.291.194,1.218.464.43,1.089.43.319,0,.329.431.363.431.59.014.622-.331,1.089-.431.583-.127,1.222.1,1.813,0,.773-.122,1.475-.219,2.9-.43a20.816,20.816,0,0,1,2.9-.431c.017,0,.047-.505.363-.43.086.022,0,.495.363.43,1.242-.22,3.472-1.616,5.077-1.721.886,1.015-.541.8-.364,2.152.151.966,1.927.011,2.175.861-.009.418-.444.333-.723.43a3.2,3.2,0,0,1-1.088,3.873c-.18,1.348,1.249,1.135.363,2.149-.739.4-1.888.838-2.905,1.293-.126.055-.644-.118-.723,0-.354.514-.737.3-1.453.431-1.064.19-2.294,1.128-3.262,1.289-1.084.18-2.757-.144-3.988,0a15.938,15.938,0,0,1-1.813.43c.006,0-.037-1.166-.363-.859-.411.381.223,1.2-1.452.859.072.348.367.429.364.861.061.7.436.067,1.451,0a18.251,18.251,0,0,0,3.625-.431c1.026-.286,2.8-.3,3.991-.86.129-.061.642.117.726,0,.344-.5.623-.258,1.81-.429.664-.1,1.91-.978,1.087.429,1.281-.229,1.625-1.262,2.905-.429.234.843-.085,1.145-.728,1.72-.129.115-.626-.142-.725,0-.516.748-.18.531-1.453.861-.3.078-.359.37-.723.431a17.485,17.485,0,0,0-3.263.43,12.224,12.224,0,0,1-3.992.428c-.871-.019-1.962.4-2.536-.428-.794.062-.779,1.083-.726,2.149-1.144-.208-1.284.776-2.541.431.444,1.236.533,2.373-.722,2.583.066.708.965.19,1.448.429.312.153.645,1.273,1.452,1.291-.031.611-.059,1.219.363,1.29-.29.949-.729,1.719-1.815,1.722-.132.733.282.813.726.861-.533.947.043,3.207-1.089,3.443.068,1.213,1.725.536,1.451,2.15-1.257.8-3.105.9-3.989,2.152.272.971,2.034.168,2.9.429q.1,1.41-1.087,1.291c.045.951,1.54.183,2.176.431.169,1.347-.91,1.213-1.451,1.72a2.6,2.6,0,0,0,1.089.862c.111.99-1.048.476-1.089,1.291.237.437.835.445.727,1.291-1.373-.624-.7,1.181-1.812.859-.136.732.282.812.722.862-.037,1.1-1.349.691-1.81,1.29.009.418.442.335.726.431-.064,1-1.459.95-2.176,1.288a5.9,5.9,0,0,1-1.815.432c-.551.086-.64.387-1.09.43-.97.093-.562-.668-1.448,0-.038.029-.456.462-.363.431-.574.192-.635-.479-1.087-.431.022,0-.121.414-.363.431a3.715,3.715,0,0,1-1.089,0c-.19-.056-.4-.437-.363-.431-.646-.074-.772.565-1.452.431-.031-.007-.074-.412-.363-.431-.052,0-2.384.648-2.538.431-.563-.818-.133.39-1.45,0-.107-.033-.521-.412-.362-.431-.828.092-.689.833-1.453.862-.817.028-2.557-.963-4.348-.431-.749.223-.6.155-1.816,0a5.3,5.3,0,0,0-2.536.431c-.312-.349-.215-1.179-.725-1.292-.448.129-.405,1.029-.725,1.292-.441.36-1.2-.117-1.452.43a1.851,1.851,0,0,1-1.087-.43c-.456-.506-.2-1.109-1.086-.431-.2.155.055.4-.363.431-1.033.062-3.466-.29-4.717,0a2.79,2.79,0,0,1-.362-1.724c-.65-.053-.764.529-1.45.432-.316-1.379.557-1.346,1.089-1.72-.236-.438-.836-.445-.726-1.291,1.421-.55,1.216,1.176.726,1.72.619.09.937-.734,1.086,0,.786.073.166-1.525.363-2.15.448,1.114,3.72-1.181,4.717,0,.013.017-.01.43,0,.43.836-.1,1.159-1.161,1.81-.861-1.338-1.564-3.653.774-4.714-.431-.525-.6-.607.1-1.45-.43H840.31c-.988-.312-.731.854-1.45.861-.8.12-.94-.658-1.452-.861.333.13-1.272.876-1.087-.429-.381.644-.852.144-1.81.429-.7.207-.376.112-1.813,0-.814-.063-1.582.474-2.179,0-.221.595-1.394.065-1.451.861.16.64.322-.064.726,0,.292.047.378.361.725.431s.742-.09,1.09,0c.644.165.582.654,1.45,0,.031-.024.473-.463.365-.431.429-.132.215.4.361.431.413.1.243-.419.362-.431.6-.066.614.381,1.086.431.761.078,1.482-.669,2.176,0-.774,3.423-5.065.537-7.253,1.721-.8-.042.625,1.388-.361,2.15-2.034-.1-2.647.644-3.988-.43.408-.8.426-2.072,1.813-1.72-.7-.608-.659-2.091-1.087-3.013-1.655-.066-1.424-.356-2.9,0-.232,1.566,1.728.533,1.814,1.722-.194,1.855-1.353.932-2.539.86.366,1,1.247,1.387,2.539,1.29-.214,2.256-3.831,1.151-5.439,1.722-.058-.506-.663-.364-1.089-.431v-2.15c-.729-.1-1.451.127-2.177,0-.531-.1-.654-.4-1.086-.431-.785-.051-.944.431-1.451.431-.592,0-.614-.348-1.088-.431a16.452,16.452,0,0,0-2.9,0c-.7.024-1.631-.387-2.173.431-.562,1.3,1.875,1.131,1.813.429a1.867,1.867,0,0,1,1.084,2.152c-.285.61-.838-.058-1.448,0-.693.066-1.16.543-1.814.431-.924-.161-.984-.887-1.813-.862-.617-.159-.683.337-.726.862-1.941-.619-3.176-.132-5.076,0a19.457,19.457,0,0,0-.363-4.733c1.733.479,1.531-1.342,3.265-.862-.055-.538-.671-.319-1.091-.43-1.078-.287-2.172-.036-3.626-.429-.178,1.356.654,1.517.363,3.011q-2.463.339-2.176-2.582c-1.31.868-1.755-.043-2.9-.429-1.584-.3-1.613,1.24-2.9,1.29.093-1.259-.819-1.323-.725-2.581.224-.6,1.4-.066,1.451-.861-.164-.583-.456.1-1.089,0,.083.012-.22-.387-.363-.43-.229-.069-.493.052-.726,0-.9.3.674,1.146.363,2.151-.584.883-1.816,1-3.262.86-.3.836.65.985.725,1.292.272,1.113-.668.924,0,2.15.127.235.439.345.361.859,0,.019-.979.027-.726.432,1.5.34.682-2.06,2.18-1.72,1.34-.3.9,1.509,1.448,2.15.722-.006.462-1.174,1.451-.862.267,1.9-1.173,1.764-1.451,3.013-.336-.458-1.336-.133-1.089-1.289a3.154,3.154,0,0,0-.725,1.289c-.43-.638-1.371-.669-1.815-1.289-1.009,1.148-1.789-.4-2.9-.431V690.17c-.029-1.171-1.4-1.026-1.812-1.72-.232-.391.261-1.386-.364-1.292-.818.174.192,2.522-1.451,1.723.141.711.2.984.362,1.719.064.28.358.4.364.429.051.309-.332.536-.364.432.255.876.809.6.727,1.722-1.1-.844-1.248-2.824-3.263-2.583-.265-1.172.722-.865.726-1.719.035-2.052-1.666-2.042-1.815-3.873.353-.013.279-.528.363-.861a33.406,33.406,0,0,0,6.527,0c-.384-1.553-2.566-.971-3.265-2.152-.742.119-.723,1.151-1.086,1.722-.562-.439-.955-.356-1.451-.862-.264-.266-.442-1.095-.726-1.29-.363-.25-.281.411-.363.43-.432.1-.6-.95-1.087-.86-.54.364-.525,1.385-.726,2.15-.3-.219-1.207.289-1.452,0-.016-.02.015-.43,0-.43-.844.023-1.014,1.219-2.174.43-.384,2.966,2.014.112,1.813,3.014-.737.863-.71-.192-1.451-.431-.907-.071-1.134.66-1.45,1.29-.542-.511-1.142.06-1.813,0-1.247-.109-2.629-.772-4.351-.43.179-1.354-.791-1.683,0-2.581-.2-1.05-1.4-.917-1.089-2.582-1.024.356-.94-.607-1.815-.43-.791.064-.777,1.084-.722,2.15-.626.429-.934-.857-1.088-.859-.306-.007-.358.742-.725.859-1.344.429-3.52.016-5.077.432.444.754,1.544.544,2.175.43.949-.171,2.15-.233,3.263-.43.107.876.981.843,1.089,1.722.755-.246,1.171-1.232,1.812-.431-.161,2.059-.553,1.351-2.173,1.291.307.64,1.164.622,1.812.859-.2.626.423,2.224-.365,2.152.19.636.539,1.084.726,1.719.794-.077,1.155.353,1.089,1.293-.341-.269-.3.416-.361.431s-.832-.354-1.089-.431c-.163-.049-.442-.434-.365-.431-.338-.016-.783.543-1.447.431-.058-.012-.407-.661-.728-.431-.316-.628-.287-1.666-1.449-1.291.554-2.377-1.609-1.532-1.451-3.442h-2.9c-.264,4.278,2.759,1.049,3.989,3.012.276,1.537-1.717.99-2.536,1.721-.089.08-.3.837-.363.862-.385.148-.937-.613-1.09-.431-.265.316-.265.294-.725.431-.127.035-2.216,1.307-2.539-.431-.315-1.276.671-.293.726-.431.239-.578-.18-1.538,0-2.15a2.071,2.071,0,0,0,1.813-.431c-.614-1.357-1.686-.536-2.9-.429-.157-.82-.783-1.083-.726-2.153a1.54,1.54,0,0,0-1.45-.86c-.345-.884-.45-2.048-1.451-2.151-1.086.282.348.918,0,1.722h-1.812c-.375-1.143.41-1.523.362-2.154-.046-.61-1.05-.887-.726-2.15-.645-.256-1.506,1.261-1.813,0-1.175.182-.723,2.3-1.452,3.012.07.488.365.238.363,0,1.014.55-.164,2.048-.726,2.152-.307-.081-.339.167-.36.429-.852-.137-1.363-.679-2.539-.429a1.008,1.008,0,0,0-1.086.859c-.414.207-.21-.8-.365-.859-.625-.239-2.1,1.37-2.537,0-.626.693-1.705.847-2.177,1.721-1.04.924-.791-.328-1.813-.431-.639-.066-1.121.446-1.813.431-.731-.019-2.637-1.046-4.352-.431-.767.274-.221.193-1.451,0-2.7-.423-8.324.058-10.878.431-.394.1-.249.854-.728.861-.641-.1-1.815.432-1.449-.861-1.178-.026-.9.431-1.814,0-.129-.063-.644.119-.725,0-.436-.636-.369-.158-1.451,0-1.184.17-2.747-.023-3.989.43-.114.042-.012.407-.363.431-.587.036-.615.333-1.088.429-1.56.316-3.095-.157-4.352.431-.654-.659-1.11-1.553-2.538-1.291-1.054.373-.408.643-.363,1.72-.773.2-.689-.615-.726-1.289-1.284.374-.891.053-2.174.429.06-1.217-2.235.359-2.175-.86-.6.632-1.15.27-1.815.431-.281.067-.3.415-.361.429-.266.062-.442-.4-.363-.429-.456.171-.581.791-1.089.86-.572.076-3.365.376-3.625,0-.459-.664-.357-.122-1.452,0-.009,0,.015-.423,0-.431-.793-.4-.713.874-1.45,0-.451-.534-3.316.39-4.712,0-.061.5.079.765.361.86-.361,1.325-.981-.478-1.089-.86-1.891,1.136-3.95-.306-5.8.431-.063,1.7.557-.138,1.087.859-.473,1.188-1.961.861-2.9.429-.112-.991,1.047-.476,1.087-1.288-.827-.122-1.364.1-1.452.859-.381-.176-.257-.762-.722-.859-.444-.094-1.844.91-2.178.429-.249-.364-.575-.175-1.812,0-.108.015-.664-.088-.725,0-.435.629-.372.166-1.449,0a6.883,6.883,0,0,0-2.177,0c-.537.094-.654.4-1.087.43-.6.041-.612-.4-1.09-.43-.387-.019-.734.793-1.811.43-.82.241.438.672-.365,1.291-.648-.054-.763.528-1.45.431-.764.3-.491-.521-.723-.861s-.616-.4-.728-.861c-.353.013-.279.528-.361.861a5.822,5.822,0,0,0-2.9-.432c-1.07.219.484.569.363,1.293,0-.007-.579.112-.363.431-.292-.3-.993-.67-1.088,0-1.358-.595-2.027.486-3.263-.431.5-.981,2.524-.161,3.625-.431-.252-1.982-1.922-.43-2.9-.43-.677,0-1.421-.451-2.175-.432-.788.024-.94.257-2.176.432-.249.036-.815.421-.725.43-.5-.054-.957-.836-1.451-.862-.651-.027-.763.457-1.449.432.064,0-.155-.418-.364-.432-1.023-.062-3.47-.077-5.078,0-.812.042-2.888.723-4.712.432-.738-.118-1.463-.74-2.9-.432-.351.078-.544.422-1.087.432.1,0-.175-.42-.364-.432a7.212,7.212,0,0,0-2.536,0c-.812.243-.192.2-1.45,0a35.267,35.267,0,0,0-8.7,0c-.111.02-.664-.089-.725,0-.215.312-.25.281-1.451,0-.7-.161-1-.031-1.45-.429-.259-1.5,3.346.5,3.988-.43.512-.74.481.046,1.089,0,.069-.005,1.159-.855,1.451-.429.021.031.52.726.725.429.505-.734.482.03,1.089,0,.589-.027.614-.362,1.088-.429,1.072-.157,2.431.408,3.624-.431.937-.1-.5-.74,0-1.721,1-.517,1.517-.934,2.539-.431-.091.467-.72.292-.726.862.587.122.625-.408,1.089-.431.21-1.542-1.075-1.309-2.176-1.29-.259.166-.5.681-.726.859s-.524.606-1.087.431c-.133-.732.284-.812.726-.861-.5-.981-2.524-.161-3.627-.429.091-.751.786-1.166,1.812-.86.814.239.192.2,1.452,0,1.009-.16,2.529.1,3.986,0,.9-.063,3.682-.674,5.443-.431.2.027,1.468.931,1.813.431.516-.753.478.064,1.087,0,.51-.058,2.2-1.112,3.263,0,.41-.084.2-.433,0-.431.239-.77,1.162-.033,1.451,0a5.5,5.5,0,0,0,2.174,0c.158-.048.451-.434.363-.431.652-.022.764.46,1.452.431.779-.033.922-.356,1.451-.431.6-.085.616.444,1.087.431-.16,0,.273-.4.363-.431.591-.176,2.147.158,3.264,0,1.006-.142,2.172-.755,3.263-.86a3.7,3.7,0,0,1,1.087,0c.3.076.362.434.725.43.591-.008.62-.332,1.089-.43.224-.049,1.933.355,2.176,0,.743-1.074,1.142.973,1.812,0,.037-.051-.043-.407,0-.432.132-.072.64.126.726,0,.292-.419.367-.044,1.089,0,.091.006.677.072.726,0,.353-.512.17,0,.725,0,.275,0,.384-.536.726-.43.111.037-.012.476.363.43.3-.036.9-.3,1.45-.43.65-.149,1.018-.383,1.451-.429.6-.063.619.452,1.089.429.273-.013.391-.373.725-.429.8-.139,1.583.283,2.539,0,.692-.205.366-.186,1.087,0a5.64,5.64,0,0,0,2.9-.431c-.432-.837-1.617-.417-2.176-.43a18.352,18.352,0,0,0-2.175,0c-.587.049-.617.332-1.089.43.112-.023-.143-.482-.363-.43-.05.013-.064.409-.363.43-1.221.088-2.368-.106-3.625,0-.57.048-.632.405-1.087.431-.579.032-1.155-.432-1.815-.431-.593,0-.613.345-1.087.431a40.01,40.01,0,0,1-4.352,0c-.581.032-.62.394-1.086.429-1.184.091-2.342-.153-3.627,0a4.334,4.334,0,0,1-2.175,0,6.158,6.158,0,0,0-1.813,0c-.59.03-.614.363-1.087.43a48.771,48.771,0,0,1-9.429,0c-.894-.049-2.788-.7-4.715-.43-.106.016-.663-.087-.726,0-.317.461-.342-.022-1.086,0-.673.022-1.525.632-2.177,0-.41.083-.2.433,0,.43-.442,1.3-1.383-.3-1.813-.43-2.971.623-3.782.078-7.252.43-.361-1.318.949-.733,1.451-.859.892-.224,2.225-.158,3.989-.431.577-.089,1.236-.743,1.812-.86,1.009-.205,2.778.178,3.991,0,.746-.11.767-.74,1.812-.431.827.245.184.159,1.452,0a19.676,19.676,0,0,1,3.627,0c.743.161.562.522,1.087.861.819-.241-.441-.67.363-1.292,1.9-.108,3.684.145,5.8,0,.267-.018.4-.532.726-.429.112.034-.012.474.363.429.562-.063.635-.4,1.088-.429,1.478-.1,2.961.191,4.35,0,1.07-.146,1.916-.637,2.9,0,.537-.225.916-.637,1.454-.86a6.478,6.478,0,0,0-1.454-1.292c-1.137-.2-1.481.536-1.812,1.292-.538-.188.144-.55,0-1.292a3.125,3.125,0,0,0-.725,1.292c-1.221-.274-1.861-1.236-3.627-.861-.537.188.143.551,0,1.29a9.9,9.9,0,0,0-3.627,0c-.332-1.583,1.913-.781,2.177-.429.393-1.866-2-.441-2.539-.43-1.67.032-3.263.269-4.353-.431,1.036-1.312,2.188.073,3.265-.86.258-1.171-1.711.307-1.451-.862-2.093.791-4.379.312-6.527.431-.587.032-.614.363-1.087.431-4.135.588-8.451-.033-12.693.429-.1-1.436,1.07-1,2.175-1.291.3-.076.36-.431.725-.43.8.006,1.081.506,1.813.43.668-.067,1.176-.769,1.813-.861.719-.1,1,.781,2.177.431.155-.046.452-.432.363-.431.285-.007.591.443,1.087.431-.106,0,4.411-1.394,5.077-.431.586.854.066-.213,1.089-.428.784-.167,4.582.717,5.076,0,.019-.032-.023-.427,0-.43.54-.107.536.416.725.43.272.019.384-.416.726-.43.788-.037.926.4,1.45.43.258.014.619-.42,1.089-.43-.1,0,.181.7.362.43.363-.539,1.418.142,1.813-.43.5-.729.483.016,1.089,0-.163,0,.272-.406.361-.431.227-.067.495.051.725,0,.963.138-.339-2.411,1.089-1.723-.5-1.123-2.354,1.07-2.9,0,0-1.282,1.708-.55,2.173-1.289-.727-1.136-3.154.032-4.712-.43-.751-.223-.6-.147-1.815,0-1.984.236-4.539-.212-6.529,0-.563.06-.633.4-1.086.43-4.036.254-8.058.007-11.607.431-.714.084-1.771,1.062-2.9.428-.086-.046-.322-.852-.363-.859-.327-.069-.751.576-1.813.431-.531-.075-.666-.435-1.088-.431-.591,0-.616.336-1.087.431a17.341,17.341,0,0,1-2.176,0c-.692.055-1.57.83-2.176,0,.349-.877,1.393-.931,2.539-.861-.154-.9.247-1.141.362-1.722-1.679-1.8-6.37-.435-9.429-.861a6.694,6.694,0,0,0-3.264-.429c-.557-.228-.022-.449.363-.431h1.45c3.284-1.369,7.8.413,11.607-.86-.054-.539-.67-.321-1.089-.431a50.313,50.313,0,0,0-5.078-.429c-.786-.076-1.433-.347-2.9-.431a4.42,4.42,0,0,1-1.09,0c-.127-.046-.464-.438-.363-.431-.3-.014-.822.456-1.448.431-.649-.026-.767-.466-1.452-.431.211-1.042,1.37-.956,2.177-1.291-.662-.8-2.2-.413-3.626-.43-1.173-.012-2.539.012-3.627,0-.265-1.173.722-.866.726-1.722,1.14.495.879-.673,1.448-.858-.246-1.384-1.677-.708-2.536-.861a10.766,10.766,0,0,0-3.989-.431,3.386,3.386,0,0,1,3.264-1.721c-.772-.808-1.777-.466-2.539-.429-.931.042-1.483.472-2.176.429a10.939,10.939,0,0,1-2.175-.429c.056.015-.163-.726-.363-.43-.321.473-.2.071-.726,0,.546-1.588,1.806-1.021,2.538-1.292.474-.175.582-.7,1.089-.862-.058.021.464.55.726.432-.13.057.384-.454.363-.432.37-.368-.765-.176-.363,0-.925-.408.767-.942.363-1.289.169-1.494-1.968-.247-2.177-1.291-.567-1.252,1.143-.8,1.451-1.292.151-.238-.183-1.093,0-1.289.533-.576,1.463-.475,1.813-1.291-.585-1-1.466-.165-2.176-.431.18.068-.369-1.656-1.451-.861-.315-1.664.886-1.531,1.088-2.582.079-.4-.1-.895,0-1.291.037-.148.366-.56.363-.429.019-.686-.4-.759-.363-1.291.049-.76.386-.917.363-1.723a8.426,8.426,0,0,0-.363-1.719c-.118-.851.412-2-.363-2.58a12.082,12.082,0,0,1,1.089-2.153c.255-.767-.573-1.046-.725-1.72-.4-1.768-.411-5.789,1.089-6.455-.008-1.428-2.049-.437-2.539-1.291-.269-1.324,1-.826.725-2.152-.123-1.142-.952-1.452-1.812-1.72.683-1.2,2.177-1.434,1.812-3.873.651.055.767-.527,1.451-.43-.38-1.728-1.475.056-2.9-.431-.013-1.991,1.995-.825,2.9-1.29a5.748,5.748,0,0,0,2.538-3.013c-2.189-.312-4.5,1.073-5.8.431a4.956,4.956,0,0,1,2.174-3.442c-.111-.584-.906-.355-1.448-.432-.25-1.155.749-.83,1.086-1.289-.507-.834-1.876-.641-2.538-1.292.121-1.7,1.649-1.284,2.538-1.721.327-.158.525-.765.726-.858.8-.382,2.052-.2,2.9-.431-.009,0,.165-.372.363-.431.451-.132,1.38.2,1.815-.43-.387-.977-2.279-.164-3.265-.43,0-.855-.988-.548-.725-1.72h-2.539c.184-.946,1.575-1.293,2.539-1.723.127-.056.644.117.725,0,.025-.034-.029-.421,0-.43a24.041,24.041,0,0,1,3.989-.431c.963-1-.963-1.151,0-2.15,1.649.235,1.977-1.1,2.174-2.581-.041-1.1-.663-1.507-1.087-2.152.732-1.553-.037-2.084-.361-3.444.8.239.516-.819,1.087-.86a8.261,8.261,0,0,0-.362-3.443c-.049-.15.1-.763,0-.858-.376-.364-.458-1.9-.725-3.013-.2-.819-1.108-1.945-.726-3.442.017-.073.61-1.052.363-1.29-.545-.531.221-.912.363-2.151.033-.3-.169-1.525,0-1.721.441-.526-.055-.089,0-1.723.034-1.079.911-2.3,0-3.872-.172-1.348.911-1.213,1.448-1.719-.037-2.11-2.518-1.315-1.812-4.3,2.381-.392,4.783-.858,7.253-1.291,1.929-.338,5.546-.874,7.979-1.291.7-.119,2.022-.907,3.625-.43.11.033.52.415.363.43.5-.052.952-.743,1.448-.861,2-.471,4.537-.09,6.527-.43a2.654,2.654,0,0,0,1.813-.861c.717-.222.967,2.538,1.089.431.987.392-.369,1.508-.363,2.151.427,1.159,1.891,0,2.537,0v-2.582c2.338-1.214,4.9.8,6.164-.859.369-.471,1.575,1.3,2.179.429.019-.031-.025-.425,0-.429.539-.106.537.417.723.429.265.02.393-.405.726-.429,1.209-.091,2.535.122,3.627,0,.214-.025,1.465-.935,1.813-.431.017.025-.016.43,0,.431.276.015.4-.424.363-.431a9.594,9.594,0,0,0,2.9,0c.6-.038,1.21.028,1.813,0,.632.878-.27.843.363,1.721,1.156-1.318,1.518.728,2.9.43a2.29,2.29,0,0,0-.364,1.291c2.486.508,1.213-1.491,1.813-2.582.321.131,1.844.863.726,1.291a3.625,3.625,0,0,0,1.448,1.721q1.188.117,1.089-1.291c1.143-.208.821,1.323,2.177.861.868-.78.2-3.368,0-4.3.638-.249,2.13.52,2.177-.432,1.5.567-.563,2.23-1.089,3.013.145.829,1.66.037,1.089,1.721.754-1.2,1.4.224,2.174.43-.023-.006.436-.624.363,0,1.38-.081.223-3.178,1.087-3.872,1.945.736-.785,2.4.361,3.442.62.158.685-.335.726-.861.091-.466.721-.291.726-.86.638.1.826.74.726,1.721,2.09-.325-.059-2.062.722-3.011.65.662,1.818.712,1.452,2.581.563-.481.755-1.4,1.813-1.291-.781.779,1.358,1.4,1.813.86.423-.5.289-.709,1.087-.86-.1.02.136.485.363.43.069-.015.04-.428.362-.43.6,0,.614.352,1.089.43.276.048.376-.54.728-.43.109.034-.015.485.361.43.841-.123,1.388-1.2,2.539-.861a.769.769,0,0,1,.363.431c.665.076,1.434-1.1,1.81.43.774-.8,2.309-.7,2.9-1.72.6.159-.132.419,0,.859s.688.307.726.861c1.642-.359,3.234-.05,5.44-.43.536-.091.653-.4,1.089-.431.594-.04.613.37,1.086.431.6.076.613-.412,1.089-.431.817-.031,1.007.96,1.812,0,.716-.845-.041.276,1.089.431.16.021.72-.37,1.087-.431,1.762-.288,3.172.275,4.715-.43.681-.761-.433-1.255.362-2.152h1.45c.5,1.741-.648,1.525-1.086,2.152a2.662,2.662,0,0,0,2.536.43c.518-.094.676-.421,1.089-.43.623-.01,2.969,1.159,3.988,0-.057.068.548-.489.363-.429.556-.181.65.414,1.089.429a2.9,2.9,0,0,0,1.448-.86,10.04,10.04,0,0,0,4.715.86c.2-.952-.691-.612-.725-1.29-.054-.795-1.229-.264-1.448-.862-.054-1.349.928-1.476,1.812-1.719V549.9c.573.038,1.383-.2,1.45.432.523-.1.126-1.283.723-1.293C716.193,548.276,716.585,548.981,717.015,549.041Zm-77.966,3.443c-.226.944.623,1.239,1.087,1.722a5.081,5.081,0,0,0,1.451,1.291s-.011-.417,0-.431c.242-.286.328.384.363.431.459.667,2.154-.415,2.174-.431,1.023-.774.839.209,1.812,0,.089-.018.574-.813.728-.86-.763-.495-1.414.264-2.177-.861-.662,2.064-1.074-.906-2.176-.861-.057.507.061,1.223-.361,1.291-1.024-.076-.456-2.045-1.815-1.721C639.934,552.949,639.571,552.967,639.049,552.484Zm-2.9.431c-.081.335-.01.85-.363.86-.717-1.118-1.305-.011-2.176,0-.521.008-1.386-.358-2.175-.43-.358-.034-.73,0-1.09,0-.415,0-1.138-.7-1.812-.43-.453.187-.868.351-.725,1.721.519.559.611,0,1.089,0,.2,0,.458.427.363.43.731-.037,1.082-.473,1.813-.43.638.038.853.529,1.451.43.118-.018-.021-1.1.361-.86.732,3.5,3.461-1.461,4.715,0-.061-.643.13-1.588-.363-1.722C637.174,552.986,636.662,552.951,636.149,552.915Zm147.591,1.291a11.171,11.171,0,0,0-2.9-.861c-.014,0,.019.41,0,.43-.31.371-1.8-.085-2.174,0-.806.187-1.468.917-2.175.861-1.17-1.546-2.921-.528-4.353-.43-.608.042-.578-.738-1.089,0-.06.088-.617-.016-.725,0-1.247.177-2.419-.3-2.176,1.291.542.073,1.339-.154,1.451.43.991.029.849-.645,1.449-.861-.05.02.5.648.725,0a16.022,16.022,0,0,0,3.627,1.291c.569-.184.309-1.354,1.451-.86a2.3,2.3,0,0,1-.36,1.29c1.116-.3.694-.3,1.812,0a3.1,3.1,0,0,1,.725-1.29c1.137-.477.957-.2,1.813.43a2.387,2.387,0,0,1,1.452-.861c.363-.077.272.411.363.431.423.1,1.411-.952,2.174-.431C784.928,554.038,784.4,554.4,783.74,554.206Zm-159.558-.431c-.291,2.607,1.661.286,0,0ZM739.5,556.357c1.764.66,1.365-1.248,2.538-1.291.057.506-.063,1.221.363,1.291a.551.551,0,0,1,.726-.43c.318-1.381-.941-.893-1.089-1.721-.02-.263-.052-.509-.363-.431C741.378,555.144,739.279,554.376,739.5,556.357Zm-13.781-.43c-.625-1.1.553-1.667-.726-1.721C724.892,555.189,725.081,555.824,725.718,555.927Zm33.727-1.291c-1.281.056-3.481-.552-3.265,1.291,1.354-.46,1.033,1.068,2.174.86.5-1.133,2.733-.2,2.541-2.151C760.212,553.765,759.913,554.618,759.444,554.636Zm4.351-.43c-.016,0,.017.409,0,.43-.491.583-2.557-.862-1.815.861.626,1.249,1.666-.034,2.538,0,.465.018.505.556,1.09.43C765.96,554.172,764.827,554.188,763.8,554.206Zm-52.219,1.721c-.465-.025-.5-.552-1.089-.43-.08.336-.008.85-.363.86-.08-.334-.009-.849-.363-.86-.091.671-.795.3-1.086,0-.486,2.3,2.125.922,3.265,1.29.058-.5.572-.467,1.086-.43.316-1.379-.557-1.344-1.086-1.721C711.919,555.185,711.472,555.231,711.576,555.927Zm3.626-1.291a1.422,1.422,0,0,0-1.813.43C714.384,555.9,715.368,554.733,715.2,554.636Zm.723,1.291h1.454C717.664,554.271,715.64,554.271,715.925,555.927Zm2.539.86a2.007,2.007,0,0,0,2.177-1.721c-1.109.313-1.067-.741-2.177-.43Zm7.979-.86c.921.191,2.623-.849,1.813-1.291C727.727,555.9,726.268,553.608,726.443,555.927Zm22.845-.861c-.19.284-.439-.44-.362-.43-.539-.068-1.156.369-1.813.43-.465.045-.492-.544-1.087-.43-.123.024-.271.751-.725.43-.169,1.894,2.444.424,2.538.431-.073-.005.2.38.361.43,1.584.47,4.012.2,4.353-.861a2.073,2.073,0,0,0-1.813-.43c-.573.039-.284,1.1-1.087.861C749.548,554.927,749.636,554.552,749.288,555.066Zm3.627,1.291c1.026-.073,2.487.371,2.538-.86C754.506,554.934,752.774,553.968,752.916,556.357Zm-48.23,0c1.329-.318,2.017,1.058,2.9,0C707.592,553.975,705.182,555.576,704.686,556.357Zm32.275,0c.989.04.73-.717,1.451,0,.731-1.632-1.649-1.705-1.813-.86C736.879,555.592,737.02,555.856,736.96,556.357Zm-54.395.43c1.365-.489,1.649.413,2.176-.86-1.107.311-1.323-.441-2.176-.43Zm16.319-1.29c-2.363.688-3.576-.654-5.08.86-.893-.529-4.37-1.061-4.712.43.616.42,1.224.035,2.174,0,1.995-.069,4.436.028,6.166,0,1.06-.015,2.3.375,2.9-.43C699.344,556.671,699.6,555.5,698.884,555.5Zm-22.485.43c-4.081.22-6.721-.035-11.241.86-.265,1.175.722.866.725,1.722.7.382.525-.691.726-.861.417-.352,1-.146,1.45-.43.755.556,2.656-.385,3.991,0,.45.132.349.659.722.861,1.183-1.976,3.606-.1,4.715-1.722C677.06,556.289,676.458,556.432,676.4,555.927Zm3.265.86c.641-.1,1.815.435,1.45-.86h-2.176C678.674,556.631,679.66,557.8,679.665,556.787Zm7.253.431v-1.291h-1.089Q685.728,557.334,686.917,557.218Zm13.779-.431c.281.334,1.962-.125.725-.86C701.6,556.277,700.544,556.606,700.7,556.787Zm1.813,0c.686-.188,2.185.585,1.813-.86C703.678,556.166,702.818,556.148,702.51,556.787Zm80.506,2.153c1.025.065.909-1.217,1.451-1.722C783.247,557.032,782.324,558.126,783.015,558.94Zm8.34.429c.3-.929,3.413,1.158,3.625-.86a4.8,4.8,0,0,1-2.538-1.291C793.093,558.887,789.957,558.228,791.356,559.369Zm-83.043-1.29a3.778,3.778,0,0,1-1.815,1.29c-.4.094-.539-.46-1.086-.429-.436.023-.54.61-1.089.429-.255-.085-.388-1.225-1.087-.86-.514.705-1.553.271-2.177.431-.332.085-.443.381-.725.429-.4.069-1.517-1.1-1.088.431,1.027,1.217,2.215,0,3.264,0,.441,0,.533.381,1.087.43,1.4.125.975-.566,1.452,0,.241.287,1.152-.22,1.448,0,.482-.005.334-.753.726-.861.616,1.472,1.619.242,2.174.431.221.074.288.905.726.86-.026,0,.345-.832.363-.86.132-.193.54.338.365.43.736-.382,1.344-.551,1.089-1.29C710.784,558.588,709.268,558.665,708.312,558.079ZM667.7,559.8c-.671-.532-1.285-.1-1.813-.86a6.529,6.529,0,0,1-1.087-.431c-.061.015-.022.7-.363.431-.109.845.492.852.725,1.29a11.363,11.363,0,0,1,.363,3.442c.749.258,2.38-.531,2.537.431.347.8-1.087,1.438,0,1.721-.163-1.2,1.977.337,1.813-.861-.423-.073-.393-.68-.363-1.291,1.556-.017,2.4-.9,3.263.431.669-1.987,1.965-.456,2.541-1.29.2-.3,1.02.41,1.086.428.66.2,1.939.17,1.813-.428-.85-.141-.351-1.878-1.089-2.153-.054.8-1.228.264-1.45.862-1.52-.735-2.434.009-4.351.43-.654-2.212,1.307-1.32,1.45-2.583-1.356-.532-1.873.211-2.9-.429.265,1.173-.72.865-.724,1.72.642.1,1.816-.433,1.448.862a3.063,3.063,0,0,1-1.812,1.291c-.321.074-.339-.431-.363-.431-.4-.029-1.835,1.071-1.813,0-.462-1.983,1.838-.688,2.176-1.722A6.023,6.023,0,0,1,667.7,559.8Zm26.471,0c.944,1.152,3.464-.229,3.991.43.019-.549.464-.6.362-1.29-1.287-.493-1.639.58-2.175.429-.061-.017.055-.787,0-.86-.158-.213-.888.171-1.089,0C695.821,560.038,694.026,558.769,694.168,559.8Zm18.5-.431h.725v-.86h-.725Zm-39.527.431h1.087v-.86h-1.087Zm10.154,1.291a2.357,2.357,0,0,0,1.813,0c.318-.046.5.511.726.431s.517-1.114.728-1.292c.39-.333,1.388.281,1.087-.861-1.777-.558-2.282.052-3.989-.429A3.208,3.208,0,0,0,683.29,561.091Zm5.439-.861c.044.489.347.308.726.43.862.28,2.2,1.1,2.173-.86C691,558.876,688.933,558.576,688.729,560.23Zm25.023,0c.973.3.7-.889,1.087-1.29h-1.087Zm9.065-.861c-1.082-1.072-2.32.278-3.264-.429C719.352,560.587,722.646,560.787,722.817,559.369Zm-30.461.861c.829.119,1.363-.1,1.449-.861C692.981,559.249,692.443,559.473,692.356,560.23Zm23.569-.43c-.281.093-.495.927,0,.86-.329.043,1.687-1.074.365-1.291-.006,0,.013.423,0,.431C716.192,559.853,716.032,559.766,715.925,559.8Zm-34.447,3.441h1.087c.885-1.013-.542-.8-.363-2.15-.426.067-1.029-.074-1.087.431C681.652,561.6,681.446,562.56,681.478,563.241Zm19.218-.859c.281.333,1.962-.128.725-.86C701.6,561.87,700.544,562.2,700.7,562.382Zm21.4.431c.43-1.282-1.529-1.851-1.813-.861C721.394,561.63,720.975,563.132,722.093,562.813Zm-31.549-.431c-.045,1.708,3.134.846,3.261,0C692.707,561.306,691.715,563.37,690.544,562.382Zm6.163.431c.648-.241,1.506-.223,1.813-.861C697.837,562.141,696.335,561.367,696.707,562.813Zm-9.064.428h.723c.565-1.058-1.231-1.264-1.086-.428C687.5,562.836,687.709,562.877,687.643,563.241ZM676.4,565.394c.022.262.055.507.363.43.108-.9.982.638,1.089-.861a1.81,1.81,0,0,1-1.452-.431Zm198.363,5.593c1.413-.149,2.637,1.185,2.9-.86C876.984,570.754,875.258,570.144,874.762,570.987Zm5.8,81.321c.117,1.139-2.034-.4-1.451,1.289.985,1.044,1.767-.763,2.9-.859.441.137,2.238-.07,1.088-.43Zm5.075,2.581c-1.023.074-2.486-.372-2.536.861a43.1,43.1,0,0,0,5.439-1.293c.063-.017,1.849.371,1.085-.43A5.923,5.923,0,0,0,885.639,654.889Zm-6.526,1.722c.571-.043,1.257.055,1.088-.861h-.726C879.478,656.182,879.183,656.262,879.113,656.611ZM805.134,667.8c.261,1.168-1.709-.308-1.448.859,1.336-.273,3.608.559,4.351-.43C807.164,667.009,805.846,668.818,805.134,667.8Zm-6.89,4.3c.686.1.8-.482,1.451-.428v-3.444h-1.815C798.7,669.609,797.564,671.079,798.245,672.1Zm-12.69-3.011c-.76.848-2.409.328-3.263,0-.686.048-.253,1.423-1.089,1.291h-1.813c-.557,1.948,2.368-.228,1.813,1.72,1.322-.609,1.626.242,2.538-.859a1.538,1.538,0,0,0,1.452.859c.536-.169,1.064-.765,1.812-.859.008,0-.015.412,0,.431.6.705,2.626-.433,2.537-.431.476-.008.71.414,1.452.431.6.014,1.618.519,1.45-.861h-3.265c-.12-1-.37-1.854-1.086-2.153C787.934,669.619,786.3,668.831,785.555,669.087Zm-125.111,3.872c.15-1.036-.661-.936-.361-2.15-2.14.823-3.513-1.068-4.714.43,1.6-.073,2.4.846,3.989,0A1.029,1.029,0,0,0,660.443,672.959Zm105.527-1.72c-.86-.483-1.131-.894-1.451-.43-.2.294-1.021-.412-1.086-.431a1.017,1.017,0,0,0-1.452.861c1.07-.8,1.651.933,1.452.859.55.207,1.25-.155,1.812,0,.083-.332.01-.848.364-.859C765.606,671.478,765.9,671.727,765.97,671.239Zm11.242.859q1.7.3,1.452-1.72C777.822,670.525,776.964,670.655,777.213,672.1Zm15.955-.859c.53.664,1.859.378,2.9.431C796.5,669.83,793.2,669.942,793.167,671.239Zm-50.768.431c-.3-.832-1.474-.376-2.177-.431-.677-.054-1.816-1.021-1.81.431a19.674,19.674,0,0,1,2.536,1.289c.088-.756.626-.979,1.451-.861,1.051.224,1.053.593,1.451,0,.195-.284.438.442.364.43a1.409,1.409,0,0,0,1.449-.43c.361-.521,1.829.322,1.45-.859C745.662,670.415,743.747,671.119,742.4,671.67Zm6.166-.431c-.328,1.487,1.236.585,1.813.859.286.137.363,1.187,1.089.861-.356-1.709,2.024-.177,1.81-1.72C751.431,671.034,750.561,670.5,748.565,671.239Zm10.879-.43h-1.451C757.917,672.217,759.693,672.508,759.444,670.809ZM645.213,672.1c-.539.606.138.882-.364,1.293.215-.176-1.816-.6-1.086.86a57.06,57.06,0,0,0,8.34-.86c.52-.057.9.9,1.09-.432-1.025.38-1.771-.68-2.9-.861-1.105-.175-2.269.246-3.265,0-.127-.031-.043-1.4-.726-.859C646.654,672.4,645.536,671.737,645.213,672.1Zm16.682.43c.43.547,1.37.183,1.813-.43C663.278,671.552,662.337,671.916,661.9,672.528Zm73.253-.858c-.309-.367-1.036.312-1.091.428C733.676,672.942,735.416,671.987,735.148,671.67Zm-79.78,2.15c.575-.67,2.667-1.149,2.9-.429.139-1.363-1.377-.989-2.176-.863-.531.087-.669.393-1.451.431-.461.024-.5-.587-1.087-.431C653.208,674.089,655.121,672.967,655.368,673.82Zm53.67-.861c-.224-.125-1.4-1.071-1.452,0C707.81,673.086,708.983,674.031,709.038,672.959Zm30.461,2.153h3.262c-.092-.177.123-.718,0-.861-.2-.238-.462.412-.362.431-1.247-.212-.875-.243-1.451-.862C740.85,674.706,739.6,674.225,739.5,675.112Zm18.855-.43c.282.331,1.962-.128.726-.862C759.263,674.168,758.2,674.5,758.354,674.682Zm6.164-.862c-.092.67-.8.3-1.086,0C762.813,675.592,766.112,674.431,764.519,673.82Zm-62.009,2.151c1.355-.46,1.035,1.069,2.176.861-.447-1.392,1.173-.329.726-1.72-.764-.494-1.414.26-2.176-.861C703.651,675.6,702.665,675.3,702.51,675.971Zm44.241-.859a1.67,1.67,0,0,0,1.815-.861C747.879,674.44,746.38,673.666,746.75,675.112Zm-16.316-.43c-.023.261-.056.508-.365.43.029-.67-1.054-.3-.363,0C730.028,675.975,731.295,674.921,730.435,674.682Zm-23.211,1.289c1.139-.217,1.482,1.014,1.815-.431C708.608,674.993,707.667,675.357,707.223,675.971Zm19.583-.859c-.542.073-1.339-.155-1.451.428C725.839,676.1,726.707,676.108,726.806,675.112Zm-53.67,1.289c-.539.067-.647.482-1.449.431-.244-.014-.384-.432-.364-.431-.394-.043-.572.378-1.089.431-.634.066-2.213-.659-2.175.86.282.1.716.011.726.431.482.01.328-.773.725-.86.329-.073.629.37,1.087.429.025,0,.02-.511.364-.429.122.029-.01.4.362.429a9.01,9.01,0,0,0,5.076-.86c.909.986,2.775,1.163,3.265-.431C677.637,676.774,675.194,676.155,673.136,676.4Zm-19.22.431h-.724C651.2,676.713,653.991,678.043,653.916,676.832Zm3.99,0c-1.285-.232-.893,1.522-2.175,1.291-1.147-.591-1.212-.095-2.539,0H651.74c.062.5.576.468,1.089.431,2.1-.347,5.434.651,6.166-.431.195-.29.43.443.363.431,1.607.3,2.5-.885,3.627-.862-.3,1.561,2.735,1.041,2.538,0C662.846,676.926,660.983,678.014,657.906,676.832Zm9.428.431c-.9.56-1.5-1.262-1.812,0C666.186,677.9,666.746,678.417,667.334,677.263Zm-19.22,2.15c.728-.716,2.69.037,3.265-.859C650.582,677.825,648.172,677.934,648.113,679.413Zm26.474,2.152a2.021,2.021,0,0,0,2.9-.861C676.809,681.333,675.085,680.721,674.588,681.565Zm5.438-.861c-.24-.284-1.566.118-1.448.431C679.066,681.941,680.181,680.889,680.026,680.7Zm-12.33,1.291c1.359-.774,2.331.67,2.9-.86C669.5,681.268,667.778,680.658,667.7,681.995Zm37.353.86h.725v-.86h-.725Zm61.284,1.292h1.813C768.549,681.656,766.162,682.352,766.333,684.147Zm2.539.43h.726c0-.431.294-.513.362-.86a1.55,1.55,0,0,1-1.088-.432Zm-103.714-.43c-1.8.094-4.1-.25-5.8,0-.923.134-3.615.253-2.539,1.292.391-.843,1.216-.409,1.813-.431,1.72-.069,2.532-.361,3.627-.431.843-.054,1.695.016,2.538,0,.794-.016,1.981.393,2.538-.43C666.865,683.329,666.121,684.1,665.158,684.147Zm3.99.43c.892-.483,3.251-.1,3.624-.86h-3.624c-.571.041-1.259-.058-1.089.86Zm116.406-.86h-.726C782.841,683.6,785.625,684.927,785.555,683.717Zm30.1.43c-2.336-.952-.972,1.545,0,0Zm-161.736.43a9.329,9.329,0,0,0-1.448,0c-.273.034-.328.421-.365.431-.27.063-.4-.429-.363-.431-1.74.114-3.4.669-5.075.862h-5.8c-.381.022-.285.549.364.429h4.711c3.66-.13,5.288-.514,10.155-.429C656.216,683.977,654.482,684.6,653.916,684.577Zm17.771,1.722c.9.061,1.758.079,1.812-.86A1.662,1.662,0,0,0,671.687,686.3Zm-45.33-.431h-1.089C622.576,685.72,626.148,687.1,626.357,685.868Zm5.077.86c1.541-.752,4.082-.32,6.164-.429.2,0,.411-.351,0-.431h-5.8c-.527.235-1.873-.5-1.815.431C630.526,686.372,631.322,686.144,631.434,686.728Zm-13.783.43c.224.025.432.064.364.431-.2,0-.411.347,0,.431-.051-.572,1.221-1.6.363-1.721C618.374,686.865,617.742,686.69,617.651,687.158Zm1.815.431c1.058.633,1.058-1.923,0-1.29Zm3.265-1.29h-1.089c-.426.065-1.029-.074-1.089.429C621.192,686.48,622.686,687.247,622.731,686.3Zm41.339,0h-1.086C660.872,686.3,664.169,687.457,664.07,686.3Zm152.306,1.29a1.186,1.186,0,0,0-.723-1.29A1.186,1.186,0,0,0,816.375,687.589Zm-7.613,0h3.262C812.348,686.21,808.44,686.21,808.763,687.589Zm10.878.431c-.109-.994,1.05-.48,1.087-1.292-1.906-.122-2.151.455-3.626,0C816.994,688.293,819.036,687.3,819.64,688.02Zm-171.163,0c.441.522,2.382-.65,1.089-.862,0,0,0,.431,0,.431C649.389,687.6,648.216,687.708,648.477,688.02Zm207.065-.431c-1.223-1.306-1.1,1.59,0,0Zm17.042.431c.327.893-2.468.116-1.087.861.946-.168,1.992-.222,2.539-.861Zm-240.788.861c-.221-.127-1.394-1.071-1.452,0C631.022,688.468,631.559,690.167,631.8,688.881Zm228.457.429c.531-.235,1.876.5,1.816-.429C860.931,689.1,860.587,687.865,860.253,689.31Zm-244.776.431c.985-.268,2.88.545,3.263-.431C617.43,689.053,616.321,688.6,615.477,689.741Zm184.945,0h.725v-.86h-.725Zm53.3,0h1.09c.427-.068,1.029.074,1.089-.431h-2.542c-.926-.818-1.932-.132-2.9,0-.009,0,.016-.414,0-.429-.241-.291-.335.4-.363.429-.242.287-1.173-.242-1.088.431Zm13.055-.86h-.725C864.074,688.761,866.857,690.091,866.782,688.881Zm-245.14.429h-.726C618.932,689.191,621.716,690.522,621.642,689.31Zm22.846,0c-.752.256-2.38-.532-2.537.431C642.7,689.483,644.332,690.272,644.488,689.31Zm141.791,1.719a1.272,1.272,0,0,0-2.176-1.288C785.563,689.3,785.714,690.411,786.279,691.029Zm16.682-.859c1.252-.34,1.532.479,2.173.859V689.31C804.175,689.315,803,689.071,802.961,690.17Zm68.9-.429c-.141.468-.433,1.032,0,.429.616.263,1.762-.246,2.542-.429.433-.1,2.027.249,1.089-.431C873.9,689.008,873.445,690.042,871.857,689.741Zm-222.292,1.288c-1.733-1.2-.878,1.413,0,0Z" transform="translate(-582.115 -534.414)" fill="#538fe4" fill-rule="evenodd"/>
  <path id="Path_13679" data-name="Path 13679" d="M836.2,690.17c.135-.883,1.291-.857,1.934-1.289-.334-.35-.752-1.179,0-1.292,2.15.1.846,3.264,1.937,4.3-.256.663-.506.028-.484-.43-1.482.312-1.424-.742-2.9-.432C836.76,690.53,836.572,690.265,836.2,690.17Z" transform="translate(-646.406 -534.414)" fill="#538fe4" fill-rule="evenodd"/>
  <path id="Path_13680" data-name="Path 13680" d="M841.523,692.322c-.283-1.186-1.209-1.8-1.455-3.012,1.311.943,1.205.477,2.9.86-.787,2.135,1.685,1.371,1.455,3.013C842.709,693.009,843.469,691.3,841.523,692.322Z" transform="translate(-647.465 -534.414)" fill="#538fe4" fill-rule="evenodd"/>
  <path id="Path_13681" data-name="Path 13681" d="M740.371,542.59c.076.454,1.2.15,1.453.43.045.05-.062.4,0,.43.176.073.85-.126.967,0,.387.417.656.344,1.451.431.145.014.891-.09.969,0,.449.486.441-.067,1.453,0,.8.053.926.172.967.858.851-.1,1.1-.738.967-1.719,1.482.311,1.425-.744,2.906-.43-.2.9.33,1.138.48,1.721,1.594-.018,2.412-.728,4.358-.43.527,1.586-.625,1.322-1.936,1.72-1.75.532-3.994.62-5.324-.432-2.2.354-7.053,1.333-7.258-1.288-.7.518-.467,1.88-2.422,1.288C739.17,543.815,740.889,544.2,740.371,542.59Z" transform="translate(-623.216 -534.414)" fill="#538fe4" fill-rule="evenodd"/>
  <path id="Path_13682" data-name="Path 13682" d="M770.861,541.728c1.26-.321.623.774.969,1.292.248.37,1.256.412.965,1.291a4.187,4.187,0,0,1,3.873,0c-.246,1.7-2.024,1.738-3.873,1.719-1.229-.01-2.817-.853-3.869-.861-2.739-.014-5.526,1.712-6.291,0a1.972,1.972,0,0,1-2.422,0,3.185,3.185,0,0,0,0-3.01c1.457-.433.859.958.969,1.722.611-.6,2.554-.026,1.935-1.722,1.264-.231.893.629,1.936.861.732.162.984.088.968.861,2.008.115,1.885-.566,3.387,0C770.65,543.836,770.187,542.276,770.861,541.728Z" transform="translate(-628.587 -534.414)" fill="#538fe4" fill-rule="evenodd"/>
  <path id="Path_13683" data-name="Path 13683" d="M689.557,544.311v1.29c-.3.595-1.866.065-1.938.861-.379-.413-2.412.535-2.9,0-.362-.392-.516-.088-1.453,0-.477.044-.975-.058-1.452,0-.759.09-.834.333-1.451.43.147-.024-.193-.482-.484-.43-.068.013-.086.408-.484.43-2.088.113-4.6-.124-6.778,0-1.015.058-2.33.33-4.353.429-.315.015-1.735-.179-1.938,0-.408.363-.476.093-1.451,0a9.978,9.978,0,0,0-2.42,0c-.027.031.031.425,0,.432-.721.1-.713-.418-.967-.432-.369-.019-.506.42-.968.432-1.973.042-3.928-.113-5.809,0-.766.046-.834.4-1.451.43-.709.04-4.848-.516-5.323,0-.031.031-.7.727-.968.428-.432-.468-.26-.075-.971,0a10.942,10.942,0,0,0-1.449,0c-.211.059-.565.44-.485.43-.8.078-.822-.444-1.453-.43-.326.01-.566.354-.968.43s-2.186-.251-2.416,0c-.5.539-.219-.042-.969,0-.395.025-.488.4-.969.431-1.67.11-3.676-.269-4.84.862-2.32-1.414-4.353-1.058-7.26-.432-.484-.913-2.138-1.915-.966-3.01.769.432,1.947.407.966,1.291a13.785,13.785,0,0,1,3.873-1.291c1.768-.283,1.854.929,3.387.861a2.46,2.46,0,0,0,.967-3.442c.973.146,1.514-.089,1.453-.861-.094-.406-1.287-.593-1.935-.43-.186.045-.875.847-.969.861-.8.1-.826-.469-1.451-.431a12.493,12.493,0,0,0-1.936.431c-.307.058-.664-.067-.969,0-1.084.24-.255.2-1.935,0-1.018-.122-2.428.473-1.936-1.291-.4.293-.486.609-.968.86-.387.2-1-.123-.967.431h-4.356a3.017,3.017,0,0,0-.967,1.288,2.21,2.21,0,0,1-1.937-.858c-.6.119-.541,1.042-.969,1.29-.459.269-1.543-.3-1.451.429-2.871-.257-4.316.757-7.262.432-1.832.862-4.64,2.089-7.257,1.721-1.524-.216-1.995-1.354-3.387-1.291-.141-.862.515-.95.969-1.291.173-.131.855-.814.968-.862.764-.319,2.664.011,3.871-.428.6-.219.784-.73,1.45-.861.615-.123,1.314.085,1.935,0,1.113-.153,1.2-.248,2.9-.43.147-.017.887.087.969,0,.473-.513.428.115,1.451,0,.932-.105,1.62-.72,2.42-.861.465-.081,1.3.571,1.453.431.364-.323,1.252-.737,1.452,0,2.513-1.208,6.451-1.15,10.164-1.292q-.338,2.022,1.935,1.722c1.432-.377-1.463-.342-.484-1.722.431-.191.865-.379.967-.858,1.386-.088,2.644-.056,2.421,1.288.9-.063.3-1.456.967-1.72.688.037,1.369.072,1.451-.431,1.067-.217,2.1.286,3.389,0,.207-.046.6-.433.485-.43-.022,0,1.828,1.076,2.417.43.627-.678,1.02.508,2.907,0,.392-.105,1.3-.668,1.933.431.635-.163.766-.746,1.453-.861a53.22,53.22,0,0,1,5.325,0c.728-.024.894-.475,1.451-.43a.62.62,0,0,0,.484.43c.375.018.5-.43.969-.43a.526.526,0,0,1,.484.43c.4-.026.479-.411.967-.43a33.05,33.05,0,0,1,3.873,0c1,.088,1.387.766,2.9.43.236-.053.562-.434.486-.43,1-.063,2.34.858,3.385-.431,1.064.63,2.267,1.14,1.935,3.012-2.549.08-4.691-.109-6.775,0-1.057.055-1.557.314-3.387.43a7.271,7.271,0,0,0-.969,0c-.189.042-.627.431-.484.431-.4,0-.766-.452-1.451-.431-.858.027-1.037.371-1.936.431.147-.01-.25-.69-.484-.431-.518.577-.154-.011-.485,0a4.093,4.093,0,0,0-.966,0c-.68.736-.645-.035-1.452,0-.787.035-.822.348-1.455.431-.461.06-3.957-.431-4.353,0-.7.762-.641-.091-1.451,0-1.571.172-2.953,1.212-4.84.861.664,1.109,2.965.094,3.871,0,1.227,1.05-1.02.916-.482,2.581.271.906.716-.366.966-.432.315-.081.955.787.969,0,1.32-.311.973.856,1.934.861.525-.1.328-.854.968-.861.868-.054,1.02.527,1.934.432-.039.612-.078,1.217.484,1.291.705-.193-.046-.377,0-.862.094-.347.489-.427.487-.861,1.713-.752,1.189.287,2.9.432v-1.29c-.332-.877-.908.082-1.451,0-1-.154-.746-.527-1.451-.861-.08-.706,2.982-.706,2.9,0,1.061-.428,4.4-1.923,4.358.431-.85.246-2.844-.521-2.9.43-.939,1.592,1.436.316,1.936.858.047.051-.061.408,0,.432.76.307,1.689.273,1.935.861.371-.513,1.174-.227,1.938-.432,1.049-.278,1.818-.955,2.418-.861.021.005.029,1.165.486.861,1.3.3.934-.888,1.451-1.291a13.571,13.571,0,0,1,2.418,1.291c.936-.174.383-1.666,1.934-1.291-.039.613-.076,1.218.486,1.291.66-.133.4-1.075.485-1.719h2.906v1.29a3.961,3.961,0,0,1,3.387.861c.525-.106.328-.856.964-.861a.431.431,0,0,0,0-.862c1.108-1.5,1.717,1.018,3.391.43,1.008-.125-.719-1.162.967-1.288,1.72-.67.293,1.46,1.453,1.288,1.8.456,1.56-.9,2.418-1.288,1.033-.2.924.613.969,1.288,1.205-.046,1.5-.8,2.42,0C687.182,545.06,688.35,543.364,689.557,544.311Zm-53.721,1.719c1.32.04.974-.715,1.933,0A1,1,0,1,0,635.836,546.03Z" transform="translate(-582.115 -534.414)" fill="#538fe4" fill-rule="evenodd"/>
  <path id="Path_13684" data-name="Path 13684" d="M792.641,542.59c.351,1.173-.961.865-.969,1.721.4.218,1.611-.289,1.933,0,.383.337.323.229.969,0,.174-.062.861.119.969,0,.025-.027-.025-.429,0-.43,1.021-.094,2.012.588,3.389,0,.836.948-2.039,3.525,1.935,3.011.485,1.925-1.693-.361-2.418.429s-2-.351-3.875.432c-1.555.378-.66-1.419-1.933-1.291-1.555-.38-.666,1.418-1.936,1.291-1,.461-.687-.731-.969-.861-.328-.151-1.176.206-1.451,0-.156-.119.16-.744,0-.862-.406-.3-1.234.014-.969-.861a4.585,4.585,0,0,1-.966.432c-.174.061-.862-.12-.969,0-.738.8-.662-.2-1.451,0-.52.127-.336.84-.969.861-1.01.183-1.283-.3-1.936-.432-.548-.517-1.382-.778-.966-2.149,1.154.261,3.509-.54,3.871.43,1.49.319.929-1.182,2.42-.861.056.949,2.05.182,2.9.431C790.185,543.268,791.275,541.5,792.641,542.59Zm-1.454,3.872c.073-.51.864-.978,0-1.293C791.119,545.68,790.326,546.147,791.187,546.462Z" transform="translate(-634.323 -534.414)" fill="#538fe4" fill-rule="evenodd"/>
  <path id="Path_13685" data-name="Path 13685" d="M775.7,690.6a8.575,8.575,0,0,1-1.455,2.583c-1.012-.94-1.379.214-2.9,0-1.553.376-1-1.117-1.938-1.292-1.072.335-2.623.249-2.9,1.292-.717-.225-1.221-.636-1.936-.861-1.492-.322-.929,1.18-2.42.861a4.747,4.747,0,0,1-3.386-1.292c-1.827.1-2.051,1.621-3.873,1.722-.957.506-.739-.791-.967-.86.056.017-2.813,1.128-3.389,0,.059.115.66-.592,0-.431-2.086.01-3.725.417-4.355,1.72a19.609,19.609,0,0,0-3.389-.859c-1.074-.238-.688.82-1.453.859-1.469-.412-4.906.921-4.838-.859q-.744.63-1.453,1.29c-1.393-.051-.84-1.835-2.42-1.72-1.127-.295-.65.63-.484.43-.293.352-.829.38-.969.859-1.846.21-3.086-.122-3.869-.859-.893.375-.821.785-1.936.859.158-.009-.242-.429-.484-.429-.332,0-.559.422-.485.429-1.09-.116-1.58-.824-2.418-.859-.867-.037-1.412.413-2.422.43-.693.012-1.753-.456-2.419-.43-.9.032-2.457,1.482-2.9,0-.717.223-1.22.637-1.935.859-.112.62-1.446.152-1.451.86-.864-.314-.073-.78,0-1.289-1.624-.008-2,1.09-2.907,1.72-1.679-.469-5.65.308-8.711,0-.5-1.446,1.5-.669,2.422-.86-.058-.564-.91-.284-1.455-.431a5.724,5.724,0,0,0-3.387,0c-.839.171-1.365.374-1.935.431-1.07.107-1.231-.414-1.936-.431-.508-.011-2.252.851-3.871.431.313.438,1.112.445.969,1.291-1.674.074-3.123-.1-4.84,0-.783.046-.824.326-1.453.43-1.051.171-2.324-.109-3.387,0-.855.086-1.035.379-1.937.431-3.7.208-7.149-.425-11.133,0-.141.015-.885-.089-.967,0-.762.826-.387-.129-1.935,0a17.409,17.409,0,0,0-2.9.429c-.218.049-.586.435-.482.429-.365.016-3.436-1.249-4.358-.429-.427.381-.459.06-1.453,0-.636-.037-1.3.074-1.935,0-1.449-.169-.666-.282-1.936,0a4.133,4.133,0,0,1-.969,0c-1.474-.08-.63-.288-1.935,0-2.262.5-7.508.067-10.649,0a5.358,5.358,0,0,1-.964,0c-.207-.046-.606-.433-.485-.429-.392-.009-.775.458-1.453.429-.506-.02-.318-.4-.484-.429-.459-.082-.451.433-.485.429a20.983,20.983,0,0,0-5.8-.429c.154-.013.4-.848.482-.861.379-.058.551.417.484.43a6.871,6.871,0,0,1,1.452-.43c.568-.044.281.394.482.43-.769-.135,4.277-1.04,4.842-.43.5.546.154-.007,1.933,0,.313,0,3.916-.395,4.358,0,.392.349.492.113,1.453,0,2.512-.295,6.059,1.368,8.227-.431.052-1.24-1.551.07-1.938,0-.076-.014-.072-.415-.482-.431-1.192-.039-2.686.1-3.871,0-.748-.058-1.653-.406-2.422-.429-1.28-.04-2.088.372-3.387.429-.063,0-.518-.583-.969-.429-.2.067.045.461-.482.429a10.941,10.941,0,0,0-1.936-.429c-.093,0-.5.591-.968.429-.2-.067.041-.448-.485-.429-.756.027-.857.443-1.453.429-.848-.017-1.049-.348-1.936-.429-4.175-.373-8.49.636-13.55-.431.974-.8,3.261-.412,5.324-.429,4.971-.042,11.564-.354,16.939,0,.952.063,1.325.425,1.936.429a4.88,4.88,0,0,0,.967,0c.4-.089.783-.579,1.453-.429,1.1.245.244.159,1.933,0,1.932-.18,4,.484,6.778.429-.121,0,.236-.7.484-.429.76.841,1.483.139,2.9,0-.1.01.151.489.485.429.062-.011.09-.406.484-.429.565-.035,5.266.586,5.8,0,.342-.371.765-.168,2.418,0,.764.078,1.851-.239,1.937.429a11.194,11.194,0,0,1,2.9-.859c1.078-.09,1.214.35,1.935.43.373.04.5-.54.971-.43.133.031.019.422.48.43,1.057.012,1.231-.38,1.94-.43,1.051-.08,1.252.438,1.933.43-.105,0,.221-.419.485-.43.929-.044,2.373.047,3.871,0-.119.005.236-.706.484-.43.961,1.067,2.2-.231,4.356,0,.146.015.888-.091.968,0,.284.306.606.207,1.454,0,.148-.039-.028-.523.484-.431.109.021.014.463.48.431.92-.065,1.538-.732,2.422,0,.944.516.754-.806.967-.862.68-.181,2.106,1.384,2.9,0,.637.153.762.757,1.454.862.431-.265.863-.521.966,0,1.5-.052,2.258-1.086,4.356-.862.146.015.887-.087.969,0,.519.565,1.126-.387,2.418-.43.859-.027,1.464.375,2.421.43.637.04,1.3.008,1.936,0,1.053-.013,1.225-.356,1.935-.43,3.147-.33,6.692.2,9.682,0,.971-.063,1.3-.406,1.934-.432.754-.023,1.65.432,2.42.432.826,0,1.076-.328,1.935-.432,1.158-.135,2.74.086,3.871,0,.985-.072,1.528-.4,2.42-.429,1.053-.035,1.242.409,1.936.429.334.012,1.2-.374,1.935-.429-.148.01.252.69.485.429.914-1.013,2.754.133,4.841-.429a9.164,9.164,0,0,1,2.9,0c-.141-.006.246-.693.482-.43.031.034.7.728.969.43.41-.445.691-.057,2.422,0,.049,0,.531-.491.965-.43.035.006.111.413.484.43.69.033,1.375-.345,2.424-.43.582-.048,5.717.623,6.289,0,1.08-1.173,1.547.626,3.871,0,.168-.044.627-.435.484-.429.872-.029,1.016.463,1.938.429.766-.027.838-.418,1.449-.429,1.447-.027,2.908.812,4.356,0C774.727,689.746,774.381,690.914,775.7,690.6Zm-104.055,4.733c.356,1.2,1.817-.132,1.938,0,.463.518,1.9.242,2.42-.431-1.721-.769-1.289.233-2.42.431-.1.018-.356-.637-.971-.431-.256.088.074.38-.482.431-.492.045-.571-.431-.969-.431.141,0-.291.389-.484.431-1.4.311-1.422-.321-2.418-.431-.95-.1-1.391.357-1.938.431-.121.018-.332-.642-.967-.431-.158.053-.263.816-.484.862C667.445,695.823,669.967,696.794,671.648,695.333Zm16.455-.86c-.851.247-2.843-.52-2.9.429C686.676,694.735,687.664,696.034,688.1,694.473Zm-35.812,1.291c1-.261,3.361.7,2.9-.862A4.272,4.272,0,0,0,652.291,695.764Zm12.1-.431a2.965,2.965,0,0,1-1.936-.431C661.676,696.1,664.543,696.094,664.389,695.333Zm16.455,0c1.564-.017,3.177.376,3.873-.431-1.069.012-2.672-.013-3.873,0-1.565.019-3.176-.375-3.871.431C678.039,695.323,679.644,695.348,680.844,695.333Z" transform="translate(-582.115 -534.414)" fill="#538fe4" fill-rule="evenodd"/>
</svg>
