<svg xmlns="http://www.w3.org/2000/svg" width="164.737" height="202.182" viewBox="0 0 164.737 202.182">
  <path id="Path_4218" data-name="Path 4218" d="M664.139,112.23a22.774,22.774,0,0,0,1.045,9.607c1.628,5.381,2.8,10.9,4.328,16.316a70.427,70.427,0,0,0,9.586,20.732,39.981,39.981,0,0,0,13.849,12.623,57.779,57.779,0,0,0,16.554,6.306c4.432.886,8.758,2.427,13.321,2.545,1.31.034,1.617.918,1.414,2a112.911,112.911,0,0,0-1.05,11.6,2.554,2.554,0,0,1-1.126,2.09c-5.665,4.271-12.081,6.711-18.81,8.552-4.66,1.275-9.313,2.52-14.07,3.383-3.108.564-3.592,1.5-2.739,4.652.056.208.064.429.117.638.755,2.975.756,2.975-1.93,4.111-.024,1.143.88,1.342,1.633,1.662,1.769.751,3.7.837,5.509,1.372,7.762,2.29,15.727,2.714,23.7,3.041,9.758.4,19.52.6,29.28.295a138.764,138.764,0,0,0,24.617-2.99c3.283-.7,3.537-1.134,3.876-4.708a43.718,43.718,0,0,0,.46-4.507c-.02-1.992-.834-2.764-2.734-2.5a6.116,6.116,0,0,1-3.344-.661c-7.59-3.242-15.349-6.056-22.739-9.8-3.9-1.976-3.938-1.939-2.965-6.144a29.306,29.306,0,0,0,.71-6.428,12.922,12.922,0,0,1,.25-2.889c.583-2.437.628-2.388,3.108-2.4a58.1,58.1,0,0,0,21.739-4.586c3.711-1.522,6.931-4.311,10.321-6.611,2.723-1.847,3.016-1.812,4.866,1.126.558.887.768,2.075,1.9,2.5.654.244,1.372.949,1.967.091.424-.614-.056-1.236-.463-1.735-.882-1.082-1.837-2.1-2.685-3.211-1.3-1.7-1.313-1.874.281-3.066,1.127-.843,2.524-1.583,1.919-3.261-.688-1.91-1.628-3.914-3.784-4.424-1.11-.263-1.843-.283-2.2-1.694-.459-1.811-1.043-1.93-2.79-1.2-.668.28-1.209.887-2,.831a2.059,2.059,0,0,1-.566-.22c-.232-.82.4-1.139.852-1.544a29.294,29.294,0,0,0,8.343-13.067c2.063-6.442,4.741-12.739,5.3-19.577.455-5.556,1.111-11.117-.422-16.756-1.1-4.032-.813-8.373-1.74-12.5-.967-4.3-1.127-8.93-4.135-12.469-2.328-2.738-3.755-6.261-6.868-8.317a3.693,3.693,0,0,1-1.069-1.191c-3.049-5.138-8.152-7.015-13.236-8.841a60.932,60.932,0,0,0-6.438-1.615c-5.837-1.4-11.653-2.926-17.522-4.16a49.12,49.12,0,0,0-16.618-.852c-2.171.286-4.419-.031-6.6.194a24.694,24.694,0,0,0-11.87,4.738c-.918.654-1.623,1.66-3.028,1.96-.207-1.3.78-2.027,1.057-2.981.654-2.246.042-3.78-2.089-3.562-1.747.178-2.175-1.557-3.54-1.566-.569,0-.542-.524-.471-.972.36-2.235-1.348-3.256-2.6-4.509-.338-.339-1.127-.687-1.414-.515a4.289,4.289,0,0,1-5.259-.235c-.3-.222-.812.167-1.02.562-.379.719-.5,1.66.209,2.059,2.28,1.282.769,2.22-.211,3.022-6.088,4.988-10.2,11.566-14.046,18.375a18.021,18.021,0,0,0-1.25,3.3c-1.041,3.154-1.759,6.413-3.177,9.448A23.078,23.078,0,0,0,663.94,94.75C664.221,100.573,664.919,106.373,664.139,112.23Zm117.473,48.342a1.153,1.153,0,0,1,1.2,1.236c-.084,1.158-1.072,1.535-1.963,1.776-.688.186-1.147-.372-1.413-1C779.375,161.963,780.872,160.535,781.611,160.572Zm-11.426,53.643c-.36,3.429-.5,3.617-3.3,4.472a17.492,17.492,0,0,1-2.41.7,209.892,209.892,0,0,1-27.529,2.433c-6.193.12-12.352-.566-18.538-.442a133.124,133.124,0,0,1-14.157-.434,55.359,55.359,0,0,1-11.755-2.264c-2-.623-2.516-1.864-2.158-4.033.372-2.253,2.055-1.532,3.213-1.338,7.27,1.216,14.625,1.533,21.928,2.2a200.33,200.33,0,0,0,31.365.594c7.618-.5,15.275-.418,22.775-2.1C769.786,213.968,770,214.14,770.185,214.215Zm-26.925-14.088c6.082,2.442,12.117,5.015,18.3,7.167a13.663,13.663,0,0,1,6.31,4.625c-26.2,3.726-51.7,1.965-77.282-.823a1.577,1.577,0,0,1,1.481-1.373c1.74-.384,3.486-.742,5.227-1.118a112.672,112.672,0,0,0,17.736-5.3c3.007-1.19,5.466-4.126,9.19-3.273.144.033.394-.171.51-.33.721-.979,1.6-.8,2.542-.41,4.386,1.828,8.83,1.619,13.264.424A4.013,4.013,0,0,1,743.261,200.127Zm-16.049-17.595c-.048-1.167.687-1.664,1.775-1.835a16.7,16.7,0,0,1,4.4-.126c.945-.005,1.889-.023,2.834-.01a11.63,11.63,0,0,1,1.256.117c2.311.289,2.279.433,2.367,2.846.146,4.025-1.63,7.74-1.478,11.764.065,1.714-1.035,2.463-2.664,2.455-1.68-.007-3.364.12-5.039.032-3.405-.179-4.107-1.03-4.21-4.616S727.357,186.113,727.211,182.532ZM775.3,137.443c-.074.534-.171,1.065-.279,1.591a1.892,1.892,0,0,1-1.945,1.735c-1.144.006-1.3-.944-1.459-1.789-.833-4.47-2.1-8.828-3.33-13.194a37.623,37.623,0,0,0-2.453-6.333c-1.209-2.474-1.063-2.827,1.222-3.979,1.876-.945,3.751-1.9,5.678-2.726s2.221-.645,2.358,1.419c.342,5.175.593,10.355.881,15.533A47.521,47.521,0,0,1,775.3,137.443Zm-1.537,6.47c-.078.261-.226.62-.43.691-.382.134-.41-.258-.451-.545.072-.3.15-.641.545-.554C773.567,143.537,773.79,143.818,773.762,143.913Zm-63.7,15.017a3.558,3.558,0,0,1-.042,3.48c-5.323-3.046-10.546-5.824-14.744-10.215a44.034,44.034,0,0,1-6.4-9.251c-.5-.89-1.264-2.228.206-2.728,2.675-.908,4.548-2.983,6.842-4.43,2.1-1.322,2.139-1.433,3.99.406,3.854,3.828,7.366,8.062,12.328,10.5,1.557.767,1.44,1.81.536,3.115-.843,1.217-1.5,2.578-2.222,3.881A5.583,5.583,0,0,0,710.059,158.93Zm-25.892-52.818c2.047.449,2.354,1.807,2.441,3.537a12.229,12.229,0,0,0,.411,1.9c1.382,6.436,4.52,12.071,7.756,17.658,1.576,2.721,1.638,2.773-.936,4.46a55.2,55.2,0,0,0-6.69,4.588c-7.4-14.222-5.755-46.174,1.166-55.411a1.539,1.539,0,0,1,.217,1.215c-.694,5.657-1.432,11.309-2.031,16.978-.172,1.63-.39,2.872-2.2,3.391C683.157,104.748,683.117,105.882,684.166,106.112Zm58.489,15.127c1,1.269.792,2-.412,2.837-4.229,2.93-8.419,5.918-12.64,8.862a10.393,10.393,0,0,1-1.488.753,3.39,3.39,0,0,1-2.28-1.43c-2.521-3.043-5.093-6.047-7.471-9.206-1.583-2.1-1.286-2.985,1.116-4.128,4.339-2.063,8.776-3.918,13.053-6.105,1.822-.931,2.842-.343,4.058.946C738.8,116.106,740.67,118.716,742.655,121.238Zm-5.66-10.7a1.383,1.383,0,0,1,.654-1.028c.723-.425,1.438-.864,2.14-1.322a107.306,107.306,0,0,0,10.632-7.9c.816-.69,1.676-1.359,2.556.108,2.376,3.959,4.947,7.8,7.188,11.836,1.443,2.6,1.112,3.132-1.573,4.324-3.73,1.658-7.746,2.584-11.309,4.683-1.394.822-2.445-.131-3.193-1.241a64.64,64.64,0,0,0-6.2-7.785A2.826,2.826,0,0,1,736.995,110.54Zm-7.627.9c-4.137,1.8-8.236,3.677-12.25,5.746-.373.192-.76.355-1.095.51-.957.12-1.363-.558-1.779-1.176a145.124,145.124,0,0,1-8.578-13.632c-.73-1.4-.1-1.866,1-2.418,4.111-2.057,8.486-3.656,12.02-6.755,1.483-1.3,2.169-.611,3.243.632,3.235,3.745,5.586,8.14,8.654,12.008C732.953,109.336,732.753,109.962,729.368,111.437Zm-13.2,11.92a95.938,95.938,0,0,0,8.066,10.423c1.5,1.773,1.554,1.869-.067,3.37-2.715,2.515-5.6,4.847-7.659,8.022a1.666,1.666,0,0,1-1.367.838,5.746,5.746,0,0,1-.809-.263c-5.311-2.52-9.183-6.823-13.005-11.189-.991-1.131-.481-1.9.5-2.643,3.945-2.986,8.069-5.723,11.8-9C714.625,122.033,715.382,122.121,716.167,123.357Zm3.172,22.757a41.192,41.192,0,0,1,6.438-6.55c1.917-1.69,2.279-1.615,4.208.192.311.291.6.612.882.931,3.859,4.31,7.847,8.464,12.785,11.5,1.172.721,2.3,1.512,3.454,2.268.961.631.9,1.342.2,2.122a2.112,2.112,0,0,1-1.965.754c-4.062-.994-8.318-.766-12.271-2.666-2.068-.994-3.978-2.478-6.281-2.9-2.411-.442-4.549-1.654-6.809-2.51C718.15,148.564,718.093,147.834,719.339,146.115Zm26.764,5.491a99.882,99.882,0,0,1-14.589-12.891c-2.087-2.182-1.961-2.576.562-4.4q5.233-3.78,10.492-7.521c2.509-1.785,2.841-1.749,5.066.43,3.062,3,5.276,6.739,8.2,9.865,1.678,1.794,3.291,3.662,4.827,5.585,1.181,1.479,1.123,1.756-.5,2.638a33.076,33.076,0,0,0-9.362,6.865,2.168,2.168,0,0,1-1.632.931A7.294,7.294,0,0,1,746.1,151.606Zm8.973-17.631a1.076,1.076,0,0,1-.389-.493c-.823-2.977-3.215-4.773-5.018-7-1.995-2.467-2.012-2.686.912-3.985,2.876-1.278,5.792-2.446,8.773-3.465,2.816-.962,2.766-1.064,4.352,1.574a9.216,9.216,0,0,1,1.063,2.339c.936,3.439,1.946,6.856,2.877,10.3a28.477,28.477,0,0,1,1.4,6.309c.09.853.375,1.86-.521,2.347a24.719,24.719,0,0,1-3.74,1.571c-.522.181-1.012-.253-1.357-.668C760.826,139.674,758.3,136.478,755.076,133.975Zm8.017-21.07c-2.515-4.764-5.248-9.4-8.071-13.972-.727-1.181-.3-1.975.631-2.76,3.226-2.726,6.654-5.166,10.07-7.628,1.28-.923,2.135-.608,2.713.781.827,1.987,1.7,3.963,2.381,6,1.405,4.191,2.849,8.382,3.225,12.577.187,1.235-.133,1.892-1.067,2.286-2.508,1.06-5.014,2.132-7.479,3.292C764.471,113.965,763.658,113.975,763.092,112.9Zm.32-26.332c-2.937,2.234-5.893,4.443-8.832,6.675-.5.381-.927.882-1.611.919-.807-.171-1.178-.843-1.6-1.466A46.038,46.038,0,0,0,741.1,81.279c-.682-.51-1.345-1.053-1.982-1.62-1.44-1.282-1.554-1.85-.295-3.172,2.335-2.451,4.8-4.771,7.147-7.208.931-.966,1.737-.765,2.792-.224a33.512,33.512,0,0,1,4.4,3.168,73.643,73.643,0,0,1,10.749,10.063C765.811,84.377,765.689,84.841,763.413,86.573ZM744.661,87.69c1.636,2.114,3.295,4.212,4.934,6.324,1.092,1.408,1.062,1.976-.377,3.189a106.93,106.93,0,0,1-12.615,9.47c-2.219,1.37-2.616,1.321-4.182-.713-2.728-3.544-4.663-7.706-8.028-10.765-.97-.882-1.093-2.315-1.632-3.368-.194-.959.523-1.135.984-1.527,3.523-2.993,7.352-5.613,10.576-8.963,1.179-1.226,2.184-.974,3.3-.122A36.54,36.54,0,0,1,744.661,87.69ZM731.588,80.2c-2.979,2.691-6.1,5.219-9.107,7.876-1.138,1-2.121.924-2.9-.3-2.141-3.365-5.041-6.1-7.245-9.407A6.675,6.675,0,0,1,711.783,77a3.183,3.183,0,0,1,1.943-2.526,34.607,34.607,0,0,0,6.191-4.273c.741-.709,1.339-.087,1.948.326,3.157,2.144,6.337,4.252,9.466,6.44C733.071,78.189,733.158,78.781,731.588,80.2Zm-19.595-7.505c-1.769,1.149-2.317,1-3.7-.678-.882-1.075-1.047-2.674-2.3-3.45a10.952,10.952,0,0,1-3.067-3.536c5.222-.757,9.876.94,14.945,3.66C715.581,70.256,713.81,71.512,711.993,72.693Zm-1.28,6.09c2.852,2.841,4.53,6.526,6.944,9.674,1.492,1.945,1.426,2.164-.471,3.553a56.856,56.856,0,0,1-11.223,6.331c-1.985.854-2.193.863-3.11-1.156-1.941-4.278-2.568-8.907-3.362-13.146-.134-2.418.121-2.76,2.248-3.5,1.87-.655,3.847-1.026,5.454-2.36C708.516,77.076,709.538,77.611,710.714,78.783Zm-7,25.566c2.743,4.236,5.442,8.5,8.186,12.738,1.46,2.254,1.538,2.46-.659,4.159-3.583,2.772-7.3,5.362-10.9,8.113-1.394,1.066-2.326.577-3.114-.683-3.959-6.335-7.375-12.9-8-20.357-.4-1.894.287-2.908,1.84-3.372a7.173,7.173,0,0,1,2.1-.626c2.378.086,4.5-.886,6.725-1.444C702.313,102.268,702.332,102.222,703.709,104.349ZM715.2,151.588c1.237-1.756,1.4-1.892,3.31-1.047a39.722,39.722,0,0,0,3.75,1.7,73.088,73.088,0,0,1,10.824,4.425,21.578,21.578,0,0,0,7.556,2.16c1.037.113,2.057.4,3.089.581,1.067.187,1.845.554,1.378,1.91a1.758,1.758,0,0,0,1.232,2.519c1.17.365,1.745-.431,2.081-1.421.3-.871.7-1.614,1.714-1.579,2.448.084,4.895.216,7.321.329.072.94-.557,1.039-.964,1.279-3.05,1.8-6.447,2.423-9.88,2.87-2.907.378-5.847.537-8.735,1.02-5.643.942-11.278.5-16.923-.014-2.014-.183-3.836-1.108-5.749-1.681a2.969,2.969,0,0,1-2.124-2.9C712.744,158.107,713.043,154.658,715.2,151.588Zm36.952,7.184c-.522-.088-1.073-.341-1.08-.954a.943.943,0,0,1,1.049-.94,11.831,11.831,0,0,1,5.906,1.5A16.493,16.493,0,0,1,752.156,158.772Zm1.26-4.361a20.082,20.082,0,0,1,7.05-6.335c2.827-1.583,3.123-1.462,5.194,1.134.4.5.808,1,1.213,1.5,2.93,3.591,2.679,4.464-1.66,5.724a3.783,3.783,0,0,1-1.224.216A30,30,0,0,1,753.415,154.411Zm13.766-6.978c-.4-.523-1.212-1.135-.463-1.908a2.671,2.671,0,0,1,2.506-.923c.873.194.979,1.042,1.034,1.774a18.355,18.355,0,0,0,.368,4.178C768.871,150.063,768.109,148.642,767.181,147.434Zm3.485,10.8c-.426.7-.823,1.137-1.5,1.072-.105-.01-.3-.319-.272-.362A1.471,1.471,0,0,1,770.666,158.233ZM778.9,143.24c-.525,1.432-1.123,2.826-2.745,3.581.5-1.342.98-2.693,1.517-4.019a.582.582,0,0,1,.788-.3C778.76,142.643,779.016,142.926,778.9,143.24Zm7.889-29.055a78.59,78.59,0,0,1-2.756,14.835,74.91,74.91,0,0,1-3.485,9.989c-.225.48-.439,1.022-1.109.884a1.271,1.271,0,0,1-1.193-1.273c0-.753.1-1.5.115-2.257.072-2.906.8-5.778.433-8.7a52.329,52.329,0,0,1-.387-8.779c-.139-1.759-.266-3.912-.495-6.056a2.174,2.174,0,0,1,1.633-2.675,15.019,15.019,0,0,1,2.407-.69C785.3,109.075,787.14,110.867,786.79,114.185Zm-4.412-30.271a2,2,0,0,1,.1.309,135.432,135.432,0,0,1,3.608,21.322c.316,3-.061,3.338-2.685,2.158a2.964,2.964,0,0,0-2.109-.126,16.882,16.882,0,0,0-2.434.626c-1.383.581-1.947-.065-2.2-1.351-.143-.744-.256-1.494-.416-2.234-1.3-6.039-2.932-11.962-6.17-17.277a2,2,0,0,1,.564-3.039c1.449-1.05,2.947-2.029,4.414-3.053C779.637,78.048,779.671,77.581,782.378,83.914ZM753.9,62.454a1.466,1.466,0,0,1,1.187-.216c2.493.687,5.31.415,7.291,2.656a3.749,3.749,0,0,0,2,.924,14.592,14.592,0,0,1,6.359,4.111c1.752,1.726,3.452,3.516,5.287,5.143,1.145,1.014,1.039,1.735-.062,2.545a38.451,38.451,0,0,1-5.894,3.662c-2.487,1.217-2.464,1.246-4.556-.807-3.347-3.284-6.3-6.984-10.406-9.445-2.042-1.223-3.671-3.185-5.609-4.923C750.787,64.547,752.5,63.69,753.9,62.454ZM727.548,57.41c.243-.826,1.031-.517,1.6-.555,4.457-.3,8.712.985,12.96,2.089a40.109,40.109,0,0,1,7.86,2.511c-.506.907-1.3,1.239-1.879,1.8-2.093,2.031-4.268,2.274-6.8.667a25.919,25.919,0,0,0-6.355-2.753c-2.1-.647-4.195-1.33-6.259-2.094C728.028,58.831,727.27,58.357,727.548,57.41Zm.61,3.664c5.123,1.905,10.415,3.345,15.636,6.029a83.7,83.7,0,0,1-7.633,8.6c-1.042,1.092-2.106.491-3.126-.2-3.159-2.141-6.3-4.305-9.5-6.388-1.193-.778-1.211-1.533-.5-2.657a33.437,33.437,0,0,0,2.294-4.217A1.968,1.968,0,0,1,728.159,61.073Zm-4.211-3.683c-1.073.782-1.944.979-3.525.01C721.921,57.036,722.775,56.555,723.947,57.39ZM706.535,60.8a103.661,103.661,0,0,1,11.527-1.068c1.606.011,3.968-.787,4.6.882s-1.466,3.072-2.495,4.507a1.987,1.987,0,0,1-3.02.467,19.574,19.574,0,0,0-5.023-1.736,42.689,42.689,0,0,0-9.54-1.307v0C703.924,62.023,704.984,60.962,706.535,60.8Zm-3.952,1.748a5.229,5.229,0,0,1,.218,2.371C701.2,64.309,702.255,63.385,702.583,62.547Zm-2.57,3.051a1.3,1.3,0,0,1,1.411.459,46.339,46.339,0,0,1,5.795,7.22c.472.669.616,1.492-.172,1.973-1.946,1.192-3.717,2.756-6.064,3.148-1.11.185-1.885-.046-1.709-1.921.449-1.724.066-4.036.83-6.207.414-1.18.807-2.424-.6-3.456C698.589,66.14,699.525,65.813,700.013,65.6Zm.719,33.166c.328.828.325,1.569-.62,1.794-2.141.51-4.021,1.779-6.269,2.02-4.684.5-4.678.558-4.455-5.373-.036-3.763.99-8.415,1.614-13.118.278-2.091.538-2.242,2.943-2.286,2.379-.044,2.709.161,3.151,2.186C698.178,88.946,698.849,94.007,700.732,98.764Zm-4.325-20.008c-.234,1.035-2.537,1.628-3.543.985-1.13-.723-.566-1.75-.152-2.551a23.148,23.148,0,0,1,4.295-6.072A20.337,20.337,0,0,1,696.406,78.756Zm-4.558-18.428c.525.883.036,1.639-.307,2.4-.326.723-.551,1.456.135,2.075.782.707,1.541.386,2.287-.134.862-.6,1.576-1.654,2.885-1.245.023,1.3-.785,1.881-1.4,2.6a79.335,79.335,0,0,0-5.734,6.808,56.328,56.328,0,0,0-8.89,22.937c-2.038,12.68-1.9,25.387,1.838,37.919,2.464,8.252,6.162,15.682,12.545,21.5,4.789,4.364,10.377,7.491,15.968,10.5a28.206,28.206,0,0,0,11.127,3.507c5.441.41,10.894.807,16.334.014,2.386-.348,4.784-.674,7.189-.822a34.924,34.924,0,0,0,17.919-6.252c1.013-.694,2.1-1.277,3.236-1.965.372,1.134-.091,2.122.364,3.025.734,1.458.052,2.221-1.284,2.616-2.613.775-5.177,1.909-7.846,2.263-7.885,1.044-15.5,3.486-23.509,4.017a54.509,54.509,0,0,1-19.24-2.041c-1.566-.461-2.993-1.414-4.65-1.825a36.758,36.758,0,0,1-16.766-9.262c-3.787-3.594-6.616-7.825-9.57-12.068a40.274,40.274,0,0,1-6.217-14.476c-.755-3.369-1.594-6.721-2.043-10.153-.688-5.256-1.718-10.506-1.379-15.819.311-4.846.833-9.687,1.513-14.489a59.3,59.3,0,0,1,2.682-10.95c2.555-7.439,7.156-13.585,11.494-19.9A1.493,1.493,0,0,1,691.848,60.328ZM667.309,89.471c1.712-6.445,3.4-12.934,6.352-18.911,2-4.04,5.033-7.38,7.663-10.989a49.359,49.359,0,0,1,5.987-6.132,1.588,1.588,0,0,1,2.68.184c.667.852,1.853,1.534.685,2.992-2.256,2.818-4.335,5.785-6.526,8.658a55.363,55.363,0,0,0-9.616,21.546,112.38,112.38,0,0,0-1.877,12.76c-.474,4.282-.973,8.593-.379,12.921.807,5.879,1.694,11.726,2.945,17.555,1.434,6.678,3.606,12.833,7.5,18.4,2.342,3.346,4.413,6.894,7.5,9.629,1.68,1.49,3.28,3.079,4.992,4.528a46.55,46.55,0,0,0,20.157,10.213c3.292.732,6.634.964,9.961,1.372a63.215,63.215,0,0,0,19.388-1.057,62.637,62.637,0,0,1,7.74-1.356c5.964-.351,11.4-2.723,17.027-4.346a10.793,10.793,0,0,0,4.158-2.21,9.325,9.325,0,0,1,1.913-1.095,1.422,1.422,0,0,1,2.145.613c.5.938-.19,1.43-.787,1.829-2.453,1.641-4.895,3.3-7.423,4.817-1.706,1.02-3.114,2.508-5.108,3.095a85.584,85.584,0,0,1-12.521,3.073,107.493,107.493,0,0,1-20.37.523c-3.072-.071-6.433.666-9.777.081-4.764-.832-9.569-1.567-14.232-2.844-7.937-2.173-14.953-6.371-21.327-11.689a23.158,23.158,0,0,1-4.712-5.682c-.681-1.1-1.385-2.183-2.087-3.268a57.591,57.591,0,0,1-6.705-15.046c-1.718-5.8-3.031-11.725-4.52-17.6-.749-2.951-1.536-5.976-.988-8.976.729-3.995.329-7.966.315-11.956C667.445,97.221,666.295,93.292,667.309,89.471Z" transform="translate(-590.003 -206.064) rotate(14)" fill="#172553" opacity="0.5"/>
</svg>
