<svg id="Group_146" data-name="Group 146" xmlns="http://www.w3.org/2000/svg" width="496.172" height="137.672" viewBox="0 0 496.172 137.672">
  <g id="Group_145" data-name="Group 145" transform="translate(0 0)">
    <path id="Path_4136" data-name="Path 4136" d="M272.456,26.313h-1.695c.238.849.206,1.911,1.695,1.775Z" transform="translate(-32.55 -26.313)" fill="#be8723" fill-rule="evenodd"/>
    <path id="Path_4137" data-name="Path 4137" d="M242.524,26.756c-1.646-.652-1.646,1.986,0,1.332Z" transform="translate(30.685 -26.313)" fill="#be8723" fill-rule="evenodd"/>
    <path id="Path_4138" data-name="Path 4138" d="M248.042,26.756h-2.257v.888h2.257Z" transform="translate(20.087 -26.313)" fill="#be8723" fill-rule="evenodd"/>
    <path id="Path_4139" data-name="Path 4139" d="M227.906,27.2c-.238.929.389,1.176.565,1.777C230.108,28.9,229.831,26.866,227.906,27.2Z" transform="translate(58.85 -26.313)" fill="#be8723" fill-rule="evenodd"/>
    <path id="Path_4140" data-name="Path 4140" d="M151.305,32.085c1.132.929,2.547.338,3.95.445-.035,0,2.135,1.1,2.824.444.42-.4.6-.09,1.693,0a25.774,25.774,0,0,1,3.952,0c.472.087.555.408,1.128.444.424.026.927-.486,1.7-.444-.2-.011.389.41.563.444.349.069.771-.037,1.129,0,1.027.106,2.3.381,3.387.444-.183-.01.28-.444.565-.444.458,0,1.335.4,2.258.444,4.178.2,8.485.48,13.547.445.511-1.418-1.675-.77-2.258-.889-.14-.028-.052-.423-.565-.444-1.061-.044-2.8.165-4.514,0-2.11-.2-6.506-.314-10.161-.444-1.763-.064-4.331-.354-7.338-.445-.739-.021-1.527.077-2.26,0C159.059,31.9,154.061,30.975,151.305,32.085Z" transform="translate(186.817 -26.313)" fill="#be8723" fill-rule="evenodd"/>
    <path id="Path_4141" data-name="Path 4141" d="M185.32,31.641c.576,1.027,2.6.92,4.517.889C190.181,30.778,186.737,32.007,185.32,31.641Z" transform="translate(146.594 -26.313)" fill="#be8723" fill-rule="evenodd"/>
    <ellipse id="Ellipse_17" data-name="Ellipse 17" cx="0.798" cy="0.628" rx="0.798" ry="0.628" transform="translate(331.679 6.477)" fill="#be8723"/>
    <path id="Path_4142" data-name="Path 4142" d="M153.5,34.75c-.614.11-.384.884-1.13.888-.1.378.219.419.565.445h1.128C154.225,35.365,153.532,35.318,153.5,34.75Z" transform="translate(219.619 -26.313)" fill="#be8723" fill-rule="evenodd"/>
    <path id="Path_4143" data-name="Path 4143" d="M160.015,35.194c-.782-.872-4.79-.542-5.644,0a1.556,1.556,0,0,0,1.695.889c.207-.028,1.035-.88,1.128-.889C157.765,35.142,159.083,36.242,160.015,35.194Z" transform="translate(211.41 -26.313)" fill="#be8723" fill-rule="evenodd"/>
    <path id="Path_4144" data-name="Path 4144" d="M177.458,35.638c-.57,1.337,1.258.788,2.257.889A2.723,2.723,0,0,0,177.458,35.638Z" transform="translate(165.745 -26.313)" fill="#be8723" fill-rule="evenodd"/>
    <path id="Path_4145" data-name="Path 4145" d="M286.818,37.859c2.562-.417,3.381.106,5.08-.444C291.624,35.318,286.054,34.926,286.818,37.859Z" transform="translate(-70.055 -26.313)" fill="#be8723" fill-rule="evenodd"/>
    <path id="Path_4146" data-name="Path 4146" d="M160.864,36.527c.788.679,2.922,1.261,3.952.443C164.8,35.68,161.626,35.92,160.864,36.527Z" transform="translate(199.273 -26.313)" fill="#be8723" fill-rule="evenodd"/>
    <path id="Path_4147" data-name="Path 4147" d="M165.159,36.527c1.711,1.641,1.9-1.349,0,0Z" transform="translate(192.722 -26.313)" fill="#be8723" fill-rule="evenodd"/>
    <path id="Path_4148" data-name="Path 4148" d="M250.414,36.083c-1.3-.136-.628,1.283-1.694,1.332.689.632,2.154,1.009,2.822.444C251.953,36.647,250.421,36.965,250.414,36.083Z" transform="translate(13.201 -26.313)" fill="#be8723" fill-rule="evenodd"/>
    <path id="Path_4149" data-name="Path 4149" d="M254.277,36.97c.663,1.569,3.834,1.6,3.949-.443C257.017,35.568,255.074,36.3,254.277,36.97Z" transform="translate(0.306 -26.313)" fill="#be8723" fill-rule="evenodd"/>
    <path id="Path_4150" data-name="Path 4150" d="M272.5,36.083c-1.307.124-1.3,1.186-.565,1.776C273.572,37.473,272.566,37.194,272.5,36.083Z" transform="translate(-33.719 -26.313)" fill="#be8723" fill-rule="evenodd"/>
    <path id="Path_4151" data-name="Path 4151" d="M280.2,36.97c.054,1.339,5.181,1.452,4.514-.443C283.468,35.6,280.956,36.178,280.2,36.97Z" transform="translate(-55.534 -26.313)" fill="#be8723" fill-rule="evenodd"/>
    <path id="Path_4152" data-name="Path 4152" d="M297.431,36.083H296.3c.1.377-.221.418-.565.444v.888c.481-.082.532.173.565.444h1.129c-.1-.378.219-.419.565-.444v-.888C297.514,36.608,297.462,36.354,297.431,36.083Z" transform="translate(-86.312 -26.313)" fill="#be8723" fill-rule="evenodd"/>
    <path id="Path_4153" data-name="Path 4153" d="M322.6,36.083c-1.39-.059-2.718-.068-3.385.444.479.955,1.39,1.571,3.385,1.332Z" transform="translate(-137.451 -26.313)" fill="#be8723" fill-rule="evenodd"/>
    <path id="Path_4154" data-name="Path 4154" d="M332.254,36.083c-.533,2.809,3.145,1.435,4.518.887C335.868,36.2,334.229,36.009,332.254,36.083Z" transform="translate(-166.294 -26.313)" fill="#be8723" fill-rule="evenodd"/>
    <path id="Path_4155" data-name="Path 4155" d="M152.373,36.97c.455.86,2.643.388,3.952.445,1.285.055,2.4.478,2.822,0-.2-.509-.993-1.126-1.128-.445C154.791,36.807,154.714,36.439,152.373,36.97Z" transform="translate(214.537 -26.313)" fill="#be8723" fill-rule="evenodd"/>
    <path id="Path_4156" data-name="Path 4156" d="M238.3,36.97c-.385,1.375,3.233,1.85,3.95.889C242.632,36.484,239.012,36.009,238.3,36.97Z" transform="translate(34.35 -26.313)" fill="#be8723" fill-rule="evenodd"/>
    <path id="Path_4157" data-name="Path 4157" d="M247.478,36.527h-1.129c.1.378-.22.419-.564.443v.889c.479-.082.531.172.564.445h1.129c-.1-.379.22-.42.564-.445V36.97C247.562,37.053,247.509,36.8,247.478,36.527Z" transform="translate(20.087 -26.313)" fill="#be8723" fill-rule="evenodd"/>
    <path id="Path_4158" data-name="Path 4158" d="M262.726,37.415c.505-1.551-1.841-.758-2.257-.445-.894.037-2.155-.214-2.259.445h2.259C261.519,36.99,262.354,38.745,262.726,37.415Z" transform="translate(-8.708 -26.313)" fill="#be8723" fill-rule="evenodd"/>
    <path id="Path_4159" data-name="Path 4159" d="M266.96,36.527h-1.693v.888h1.693Z" transform="translate(-20.845 -26.313)" fill="#be8723" fill-rule="evenodd"/>
    <path id="Path_4160" data-name="Path 4160" d="M219.351,39.191c1.521.487,2.9.084,4.518-.444C223.4,36.8,218.823,36.239,219.351,39.191Z" transform="translate(74.177 -26.313)" fill="#be8723" fill-rule="evenodd"/>
    <path id="Path_4161" data-name="Path 4161" d="M225.238,37.415c-.2,1.787,4.111,2.661,3.387,0C226.516,37.375,227.017,36.917,225.238,37.415Z" transform="translate(62.647 -26.313)" fill="#be8723" fill-rule="evenodd"/>
    <path id="Path_4162" data-name="Path 4162" d="M229.313,37.415c-.444,2.131,5.96,1.768,5.644,0C233.929,36.736,230.343,36.736,229.313,37.415Z" transform="translate(51.798 -26.313)" fill="#be8723" fill-rule="evenodd"/>
    <path id="Path_4163" data-name="Path 4163" d="M235.9,36.97c-.238.929.388,1.177.565,1.777C238.1,38.667,237.824,36.636,235.9,36.97Z" transform="translate(41.826 -26.313)" fill="#be8723" fill-rule="evenodd"/>
    <path id="Path_4164" data-name="Path 4164" d="M142.842,37.415c.545.9,2.167.959,3.95.889C147.247,36.614,144.125,37.738,142.842,37.415Z" transform="translate(237.615 -26.313)" fill="#be8723" fill-rule="evenodd"/>
    <path id="Path_4165" data-name="Path 4165" d="M213.836,39.191c1.131.151,1.766-.091,1.693-.887,1.179.255,1.61,1.1,3.387.887.071-.8-.692-.936-.564-1.776C216.26,37.546,213.517,37.164,213.836,39.191Z" transform="translate(85.339 -26.313)" fill="#be8723" fill-rule="evenodd"/>
    <path id="Path_4166" data-name="Path 4166" d="M203.292,39.635c2.353-.472,2.488-.115,5.08,0,.411-1.211-1.121-.894-1.13-1.776C205.334,38.9,202.97,36.84,203.292,39.635Z" transform="translate(107.737 -26.313)" fill="#be8723" fill-rule="evenodd"/>
    <path id="Path_4167" data-name="Path 4167" d="M211.553,37.859c-1.645-.653-1.645,1.985,0,1.332Z" transform="translate(96.652 -26.313)" fill="#be8723" fill-rule="evenodd"/>
    <path id="Path_4168" data-name="Path 4168" d="M380.289,40.523h-1.13v.889h1.13Z" transform="translate(-262.872 -26.313)" fill="#be8723" fill-rule="evenodd"/>
    <path id="Path_4169" data-name="Path 4169" d="M377.917,41.856c-.82.243-2.918-.519-2.823.443C374.672,43.992,378.75,43.261,377.917,41.856Z" transform="translate(-255.984 -26.313)" fill="#be8723" fill-rule="evenodd"/>
    <path id="Path_4170" data-name="Path 4170" d="M382.157,41.856v1.333c1.128.254,2.868.876,3.387-.89C383.818,42.621,383.487,41.846,382.157,41.856Z" transform="translate(-271.514 -26.313)" fill="#be8723" fill-rule="evenodd"/>
    <path id="Path_4171" data-name="Path 4171" d="M395.275,41.856c-1.643.386-.636.664-.565,1.776C397.1,43.6,396.046,42.617,395.275,41.856Z" transform="translate(-295.921 -26.313)" fill="#be8723" fill-rule="evenodd"/>
    <path id="Path_4172" data-name="Path 4172" d="M389.425,42.3c-.912-.124-.973.421-1.694.445-.413,1.212,1.122.894,1.13,1.776C390.3,44.475,390.194,42.866,389.425,42.3Z" transform="translate(-282.169 -26.313)" fill="#be8723" fill-rule="evenodd"/>
    <path id="Path_4173" data-name="Path 4173" d="M439.1,44.52c-.012,1.639.254,3.059,2.259,3.109a8.681,8.681,0,0,0,1.129-2.664C440.806,45.064,440.571,43.325,439.1,44.52Z" transform="translate(-392.81 -26.313)" fill="#be8723" fill-rule="evenodd"/>
    <path id="Path_4174" data-name="Path 4174" d="M443.587,45.409q.107,1.693,2.259,1.776c-.071-.8.692-.937.564-1.776A2.544,2.544,0,0,0,443.587,45.409Z" transform="translate(-401.81 -26.313)" fill="#be8723" fill-rule="evenodd"/>
    <path id="Path_4175" data-name="Path 4175" d="M434.964,47.185c-1.712-1.642-1.9,1.349,0,0Z" transform="translate(-379.073 -26.313)" fill="#be8723" fill-rule="evenodd"/>
    <path id="Path_4176" data-name="Path 4176" d="M465.548,51.627h2.258C468.2,49.873,465.428,50.172,465.548,51.627Z" transform="translate(-448.041 -26.313)" fill="#be8723" fill-rule="evenodd"/>
    <path id="Path_4177" data-name="Path 4177" d="M456.344,68.946c-1.541-.323-1.138.883-2.259.888C454.436,71.394,456.443,70.23,456.344,68.946Z" transform="translate(-423.595 -26.313)" fill="#be8723" fill-rule="evenodd"/>
    <path id="Path_4178" data-name="Path 4178" d="M45.473,93.816a1.581,1.581,0,0,0,1.693.889A1.579,1.579,0,0,0,45.473,93.816Z" transform="translate(447.313 -26.313)" fill="#be8723" fill-rule="evenodd"/>
    <path id="Path_4179" data-name="Path 4179" d="M48.982,114.245c-.223,1.065,2.572-.246,1.693,1.332,2.419-.382,4.1-.032,7.339-.443V113.8c-1.624-.953-4.486.089-6.209.444C50.4,114.2,50.056,113.414,48.982,114.245Z" transform="translate(432.515 -26.313)" fill="#be8723" fill-rule="evenodd"/>
    <path id="Path_4180" data-name="Path 4180" d="M65.454,128.012c.011,1.291,3.191,1.051,3.952.445C69.394,127.166,66.216,127.407,65.454,128.012Z" transform="translate(402.495 -26.313)" fill="#be8723" fill-rule="evenodd"/>
    <path id="Path_4181" data-name="Path 4181" d="M55.633,135.563H54.5c-.263.948.807.845,1.694.888C56.091,136.091,55.633,136.008,55.633,135.563Z" transform="translate(428.121 -26.313)" fill="#be8723" fill-rule="evenodd"/>
    <path id="Path_4182" data-name="Path 4182" d="M122.511,155.547c-.426-.591-5.519-1.114-5.08.444C119.991,155.575,120.812,156.1,122.511,155.547Z" transform="translate(290.687 -26.313)" fill="#be8723" fill-rule="evenodd"/>
    <path id="Path_4183" data-name="Path 4183" d="M67.732,159.544c1.331,1.429,2.281-1.562,0,0Z" transform="translate(400.217 -26.313)" fill="#be8723" fill-rule="evenodd"/>
    <path id="Path_4184" data-name="Path 4184" d="M58.947,163.1c1.2,1.422,3.929-.044,6.773.443.46.078.562.448,1.131.444.843-.006,1.826-.366,2.82-.444,4.453-.351,9.474-.2,14.111-.443-.071-.8.692-.937.565-1.777-.5-.273-1.008-.537-1.129,0-2.945-.564-8.411.141-11.852.444-1.254.11-3.652-.495-3.953.888-.391-.877-3.148.109-3.387-.888A40.159,40.159,0,0,1,58.947,163.1Z" transform="translate(394.891 -26.313)" fill="#be8723" fill-rule="evenodd"/>
    <path id="Path_4185" data-name="Path 4185" d="M81.942,163.1c-.095.962,2,.2,2.822.443C84.707,162.411,82.661,162.492,81.942,163.1Z" transform="translate(368.509 -26.313)" fill="#be8723" fill-rule="evenodd"/>
    <path id="Path_4186" data-name="Path 4186" d="M129.654,39.191c1.87-.434-.631-.878-.565-1.332,1.949-.349,2.484.414,2.824,1.332.982.437,1.438-.882,1.693-.887.637-.017,1.011.757,1.693.887,1.329.255,2.85-.4,4.515,0,.2.048.723.45.565.444.905.033.99-.487,1.693-.444-.029,0,3.834.331,3.952.444.6.58.243-.091,1.13,0,.905.094,1.747.278,2.822.445,1.131.174,1.086-.034,1.693.443.784.618,2.8-.417,3.387-.443.762-.035,1.732.811,2.258,0,.379-1.132-.957-.6-1.692-.889-.351-.134-.973-.851-1.13-.887-.3-.07-.692.443-1.128.443-.407,0-.627-.387-1.13-.443-.545-.063-1.156.091-1.694,0-.473-.082-.563-.381-1.129-.445-2.046-.232-4.193-.157-6.209-.444-.832-.119-1.01-.383-1.692-.445-4.1-.368-8.325-.151-12.42-.443-.883-.064-.984-.408-1.693-.444-2.283-.117-4.519.111-6.774,0-1.142-.057-2.773-.281-5.08-.445-.972-.069-1.851-.423-2.823-.444a.507.507,0,0,1-.564.444c-.136-.021,0-.5-.565-.444-.472.05-.549.451-1.128.444-1.646-.019-3.61-1.12-5.08,0-.33.281,2.957,1.67,3.95.889.848-.667.635.328,2.258.443,1.833.131,3.726-.092,6.209,0,.225,1.065-2.571-.245-1.693,1.334,1.238-.445,2.289.4,3.387.443.568.024,2.663-1.013,3.387-.443.037.028-.037.439,0,.443,1.646.185,4.558-.51,5.644.444C129.027,38.918,129.534,38.654,129.654,39.191Zm-6.774-1.332c-.128-.122-.928.063-1.13,0-2.64-.831,4.561-.558,3.387,0C123.06,37.848,123.472,38.427,122.879,37.859Z" transform="translate(269.432 -26.313)" fill="#be8723" fill-rule="evenodd"/>
    <path id="Path_4187" data-name="Path 4187" d="M461.687,129.789c-.2-1.52,2.266-.885,2.823-.888,2.615-.017,3.3.573,6.208,0,.518-.1,1.3-.162,2.823-.444.464-.086.557-.431,1.128-.445,1.084-.025,2.183.475,3.388.445s2.65-.442,3.952-.445c1.364,0,2.689.432,3.952.445a7.737,7.737,0,0,0,2.258-.445c.867-.142,2.174.294,2.258-.444.611-1.282-1.072-.4-1.694-.443.049,0-.2-.429-.564-.445-.918-.037-.966.353-1.693.445-.84-.339-1.149-.835-2.259-.889s-2.088.444-3.387.444c-.988,0-2.337-.428-3.387-.444-2.01-.031-3.931.724-5.645,0-1.811.39-1.169-1.152-2.257-1.332-4.965-.008-6.379-.052-10.161-.889a1.265,1.265,0,0,1,1.13-1.332c1.059-.312,1.851-.029,2.822-.444.614-.262.948-1.111,2.258-1.332,1.621-.274,4.928.412,7.338,0,.463-.079.556-.44,1.129-.444,1.089-.009,1.846.479,2.82.444,1.028-.037,2.441-.435,3.388-.444,1.335-.012,2.506.421,3.952.444,1.8.028,4.744-.7,7.9-.444,1.063.084,1.587.445,2.259.444,1.576,0,2.968-.484,4.515-.444,3.749.1,10.408.825,15.805.444,1.822.4.793-1.449,1.694-1.777a36.872,36.872,0,0,0,3.949-.888c1.022-.2,1.852.176,1.7-.888-1.764.591-5.563-.508-8.467-.444.078-2.677,4.137-1.166,6.772-1.333,1.266-.079,1.267-.75,2.259-.888-.729.1,1.106,1.732,1.129,0,.4-1.666-.95-.444-1.693-.444-.478,0-.885-.6-1.7-.444-.3.058-.626.449-.563.444-.681.051-1.019-.45-1.129-.444-2.053.12-2.766.764-4.517,0-.3-.13.075-.417-.564-.444-.783-.032-.85-1.689-2.258-.444-.036-.783.435-1.119,1.13-1.332.344-.106.634.546,1.128.444.1-.021.12-.394.564-.444,1.141-.131,1.1.019,1.694-.444,0,0,.961.411,1.129.444,1.257.248,2.755-.444,4.517-.444,1.278,0,2.19.364,3.387.444.916.061.982-.5,1.693-.444a.685.685,0,0,0,.564.444c2.286.1,4.749-1.839,6.774-2.221.642-.122,1.017.138,1.128.444,1.744-1.257-3.278-.948-3.95-1.776,1.438-1.151,2.1-.611,5.08-.889-.293-1.991-3.88-1.387-5.644-2.22-.747-.855.415-1.787-.566-3.109,1.147-2.8,9.834.335,9.6-3.552-4.678-1.157-7.057.044-10.16-1.333-.263-2.427,3.19-1.932,5.08-2.665-1.184-1.368-4.7.085-5.645-2.22,1.536-1.251,4.083-.762,6.208-.888.473-.029.551-.444,1.13-.444.54,0,2.49,1.124,3.95,0-.418-1.891-3.87-1.395-5.08-2.665,1-.84.412-2.934.565-4.441-2.4-.616-5.623-.333-9.031-.444-3-.1-6.336.588-7.9-.889-.448-3.015,4.615-1.7,3.95-4.884-.819-.688-2.889-.392-4.517-.445-1.813.391-.773-1.463-2.257-1.332-.8.038-1.6.073-1.694-.444-2.958.895-6.66-.4-10.16-.445-1.524-.429-2.724-1.113-2.823-2.664-2.858.472-2.848-1.312-4.517-1.776a13.235,13.235,0,0,1-4.515-.445c-.892-.3-.747-1.908-1.128-3.107-.188-.587-.935-.711-1.13-1.333-.216-.693.254-1.538,0-2.221a12.438,12.438,0,0,0-1.129-1.777c-.207-.367.22-.968,0-1.332-.061-.1-1.119-.4-1.128-.444-.04-.18.512-1.191.564-1.777.155-1.715-.807-3.752,0-5.329a15.193,15.193,0,0,0-3.388-.887c-.913.014-1.172-.995-1.693-1.333s-1.506-.3-1.693-.888c-2.008.1-3.383-.3-3.952-1.333,1.536-1.159,4.008-1.583,6.208-2.22.475-1.177-1.083-.543-1.693-.888-.411-.233-.705-1.172-1.129-1.333-.458-.175-1.223.159-1.693,0-.19-.063-.1-.347-.565-.443-1.053-.22-1.49-.275-2.258-.445a40.923,40.923,0,0,0-8.467-.888.63.63,0,0,0-.565-.444.59.59,0,0,0-.563.444c-.885-.019-1-.464-1.7-.444-1.008.028-1.2.486-2.258.444-.589-.023-.368-.414-.564-.444-.116-.018-1.354.771-1.693.444-.055-.052.068-.417,0-.444-.206-.077-.994.13-1.13,0-.685-.658-1.689,0-3.952,0-1.176,0-2.772-.461-3.95-.444.118,0-.25.431-.566.444-2.03.084-5.594-.062-8.466,0-2.006.69-.34-1.509-1.693-1.332-2.111-.475-1.609,1.1-3.388.888-1.775-.76-4.837-.262-7.9-.445a16.223,16.223,0,0,1-1.694,0c-.463-.079-.558-.444-1.129-.443-1.19,0-2.274.489-3.387.443-.967-.039-1.77-.338-2.823-.443-1.222-.124-2.946.461-3.95-.445-.344.767-2.677-.034-2.823.888-.871.178-1.44-.7-2.823-.888a15.33,15.33,0,0,0-3.388,0c-1.071.138-1.81-.127-1.692.888-1.08.388-1.312-.815-1.694-.888-1.172-.224-1.573.573-2.257.445-.838-.157-.98-1.053-2.258-.889-1.476.173-3.1.228-3.954.889a26.044,26.044,0,0,0-6.772-1.333,5.258,5.258,0,0,0-1.129,0c-.242.047-.705.446-.565.444-.429.008-.939-.437-1.694-.444.116,0-.228.444-.565.444-.469,0-1.318-.411-2.258-.444.164.006-.286.717-.564.444-.641-.631-1.443-.113-2.823.444-1.05.425-1.886-1.33-2.258,0-1.33-.137-1.05-1.542-2.823-1.331-4.192.779-7.5-.339-10.724-.445a1.583,1.583,0,0,1-1.694.888c-.119,1.575,2.648.877,2.258,2.665a13.784,13.784,0,0,0-1.128.887c-.421.025-.6-.433-1.13-.443-.837-.015-2.964.378-3.387-.444-1.037.594-2.113.437-3.387.444-1.188.006-1.487-.442-2.258-.444-.871,0-1.027.5-1.693.444-.48-.04-.93-.381-1.694-.444-1.853-.154-5.741-.2-7.338-1.332-.348.129-2.173,1.1-2.26,0-.234.082-3.113,1.99-4.514.888-.531-.418-.506-.017-1.694,0-3.393.049-9.859.457-13.546,0-.821-.1-1.932-.854-2.823-.888-.762-.03-2.128.4-2.822.443a104.745,104.745,0,0,1-15.241-.443,19.684,19.684,0,0,0-2.822,0c-1.7.106-3.875.474-6.775.443,0,0-.093-.518-.563-.443-.038.005-.163.4-.565.443a12.124,12.124,0,0,1-1.694,0c-.9-.04-2.357-.452-3.387-.443.125,0-.255.43-.565.443-4.875.2-12.284.282-18.062,0a14.96,14.96,0,0,1-1.694,0c-.464-.079-.556-.436-1.129-.443-1.677-.024-3.509.83-6.208.443-.551-.078-.841-.453-1.694-.443.122,0-.254.43-.565.443-.185.009-3.51-.346-3.952,0-.915.721-.421-.05-2.258,0-.9.026-1.912.453-2.822.445-.965-.008-1.727-.358-2.823-.445a121.465,121.465,0,0,0-14.112,0,15.664,15.664,0,0,0-1.693,0c-.44.075-.581.479-1.129.445-1.892-.115-2.4-1.142-5.08-.888a5.518,5.518,0,0,0-1.129,0c-.034.033-.811.749-1.129.443-.529-.508-.279-.038-1.129,0-2.474.111-5.036-.162-7.337,0a10.72,10.72,0,0,0-2.259,0,5.21,5.21,0,0,0-.565.889c-.895,0-.85-.611-2.258-.889-1.263-.249-.3-.2-2.258,0a20.008,20.008,0,0,1-2.258,0c-1.551-.019-3.085-.487-3.95-.443.2-.01-.4.41-.564.443-1.055.207-1.591.006-2.259.445a5.453,5.453,0,0,1-3.388-.888c-2.006.2-4.245,1.46-7.338.888-.473-.088-.556-.4-1.129-.445-1.3-.112-2.65.117-3.952,0-1.7-.151-4.741-1.435-6.208.445-.886-.191-.482-1.4-2.258-.888.833,1.987-1.653,1.364-1.129,3.109a15.34,15.34,0,0,0,5.08.443,1.247,1.247,0,0,1-1.129,1.333c-.886.11-1.038-.566-1.694-.445a1.084,1.084,0,0,1-.564.445c-1.016.2-4.683,1.326-5.645-.445-1.711.915-3.764-.029-5.644,0-2.58.04-5.034.7-7.9.889-1.733.115-4.561-.379-6.773,0-.463.079-.559.443-1.129.444-.914,0-2.074-.385-2.823-.444a31.337,31.337,0,0,0-5.08,0c-1.1.089-1.535.418-2.258.444a5.765,5.765,0,0,1-1.13,0c-.273-.054-.654-.449-.563-.444-.933-.052-.953.424-1.695.444a79.954,79.954,0,0,1-10.724,0,5.74,5.74,0,0,1-1.129,0c-.617-.593-.27.212-1.129.444-1.518.411-1.624-.712-2.823-.444-.485.357-.335,1.216-1.129,1.332a3.032,3.032,0,0,0-3.387.444c-.812-.1-.2-1.325-1.129-1.332-3.059.372-4.342-.16-6.208.444a1.577,1.577,0,0,0,1.693.888c-2,1.334-4.494.589-6.773,0-.185,1.04-2.463.431-2.823,1.332-1.175.309-1.5-.463-2.259-.443-.5.012-.871.482-1.694.443-2.211-.1-1.945-.453-4.514,0-1.183.209-1.974.079-3.953.445-.472.087-.558.387-1.128.444-.981.1-1.874-.523-2.823-.444a.688.688,0,0,1-.564.444c-.9.037-.981.295-1.694.444,1.721,1.233,5.435,1.173,9.031.889,2.435-.194,6.356-.215,10.162-.445,1.22-.074,2.715-.444,3.95-.444,1.1,0,2.33.356,3.388.444,2.243.187,4.88.033,7.337,0,.467-.007.553-.471,1.129-.444-.071,0,.214.429.564.444.144.006.962-.609,1.13-.444.984.968,2.7.159,4.515,0a44.515,44.515,0,0,1,6.773,0,22,22,0,0,0,5.08,0,27.557,27.557,0,0,1,4.515,0c1.1.088,1.544.422,2.258.444,1.073.032,1.814-.473,2.822-.444,1.189.034,2.321.462,3.388.444,1.223-.021,2.111-.348,3.388-.444a210.361,210.361,0,0,1,21.448,0,9.96,9.96,0,0,1,2.259,0c.522.411.29.144,1.129,0,1.144-.2,3.25.374,4.515-.444.791.182,1.173.681,2.259.888,1.2.229,2.93-.553,3.387.445,1.233-.067,1.615-.711,2.82-.889a53.572,53.572,0,0,1,6.775,0c1.177.038,1.475.408,2.257.444,1.118.051,1.608-.525,2.259-.444.9.112,1.9.862,2.823.889,3.261.093,6.873-.627,11.289-.445,1.784.073,4.284.683,7.338.445.775-.061,1.88-.42,2.822-.445,1.181-.03,2.241.428,3.387.445,1.966.027,4.66-.7,7.9-.445,1.939.153,6.175,1.029,9.6.445.452-.078.568-.463,1.129-.445,1.866.057,3.807.843,5.645.889,1.247.03,2.1-.361,3.387-.444,1.349-.088,2.659.459,3.95,0,1.736.115,2.539.963,3.953,1.331,2.02-.122,4.584-1.4,6.208-.444-.154.916-2.5.106-2.258,1.333-2.74-1.036-5.8.653-9.031.888-1.168.085-2.344-.43-3.388-.445-3.274-.047-6.069.859-9.031,0a1.353,1.353,0,0,1-.565-.443c-.389-.062-.933.593-1.694.443-.846-.166-.618-.9-2.257-.887-2-.24-1.389,1.572-3.388,1.332-.444-.425-2.811.553-3.388,0-.031-.03.035-.44,0-.445-1.2-.134-2.654.483-3.387-.443a8.076,8.076,0,0,1-2.257.888c-.5.121-1.219-.16-1.694,0-.245.083.012.393-.564.444-1.382.122-3.58.292-4.514-.444-1.739-.331-1.087,1.218-2.824.888-2.093-.164-3.465-.947-5.645-1.333-.753-.132-1.635.2-1.693-.443-1.253-.245-.8.848-1.693.888-1.707.024-2.429-.562-3.952-.888-.588-.126-1.06.06-1.129-.444-1.814-.391-.775,1.464-2.258,1.332-.8-.038-1.6-.073-1.694.444-2.394-.129-4.471.176-6.774,0-1.783-.136-4.854-.965-7.9-.444-.467.08-.555.433-1.129.444-.459.008-.556-.5-1.129-.444-.277.026-.734.429-.564.444-.78-.068-2.959-1.123-4.517,0-.719-.618-2.763-.193-2.82-1.332-1.541-.324-1.137.882-2.258.888-1.448-1.611-3.749-.1-5.645-.888-.635,1.425-3.841.827-5.08,1.776-1.652.116-1.733-1-3.387-.888-1.043.954-4.154.285-5.08,1.332-1.626-.836-3.232,0-5.644-.444a9,9,0,0,0-4.517,0,1,1,0,0,0-.565.444c-1,.1-1.194-.512-2.258-.444.188-.012-.382.408-.564.444a22.756,22.756,0,0,1-3.95,0,27.4,27.4,0,0,0-6.21,0,.636.636,0,0,1-.563.444.578.578,0,0,1-.565-.444c-.472.027-.551.44-1.13.444-2.3.016-6.26-.875-10.16-.444a2.111,2.111,0,0,0-.564,1.776c-2.652-.454-3.564.028-7.338,0a27.156,27.156,0,0,1-3.387-.887c-.379-.12-.611-.02-.565-.445-1.768-.207-1.591,1.117-2.258,1.776-2.034-.634-4.849.252-7.9.445-2.9.183-5.883.09-8.466.444-.876.12-2.167-.276-2.259.444-1.443-.02-.687.33-.564.888.612.11.382.883,1.129.889-.2.583-.993.7-1.129,1.332-.458.084-.564.445-1.128.444-.106.377.218.419.564.444a13.182,13.182,0,0,0,3.387.444c1.86-.051,3.8-.668,6.773-.444.188.014,5.848,1.334,6.774.444.614-.59.174.019.564,0,1.387-.066,2.507-.4,3.952-.444,5.557-.175,11.62.357,16.934,0,1.164-.078,2.34-.432,3.385-.444,1.24-.015,2.276.382,3.388.444,1.22.069,1.468-.453,2.258-.444.376,0,.668.365,1.128.444.533.091,1.153-.05,1.695,0,.466.043.553.471,1.128.444-.071,0,.215-.43.565-.444.9-.037.99.324,1.694.444,1.386.237,2.947-.24,3.95.888,1.015.163,1.619-.634,2.258-.888.912-.362,1.567-.213,2.259-.888,2.024-.112,2.069,1.334,3.952,1.332.339-1.46,2.111-.573,3.95-.888a9.272,9.272,0,0,1,3.388,0,34.181,34.181,0,0,0,5.644,0c1.451-.118,3.206-.724,5.644-.444.841.1,1.011.409,1.694.444,1.225.064,1.46-.444,2.258-.444.485,0,1.3.425,2.258.444,1.652.033,3.606.033,5.08,0a16.616,16.616,0,0,0,2.257-.444c.925-.064.972.48,1.694.444.792-.039,2.651-.761,3.95.444,2.072.215,5.558-1.647,5.645.888-.782,1.013-3.928.166-5.645.444-1.587.084-2.4.773-2.258,2.221-1.25.245-.8-.848-1.693-.888-.128-.639-1.684-.155-1.694-.888-.765.137-.468,1.111-.563,1.776-1.111.357-1.272-.777-1.694-.888-1.084-.288-2.6.368-3.388-.445-1.929.334-.716-1.8-2.822-1.332-.333.339-.98.191-2.259.444-.164.033.023.537-.564.445-.1-.016-.027-.623-.564-.445-.775.257-.5,1.384-1.694.445-.021-.017-.68-.867-.564-.889-1.537.287-.411,1.082-1.13,1.777-.713-1.067-4.451.245-5.079-.888-.377.576-1.441.171-2.259.443a8.667,8.667,0,0,0-1.128.89c-.28.039-1.443-.445-2.259-.445-1.95,0-2.739.655-5.078,0-1.828.549-.433-1.437-2.26-.888h-3.387c-.1.379,1.441.436,1.129.888a3.119,3.119,0,0,1-1.694.888c.123,0-.252-.431-.565-.443a2.951,2.951,0,0,1-.564,0c-.164-.053-.711-.46-.565-.445-.175-.018-1.276.772-1.693.445-.47-.372-1.424-.36-1.693-.89-.661.072-.477.811-.564,1.333a3.034,3.034,0,0,0-3.388.444c-2.46-.08.673-2.111-1.693-1.777.218,2.127-2.718-.763-2.823,1.333a10.111,10.111,0,0,0-6.209-.888,5.585,5.585,0,0,1-2.822.445c-1.227-.117-2.444-.6-3.388.443-1.5-.6-4.336-.142-5.079-1.333-.985,0-1.157.526-1.694.89-.412.278-1.078.326-1.13.887-1.776.215-1.277-1.362-3.385-.887-1.49-.137-1.455.927-1.694,1.776-.753-.74-3.2-.149-3.95-.889-3.579,1.2-6.511.187-10.162,1.332-1.539.324-1.136-.882-2.258-.888-.107-.36-.566-.442-.565-.888-.479-.082-.53.173-.564.444-.173,1.048-1.959.826-1.694,2.22,2.023.213,3.262.723,5.08,0,1.059.649,3.741.018,4.517.889,1.216-1.006,3.061-.729,6.21-.889a15.154,15.154,0,0,0,1.692,0c.315-.053,3.266-1.168,3.388.445,1.484.131.444-1.723,2.258-1.333,1.4-.065,2.739-.083,2.822.888-.653,1.522-2.974.73-4.514.889-2.441.251-5.011.748-7.338.888-1.411.085-2.631-.15-3.953,0-1.424.162-2.507.74-3.95.889-1.411.145-3.018-.232-4.517,0-4.576.708-8.435,3.1-12.417,2.219.122,1.625.775,1.7,0,3.11,0,.458-.707.311-1.13.443-.557.176-.423.86-1.128.889A6.32,6.32,0,0,0,66,79.605c-.44.159-1.145.209-1.694.444-.39.167-.789.721-1.129.889a3.164,3.164,0,0,1-1.693.443c.466,1.255-.8,1.151-.566,2.221-3.628,1.437-6.363,3.579-10.157,4.885-.364.379-.119,1.489-.566,1.776-.078.049-.518-.062-.564,0-.12.164.174.776,0,.889-1.041.67-.545.252-1.129,1.777-.16.414-.377.739-.565,1.331-.1.314-.548.386-.564.445-.42,1.533-.173,3.462-.565,4.885-.021.079-.54.064-.565.444-.017.25-.416.883-.564,1.332.019-.061.8.572.564.888-.123.169-1.432-.094-1.129.445a9.564,9.564,0,0,1,.565,2.22c.05.733-.541.75-.565,1.333a1.3,1.3,0,0,0,.565.887c-.3,1.347-1.652,1.215-1.129,3.11.093.335.622.465.564.888-.115.831-.912,1.1-1.128,1.776-.1.318.7.469.564.888-.036.108-.53.047-.564.444-.085.952.466,1.445.564,2.22.122.962-.6,1.162-.564,1.777-.01-.181.525.324.564.444.263.83-.277,2.959,0,4.441.136.736,1,1.79,1.129,2.665.111.773-.575.954-.565,1.776.009.719.362,1.042.565,1.776.077.283-.089.61,0,.889.111.346.53.344.564.445.185.549-.21,1.232,0,1.776.084.214,1.084.744,1.13.888.423,1.319.138,2.889.564,4,.052.139.536.018.565.444A10.577,10.577,0,0,0,49.629,140c.08.159-.156.789,0,.889a4.82,4.82,0,0,1,1.13,2.22c0,.025-.756.5-.566.889.09.184.572-.033.566.444-.011.756-1,1.613-1.13,2.22a4.56,4.56,0,0,0,0,1.776c.1.345.6.457.564.889,0-.051-.547.164-.564.444a1.874,1.874,0,0,1,0,.443c-.063.179-.556,1.078-.566.889.043.786.955,1.345,1.13,2.221.145.723-.811.484,0,1.776a4.006,4.006,0,0,1,2.258.444c.238.109.951.847,1.129.888,2.187.5,5.52-.413,7.337.889-.365,1.584-3.355.016-5.078,0-1.133-.151-1.767.091-1.7.887-1.008-.539-3.284-.081-3.95-.887-1.3,1,1.39,1.5,2.258,1.776.2.063,1-.122,1.129,0,.592.569,1.389.2,3.388.444,1.823.222,4.207.964,6.773,1.333,1.4.2,2.683.3,3.952.444,1.211.14,2.295.387,3.385.444a11.431,11.431,0,0,0,2.258,0,13.842,13.842,0,0,1,4.517,0c1.057.14,1.8.351,2.823.443.427.039.58-.469,1.128-.443-.071,0,.215.429.564.443a19.328,19.328,0,0,1,2.258,0c.473.082.555.415,1.129.445.935.048.954-.424,1.695-.445.961-.026,1.253.357,2.258.445-.113-.009.179-.505.564-.445.08.014.1.423.565.445a132.128,132.128,0,0,0,14.112,0c.77-.051,2-.444,2.822-.445,1.924,0,5.883.809,9.6.445-.115.011.264-.739.565-.445.024.025-.021.445,0,.445,2.723,0,5.525.182,7.9,0a18.276,18.276,0,0,1,4.515,0c-.186-.018.3-.7.566-.445.528.519,2.037.532,3.95.445.415-.018.615-.551,1.129-.445.157.034.024.44.564.445,2.741.023,5.49-.254,7.905-.445,7.9-.624,17.44.478,25.964,0a15.684,15.684,0,0,0,1.694,0c1.258-.215,1.077-.129,3.385,0a44.642,44.642,0,0,0,6.774,0c2.651-.293,6.3-1.878,9.6,0,1.738.332,1.084-1.219,2.824-.887,1.622-.092,2.867.112,3.387.887,1.59-.991,3.223-.224,5.079,0a105.351,105.351,0,0,0,16.933,0c.984-.071,1.776-.734,2.824-.887,2.876-.423,6.854-.058,10.16,0a12.927,12.927,0,0,1,2.258.444c.433.042.585-.557,1.128-.444.157.033.028.437.565.444.929.01.954-.4,1.694-.444,1.131-.069,1.536.489,2.823.444-.087,0,.225-.431.564-.444,4.782-.2,13.335-.309,18.628,0,1.105.064,1.549.44,2.258.444.974,0,1.241-.356,2.258-.444-.114.009.179.505.565.444.078-.013.1-.422.565-.444,1.718-.086,3.484.111,5.079,0,1.412-.1,2.136-.443,3.387-.444,2.246,0,5.023.533,8.467.444-.14,0,.275-.729.565-.444.609.6.2-.038.563,0,.525.052.851.537,1.695.444.754-.084,1.994-.255,2.823-.444.884-.2.609-.053,1.128-.445.322-.242,2.165-.293,2.823-.888,2.662.866,5.615.338,8.467.444,1.13.042,1.533.446,2.259.444,1.9,0,3.459-.874,5.644-.444.747.147.89.757,1.693.889a22.3,22.3,0,0,0,5.08,0,10.35,10.35,0,0,0,4.515-1.333c1.926.39,5.6-.717,6.774.444.193.192-.009.562.563.444,1.739.331,1.086-1.219,2.823-.888,1.351.271,4.1-.557,4.517.444.481-.285,1.892-.092,2.257-.444.035-.032-.037-.439,0-.444.488-.071,1.825,1.3,2.258,0,.912.616,2.912.376,3.389,1.332.939-.272,1.311-1.3,3.388-.888.238.048.7.447.563.444.42.008.949-.429,1.694-.444,1.466-.029,3.066-.1,3.952,0a28.079,28.079,0,0,1,3.387.888,5.616,5.616,0,0,1,2.822-.888,52.278,52.278,0,0,1,12.982.444c-.208-.032.314-.691.565-.444.342.337.425.839,1.129.888,1.008.07,1.2-.577,2.258-.444,1.218.154,2.147.838,3.387.889,1.153.047,2.123-.389,3.387-.445,1.72-.076,3.949,1.071,5.082-.444,2-.24,1.388,1.572,3.385,1.333.157-.913,1.51-.887,2.259-1.333,2.957.348,4.306-.485,6.773,0,.638.126.209.271.565.444.068.033,1.356.884,1.13.889,1.71-.038,2.095-2.427,4.514-1.333,1.251-.244.8.848,1.694.889a4.2,4.2,0,0,0,1.693.888c2.184.386,2.009-1.085,3.387-1.333,1.93-.333.718,1.8,2.823,1.333-.411-1.212,1.121-.894,1.13-1.777,3.825.808,8.884.51,13.546.889a24.327,24.327,0,0,0,5.644.444c.973-.094,1.223-.477,2.257-.444,1.359.041,1.061,1.166,1.694.444.368-.058.676.623,1.129.444.414-.162-.232-.8.565-.888,1.25-.133,1.8.341,2.824.444,1.312.131,3.115-.382,3.95.444.193.192-.007.561.565.443,8.067.408,18.526.58,26.529,1.333a25.89,25.89,0,0,0,4.515,0c1.3-.1,2.576-.776,4.515-.443.476.08.555.4,1.13.443,1.236.092,1.451-.443,2.258-.443.172,0,3.71,1.135,5.08.443.41-.207.328-1.383.565-1.776-3.437.06-4.783.6-7.9,0,.166-.639,1.425-.32,2.258-.444.267-.04,2.3-.942,2.823-.444.6.577.242-.088,1.128,0a9.305,9.305,0,0,1,2.259.444c.728.251,1.243.028,1.13.887,1.11.357,1.268-.775,1.692-.887,1.544-.41,5.213.357,5.08-1.777-.45-.042-.571-.5-1.129-.444-.275.027-.736.429-.563.444a12.913,12.913,0,0,0-2.26-.444c-.1,0-.582.608-1.129.444-.233-.07.04-.444-.565-.444-1.166,0-1.511.457-2.257.444-.987-.016-1.228-.359-2.259-.444-2.656-.22-5.8.176-8.467,0-.416-.027-4.25-1.1-5.079-.444-.537.422-.5.009-1.695,0-.626-.005-.344.409-.563.444a16.638,16.638,0,0,0-2.823-.444c-3.268-.033-6.33.112-9.6,0a15.281,15.281,0,0,1-2.258-.445c-.434-.042-.585.558-1.128.445-.142-.029-.055-.42-.565-.445s-6.757-.558-7.338,0-.913.121-2.822,0c-2.259-.142-5.486.2-8.469,0-.767-.05-2-.443-2.823-.443-.992,0-1.754.359-2.82.443a72.3,72.3,0,0,1-9.6,0c-1.449-.084-2.414-.878-4.517-.443-.268.055-.463.547-1.128.443.3.048-.608-.466-.565-.443a9.729,9.729,0,0,0-1.692-.889,4.61,4.61,0,0,1,2.257-.888c.43-.052.585.557,1.128.444.168-.035.007-.457.566-.444,1.193.028,2.274.455,3.387.444,1.922-.018,3.436-.711,6.208-.444a17.2,17.2,0,0,0,2.259.444c-.141,0,.268-.431.564-.444a55.812,55.812,0,0,1,5.644,0c1.2.075,2.27.445,3.388.444a.513.513,0,0,1,.565-.444c.137.022,0,.519.565.444.05-.006.119-.426.565-.444.576-.023,3.358.019,4.515,0,.281-1.4-1.231-1.736,0-2.664.675.343.976-.437,1.127-.444.436-.021.581.444,1.131.444.463,0,.554-.471,1.128-.444-.071,0,.214.43.565.444.563.023,2.22-.46,3.388-.444s2.048.37,3.387.444c3.358.183,7.944.091,11.852,0,.853-.02,1.038-.492,1.694-.444a.681.681,0,0,0,.563.444c3.952.163,10.04-.522,14.676,0a5.6,5.6,0,0,1,1.13,0c.6.581,1.372.176,2.823-.444,1.234.107,1.784.728,2.822.888a23.755,23.755,0,0,0,4.518,0c1.091-.086,1.828-.454,2.822-.444,1.754.017,3.093,1.287,3.95.444.3-.3.7.414.565.443,1.51-.346,1.142-1.352,2.822-.887-.616-1.966.956-2.209,1.129-3.553a32.232,32.232,0,0,0-7.338-.444c-1.266.089-2.184.44-3.387.444-2.73.006-6.648-.458-10.725-.444-.464,0-.553.47-1.13.444.073,0-.212-.43-.564-.444-.436-.019-2.663.111-3.952,0-2.984-.259-8.407-.441-12.982-.445.15,0-.279-.723-.564-.444-.658.647-5.444.639-7.9.444-1.131-.089-1.789-.406-2.822-.444-6.887-.251-13.472.268-19.757-.887,1.145-3.183,6.641-1.428,9.6-1.333,3.744.121,8.177-.229,12.417,0,.993.053,2.57.477,3.387.444-.079,0,.22-.43.566-.444.412-.017.993-.367,1.692-.444,3.031-.337,7.025,0,10.726,0,3.411,0,7.227-.194,10.159,0,6.5.43,17.068.912,24.837,0-.365-.452-1.3-.46-1.129-1.332-2.859-.029-4.674.763-7.9.443-1.449-.044-.908-1.655-1.693-2.22a40.147,40.147,0,0,0-8.467-.444c-.767-.138-.47-1.112-.565-1.776-.347-.616-2.173-.068-2.259-.888-.436-1.789,2.87-1.787,5.08-2.221.21-.042.75-.442.565-.445,1.428.024,2.326,1.025,3.387.889.869-.893,2.422-.388,3.387-.444-.193.011.388-.409.565-.445.947-.185,1.226.551,2.258.445a.7.7,0,0,1,.565-.445c.426-.017.61-.379,1.128-.443,1-.124,1.2.579,2.259.443.045,0,.125-.426.564-.443.454-.02.574-.41,1.129-.445.425-.026.588.445,1.129.445.464,0,.554-.486,1.131-.445-.127-.008,2.7,1.1,3.385.445.532-.511.277-.033,1.129,0,.939.035,1.883-.028,2.822,0,.467-1.256-.8-1.151-.564-2.221-1.287.124-2.122-.107-2.258-.888h-5.645c-1.327-.14-.335-2.106-2.258-1.777-.1.377.22.419.566.444a.283.283,0,1,1-.566,0c-.655.073-1.006-.1-1.129-.444-.513-.273-2.445.363-2.822,0-.7-.67-.8-.123-1.694,0,.172-.023-.225-.5-.563-.443-.089.013-.09.426-.566.443-.44.016-.916-.472-1.693-.443-.5.017-.875.469-1.694.443-1.23-.038-2.347-.3-4.517-.443a10.12,10.12,0,0,1-1.129,0c-.275-.055-.655-.45-.563-.444-.921-.051-.977.482-1.694.444-.992-.054-1.224-.352-2.26-.444-1.46-.133-3.083.022-4.515,0-1.722-.028-.722-.3-2.258,0a6.35,6.35,0,0,1-1.129,0c-1.721-.021-.721-.3-2.257,0-1.258.247-1.384-.629-2.823-.445-.045.005-.124.426-.565.445-.614.024-2.031-.291-3.388-.445-.4-.045-1.993.207-2.257,0-.607-.477-.96-.117-2.822,0-1.6.1-3.5.08-5.645,0C463.051,130.2,461.793,130.444,461.687,129.789ZM180.018,44.52c-.886-.041-1.956.06-1.692-.888h1.129C179.453,44.078,179.913,44.162,180.018,44.52Zm-75.072,4c-.134-.635-.93-.749-1.129-1.333.844.076,2.081-.159,2.257.444C105.328,47.634,105.558,48.407,104.946,48.518Zm104.99,15.987h-2.258V63.173C209.092,63.1,209.444,63.855,209.936,64.505Zm-7.9,1.332c-1.241.983-1.875-.778-3.387-.888-.764.14-1.079.632-2.259.445-.167-.906-1.528-.871-1.692-1.777C197.027,63.1,201.69,63.432,202.034,65.837ZM193,64.505c-.392.348-3.15.989-3.388,0C190.677,64.137,192.547,62.866,193,64.505Zm290.7,97.26c-1.6-.367-1.462.625-2.822.443-1.122,0-.718-1.21-2.258-.887-.232.557-.728.906-1.695.887-.118-.536-.625-.273-1.128,0a1.537,1.537,0,0,1-1.13-.887C476.814,160.56,482.262,160.542,483.7,161.765Zm-12.417,0h-1.129v-.888h1.129Zm-6.209-.888c1.349.269,4.1-.558,4.517.444C468.434,162.178,465.891,161.622,465.074,160.877Zm-9.031.888c-1.287.124-2.122-.107-2.258-.888C454.785,160.978,456.611,160.429,456.043,161.765Z" transform="translate(-43.975 -26.313)" fill="#be8723" fill-rule="evenodd"/>
  </g>
</svg>
