<svg xmlns="http://www.w3.org/2000/svg" width="20" height="20" viewBox="0 0 20 20">
  <path id="Instagram" d="M32.484,36.369A2.684,2.684,0,1,0,29.8,33.685,2.7,2.7,0,0,0,32.484,36.369ZM38.293,28.5a1.471,1.471,0,1,0-1.471-1.471A1.475,1.475,0,0,0,38.293,28.5Zm-.4,5.184a5.4,5.4,0,0,1-10.809,0,5.963,5.963,0,0,1,.294-1.8h-2.61V39.2a2.291,2.291,0,0,0,2.279,2.279h10.4A2.291,2.291,0,0,0,39.726,39.2V29.6H36.013a5.427,5.427,0,0,1,1.875,4.081ZM42.3,41.149A3.044,3.044,0,0,1,39.249,44.2h-13.9A3.068,3.068,0,0,1,22.3,41.149v-13.9A3.068,3.068,0,0,1,25.351,24.2h13.9A3.044,3.044,0,0,1,42.3,27.251v13.9Z" transform="translate(-22.3 -24.2)" fill="#be8723"/>
</svg>
