<svg xmlns="http://www.w3.org/2000/svg" width="185.109" height="122.846" viewBox="0 0 185.109 122.846">
  <path id="Path_4216" data-name="Path 4216" d="M633.874,542.8c1.219-1.721,1.809-4.229,4.55-3.335,1.843-.467,2.168-1.2,1.242-2.681-.962-1.538-1.6-3.27-3.909-1.761-.389.254-1.044.1-1.576.136-6.52.451-12.867-1.243-19.309-1.766-5.975-.485-11.884-1.939-17.967-2.259-7.254-.382-14.4-2.134-21.739-1.928a16.342,16.342,0,0,1-5.172-.9c-6.685-2.077-13.661-1.237-20.469-2.121-4.366-.567-8.889.17-13.024-2.068a9.277,9.277,0,0,0-3.175-.479c-4.53-.549-9.1-.563-13.637-1.2-4.121-.576-8.232-1.312-12.474-1.164-8.074.281-16.163.4-24.073-1.885-3.22-.933-6.552-1.378-9.267-3.665a5.341,5.341,0,0,0-5-.925c-1.755.49-2.192,1.821-.743,2.927,3.168,2.42,5.647,5.482,9.226,7.633a387.052,387.052,0,0,1,35.609,24.754c10.413,7.974,19.492,17.534,30.422,24.885,6.39,4.3,12.549,8.942,18.888,13.328,7.33,5.073,14.951,9.723,21.876,15.4,2.353,1.929,1.85,2.767.279,4.494a19.89,19.89,0,0,0-3.091,3.733c-.389.718-.791,1.539.058,2.162.694.51,1.261-.124,1.788-.507a13,13,0,0,0,3.039-3.764c.888-1.382,1.554-2.79,3.737-2.217,1.266.332,2.262-.525,1.452-1.9-1.062-1.8-.217-3.069.76-4.412,1.905-2.618,3.851-5.208,5.7-7.865,1.588-2.284,1.769-2.359,4.094-.724,6.3,4.428,12.763,8.6,19.454,12.416a38.393,38.393,0,0,0,4.809,2.151,1.738,1.738,0,0,0,2.22-.362c.481-.661-.06-1.266-.364-1.847-.684-1.309-2.207-2.861-1.9-3.869.717-2.391-.109-4.491-.282-6.7-.833-10.635-.933-21.319-2.151-31.928-.152-1.326-.414-2.627.379-3.928C627.355,553.357,630.279,547.873,633.874,542.8Zm-26.226,33.011a38.28,38.28,0,0,1-4.055,6.052,101.661,101.661,0,0,0-9.677,13.493,37.118,37.118,0,0,1-4.206,5.451,2.936,2.936,0,0,1-3.605.821A9.4,9.4,0,0,1,583,599.8c-5.971-5.122-12.717-9.124-19.222-13.494-6.488-4.358-13.117-8.524-19.219-13.478-3.762-3.054-7.974-5.6-11.5-8.935-8.355-7.906-17.686-14.623-26.519-21.943-4.239-3.513-9.1-6.269-13.671-9.388-1.516-1.035-2.988-2.132-4.48-3.2l.587-.97c3.889,2.188,8.324,2.6,12.416,4.449,4.376,1.975,9.068,3.345,13.5,5.337,5.032,2.262,10.221,4.179,15.239,6.47,6.421,2.929,13.32,4.478,19.835,7.122a64.746,64.746,0,0,1,7.394,3.292c2.836,1.586,6.236,1.53,9.227,2.892,4.674,2.128,9.814,2.994,14.606,4.727,7.064,2.554,14.394,4.553,20.911,8.522a25.793,25.793,0,0,0,4.526,1.752C608.115,573.5,608.412,574.47,607.648,575.807Zm14.27,20.39c-3.307-7.725-8.051-14.393-9.005-22.6-.272-2.343-1.841-3.228-3.7-3.762a153.259,153.259,0,0,1-17.907-6.481c-11.963-5.126-24.656-7.989-36.895-12.232-6.371-2.209-12.679-4.646-18.854-7.421-4.175-1.877-8.587-3.229-12.892-4.82-.717-.265-1.61-.306-1.879-1.537a2.235,2.235,0,0,1,2.554.034c2.975,1.621,6.423,1.775,9.484,3.178,2.6,1.19,5.583.4,8.323,1.418,9.341,3.479,19.313,4.88,28.6,8.609,2.728,1.1,5.809.78,8.714,1.617,8.4,2.416,16.862,4.734,25.432,6.416,4.609.9,9.021,2.771,13.764,2.92,1.9.06,2.594.914,2.711,2.728.191,2.961.7,5.888.873,8.865.354,6.2.16,12.438.983,18.621A6.787,6.787,0,0,1,621.918,596.2Zm.249-40.292a5.733,5.733,0,0,1-6,2.192c-6.8-1.077-13.4-3.114-20.232-4.031-1.97-.265-3.816-1.352-5.771-1.863-17.389-4.54-34.841-8.832-52.285-13.162a188.169,188.169,0,0,1-22.083-6.677,98.233,98.233,0,0,0-24.3-6.073c-3.248-.359-6.077-2.048-9.091-3.387,5.357.586,10.643,1.53,16.026,1.636,15.3.3,30.425,2.5,45.593,4.264,12.613,1.468,25.155,3.526,37.825,4.507,11.994.929,23.969,1.975,35.865,3.876,4.258.681,8.613.776,12.84,1.763,2.3.536,2.577,1.008,1.28,2.941C628.677,546.6,625.825,551.517,622.167,555.905Z" transform="translate(-377.217 -574.572) rotate(8)" fill="#172553" opacity="0.5"/>
</svg>
