<svg xmlns="http://www.w3.org/2000/svg" width="139.188" height="137.679" viewBox="0 0 139.188 137.679">
  <path id="Path_4215" data-name="Path 4215" d="M4.617,77.181C6.055,70.431,6.6,63.318,9.3,56.922c.865-2.051,2.2-6.568,4.487-7.405,1.952-.713,4.652.82,5.458,2.589,2.126,4.664-4.619,11.919-2.129,16.309.487-2.236,1.031-4.335,1.536-6.187,1.8-6.6,2.531-13.274,3.7-20,1.162-6.658,3.494-12.821,5.2-19.318A47.954,47.954,0,0,1,37.071,4.671C41.09-.288,47.551-.467,53.453.4c5.74.843,10.618,3.676,12.794,9.323,2.245,5.821.42,11.978-.51,17.856C63.551,41.4,57.8,54.183,55.171,67.865c-1.355,7.065-2.277,14.308-4.492,21.184-2.189,6.8-5.3,13.306-7.5,20.105-1.12,3.453-1.814,6.019-4.106,8.893a54.458,54.458,0,0,1-6.691,6.86c-4.708,4.143-10.317,4.208-16.229,2.6C2.493,123.783-1.284,110.806.36,98.163,1.277,91.1,3.133,84.143,4.617,77.181Zm7.1-12.8c1.74-2.333,2.1-3.4,2.558-7.747A13.478,13.478,0,0,0,11.718,64.385ZM29.55,29.852c-.657,1.119-1.108,1.78-.512,2.791C29.875,31.931,29.791,31.1,29.55,29.852Zm28.323,13.54c1.069-3.494,2.082-7.006,2.969-10.55,1.49-5.954,3.945-13.615,2.684-19.778C61.855,4.9,49.84-.148,43.375,5.53c9.374.251,17,1.543,18.271,12.339.652,5.535-1.374,10.842-2.609,16.163C57.7,39.8,56.494,45.616,54.627,51.248,56.7,50.388,57.219,45.53,57.873,43.392ZM50.583,69.61A54.652,54.652,0,0,0,46.22,86.767C49.7,81.553,49.148,75.334,50.583,69.61ZM40.511,89.289C43.175,74.816,47.54,60.537,51.15,46.257c1.84-7.276,3.9-14.538,5.482-21.875,1.118-5.2,2.055-11.6-3.849-14.137C39.675,4.6,36.523,19.21,34.5,28.583c-2.968,13.758-7.3,27.343-9.472,41.256-.747,4.773-2.609,12.921,1.291,16.823,5.875,5.879,6.051-3.87,6.5-7.573Q34.128,68.337,36.4,57.731c1.031-4.787,1.7-14.457,8.151-15.12,8.139-.837,2.9,10.247,1.692,13.695a139.626,139.626,0,0,0-5.19,20.288C40,82.142,39.155,90.787,35.358,95.2c-3.026,3.514-9.867,3.949-13.476,1.156-7.674-5.936-6.912-17.633-4.932-27.136-3.547,4.8-4.408,12.554-5.637,18.177C9.091,97.56,5.86,115.347,20.242,117.17,32.714,118.749,38.8,98.6,40.511,89.289ZM23.293,90.564c1.151,3.474,1.151,3.474,5.622,3.631ZM41.78,53.688c1.173-1.607,1.672-3.4,2.192-6.077C41.4,49.711,41.817,51.763,41.78,53.688ZM4.3,112.094c1.082,5.16,5.44,8.97,10.176,10.875,5.025,2.021,11.021,2.9,15.391-.723,4.547-3.765,8.074-8.508,9.112-14.427-5,8.228-11.991,16.548-22.733,13.476C5.161,118.122,4.205,105.361,5.345,95.572,2.414,99.552,3.347,107.529,4.3,112.094Z" transform="matrix(-0.695, 0.719, -0.719, -0.695, 139.188, 89.252)" fill="#172553" opacity="0.5"/>
</svg>
