<svg xmlns="http://www.w3.org/2000/svg" width="158.178" height="208.796" viewBox="0 0 158.178 208.796">
  <path id="Path_4217" data-name="Path 4217" d="M682.09,712.6a70.447,70.447,0,0,0-.006-11.916,69.586,69.586,0,0,0-6.151-21.781c-3.134-6.732-7.527-12.416-14.882-14.934a2.525,2.525,0,0,1,.685-1.731c3.261-4.9,6.253-9.961,9.166-15.074a5.349,5.349,0,0,0,.255-5.617,26.5,26.5,0,0,0-1.338-2.336,1.851,1.851,0,0,1-.095-2.22,7.006,7.006,0,0,0,.421-6.6,1.689,1.689,0,0,1,1.278-2.517c.776-.19,1.675-.121,1.724-1.231a5.076,5.076,0,0,0,.013-2.364,11.439,11.439,0,0,0-6.868-6.687c-2.713-.926-5.6-1.42-7.4,1.955-.809,1.515-2.043,1.989-3.984,1.677-2.756-.444-5.647-.407-6.9,3.107a2.259,2.259,0,0,1-3,1.272,4.9,4.9,0,0,1-2.695-1.163c-.926-1.055-1.778-.6-2.527.21a12.091,12.091,0,0,0-1.013,1.475c-3.193,4.679-5.826,9.781-10.244,13.536a10.765,10.765,0,0,0-.974,1.135c-3.673,4.152-2.012,3.882-7.557,1.705-1.754-.688-3.04-.638-4.357.559a17.81,17.81,0,0,0-2.142,2.086c-3.437,4.4-6.814,8.845-10.236,13.256a3.645,3.645,0,0,0-.4,4.187c.662,1.336,1,2.948,1.97,3.991,1.847,1.995.927,3.388-.328,5.123-4.9,6.783-9.747,13.61-12.932,21.444-.5,1.233-.55,2.714-1.925,3.6-.766.494-.507,1.442.1,2.107a8.389,8.389,0,0,0,1.318,1.217c1.3.915,1.281,1.792.2,2.923-2.2,2.3-4.29,4.707-6.492,7.006a3.26,3.26,0,0,0-.873,2.927,16.79,16.79,0,0,0,4.338,9.936c2.633,2.97,5.682,4.976,9.806,4.927,1.981-.023,3.782-.36,4.806-2.354,1.938-3.778,5.012-6.672,7.713-9.856.556-.656,1.149-1.109,2.061-.753,2.471.967,5.123.712,7.67,1.15a5.265,5.265,0,0,0,3.682-.787c3.072-1.736,4.867-4.681,6.986-7.282,3.656-4.49,6.635-9.471,9.881-14.259,1.678-2.476,3.477-4.874,5.317-7.232,1.113-1.426,1.632-1.407,2.795.033,1.875,2.321,3.86,4.562,4.988,7.412,2.043,5.166,2.486,10.651,3,16.062.805,8.421-1.1,16.532-4.449,24.191-5.4,12.348-14.551,19.461-28.538,19.248a22.336,22.336,0,0,0-3.287.13,38.569,38.569,0,0,1-16.244-1.652,20.606,20.606,0,0,1-7.64-4.522c-.567-.495-1.279-1.015-.893-2.206a16.559,16.559,0,0,1,5.688,1.232,3.374,3.374,0,0,0,3.376-.428c1.463-.958,2.533-2.827,2.21-3.973-.443-1.57-1.894-1.6-3.12-1.9-5.17-1.265-10.124-3-14.489-6.18a20.113,20.113,0,0,0-3.412-1.86c-7.4-3.43-15.125-6.254-21.634-11.392a1.227,1.227,0,0,0-2.134.6c-.642,1.887-1.179,3.813-1.709,5.735a3.367,3.367,0,0,0,1.942,4.226,42.761,42.761,0,0,0,5.052,2.572c2.13.72,2.33,1.06,1.87,3.356-.718,3.582.065,7.17-.251,10.747a3.89,3.89,0,0,0,.779,2.53,27.506,27.506,0,0,0,5.327,6.042,61.866,61.866,0,0,0,12.241,7.421,18.546,18.546,0,0,0,4.743,1.756c2.565.426,4.535,2.034,6.842,2.938a1.671,1.671,0,0,1,1.054,1.673c-.016,1.892-.005,3.789-.141,5.674a1.787,1.787,0,0,1-2.255,1.778c-1.19-.137-2.385-.286-3.58-.307-6.667-.114-13.364.647-19.977-.983-1.717-.424-2.36.25-2.514,2.071-.134,1.583.079,3.2-.073,4.777-.324,3.376-.754,6.743-1.206,10.1-.183,1.362.249,2.115,1.655,2.236a40.363,40.363,0,0,0,5.067.422c6.326-.266,12.462,1.6,18.76,1.563a3.1,3.1,0,0,1,.867.212c5.074,1.518,10.318,2.235,15.489,3.3,2.66.549,5.351-.039,8.048.4a79.465,79.465,0,0,0,13.116.908c6.791-.029,13.561.169,20.2,1.869,2.6.667,4.27-.076,5.16-2.688,1.64-4.81,3.052-9.7,4.46-14.585a1.8,1.8,0,0,0-2.088-2.42c-1.945.566-3.771-.067-5.647,0-6.756.238-13.229-1.754-19.849-2.606a1.6,1.6,0,0,1-1.517-2.1c.417-2.456.468-4.949.8-7.421.493-3.639,2.269-5.365,5.921-6.073,7.916-1.536,13.87-6.224,18.712-12.542,2.12-2.766,4.5-5.342,6.858-7.915a25.1,25.1,0,0,0,6.06-9.842,10.414,10.414,0,0,1,1.152-2.422c3.086-5.055,5-10.64,7.238-16.074A15.606,15.606,0,0,0,682.09,712.6Zm-22.13-91.061a7.79,7.79,0,0,1,1.311-1.208c2.031-1.326,3.822-.305,5.489.771,1.476.952,3.083,1.928,3.041,3.854-.4,2.021-2.036,2.832-3.6,1.888-2.041-1.233-4.018-2.57-6.028-3.855C659.533,622.581,659.435,622.093,659.96,621.541Zm-9.216,2.9a6.023,6.023,0,0,1,4.028-.39,15.346,15.346,0,0,1,1.728.653,53.665,53.665,0,0,1,9.745,6.328,4.122,4.122,0,0,1,1.737,3.326,1.166,1.166,0,0,1-.446,1.053c-.413.262-.721.015-1.04-.249a35.458,35.458,0,0,0-13.691-7.027,13.311,13.311,0,0,1-1.952-.754c-.616-.274-1.44-.463-1.357-1.343A2.223,2.223,0,0,1,650.744,624.439Zm-43.662,33.224c2.8-3.5,5.445-7.121,8.222-10.639.9-1.146,1.875-2.375,3.205-2.236.729.216,1.017.3,1.3.387,2.711.848,2.973,1.376,1.333,3.607-3.829,5.209-7.248,10.724-11.59,15.553-1.352,1.5-1.719,1.474-2.758-.321C605.531,661.828,605.388,659.779,607.082,657.664Zm-18.475,59.569c4.108.87,6.967,3.14,9.4,7.465C595.185,725.586,589.936,721.419,588.607,717.232Zm21.312-4.67c-2.191,2.822-4.433,5.613-6.817,8.271-1.506,1.68-2.653,1.6-4.355.132a8.577,8.577,0,0,1-1.238-1.292,17.356,17.356,0,0,0-8.278-5.617c-2.429-.886-2.788-2.218-1.1-4.194,2.2-2.567,4.219-5.305,6.922-7.4.788-.611,1.543-1.316,2.7-.978,4.28,1.818,8.75,3.35,11.992,6.942C611.309,710.149,611.335,710.74,609.92,712.562Zm10.6.108a4.561,4.561,0,0,1-6.7-2.516c-1.2-4.2-4.4-6.549-7.8-8.681-2.51-1.574-5.61-1.959-8.019-3.845-.72-.563-1.525.193-2.1.709a2.1,2.1,0,0,1-2.731.254,1.212,1.212,0,0,1-.678-1.228c.077-.6.507-.8,1.036-.872,2.218-.3,4.364.3,6.533.515a19.767,19.767,0,0,1,10.345,4.329,62.656,62.656,0,0,0,6.389,3.84,14.369,14.369,0,0,1,4.428,4.783C621.981,711.105,621.725,711.976,620.515,712.67Zm25.217-30.98c-.536,1.238-.664,2.644-1.513,3.816-2.809,3.872-5.556,7.79-8.335,11.684-2.317,3.246-4.309,6.722-6.861,9.8-1.191,1.438-2.221,3.056-4.123,4-1.178-2.911-2.517-5.641-5.018-7.4-2.762-1.946-5.789-3.514-8.582-5.419a29.853,29.853,0,0,0-14.324-4.755c-1.891-.186-1.953-.434-1.422-2.278,1.323-4.595,4.073-8.4,6.688-12.29,3.67-5.457,7.635-10.716,11.6-15.945,6.312-8.332,12.044-17.132,19.247-24.775,2.218-2.353,3.51-5.318,5.221-8.006,1.771-2.783,1.814-2.945,4.966-1.879,6.494,2.193,13.277,3.745,18.984,7.831a17.744,17.744,0,0,1,5.907,6.234,5.821,5.821,0,0,1-.357,6.45c-5.762,8.5-11.034,17.3-16.228,26.156a34.7,34.7,0,0,1-2.342,4.153C648.247,680.327,646.313,680.351,645.732,681.691Zm7.576,2.52a7.823,7.823,0,0,1-.526.605c-1.68-.095-3.255-3.046-2.451-3.9,2.98-3.178,4.7-7.094,6.646-10.89a18.317,18.317,0,0,1,1.4-2.282,2.825,2.825,0,0,1,4.8.486,1.106,1.106,0,0,1-.242,1.345c-3.107,3.658-5.192,7.966-7.675,12.022A30.247,30.247,0,0,1,653.308,684.21Zm-88.167,44.965c-.579-.4-1.25-.737-1.44-1.449-.2-.749-.506-1.587.109-2.283.716-.809,1.464-.269,2.151.1q5.38,2.886,10.746,5.8c.263.141.525.287.8.4a85.717,85.717,0,0,1,13.3,6.667c2.827,1.833,6.342,2.287,9.546,3.37.471.159.973.234,1.436.411.518.2,1.347.313,1.143,1.055s-.938.483-1.5.294c-4.169-1.326-8.392-2.407-12.295-4.558-5.6-3.084-11.772-4.807-17.78-6.908A25.929,25.929,0,0,1,565.141,729.175Zm80.571,57.007a31.07,31.07,0,0,0,6.537.593,9.787,9.787,0,0,1,6.7,2.347,1.406,1.406,0,0,1,.461,1.58c-.783,2.992-1.559,5.985-2.393,8.962a2.314,2.314,0,0,1-3,1.744c-2.354-.429-4.769-.419-7.1-1.048a28.737,28.737,0,0,0-8.3-.652c-4.374.11-8.767-.149-13.14-.429-4.278-.274-8.528-.915-12.822-1.028a35,35,0,0,1-7.062-1.267,192.286,192.286,0,0,0-19.778-3.212c-2.849-.363-5.774-.09-8.661-.2-3-.11-3.135-.366-3.064-3.364.078-3.288.84-6.537.521-9.845-.121-1.257.648-1.5,1.69-1.467,2.486.088,4.956.333,7.456.348,10.86.063,21.678,1,32.486,1.992,3.079.283,6.064,1.238,9.392,1.347C632.026,784.621,639.006,784.61,645.713,786.182ZM603.17,770.929a1.231,1.231,0,0,1,1.567-1.319,37.7,37.7,0,0,1,5.9.852,18.529,18.529,0,0,0,6.8.571c5.031-.394,10.1-.5,15.51-2.528-1.117,3.888-1.108,7.247-1.582,10.557a1.783,1.783,0,0,1-2.284,1.7c-.692-.078-1.384-.169-2.072-.278a139.242,139.242,0,0,0-18.967-2.117,13.959,13.959,0,0,1-1.485-.158c-3.162-.409-3.2-.449-3.31-3.7C603.208,773.316,603.131,772.12,603.17,770.929Zm76.077-61.237a32.405,32.405,0,0,1-1.873,9.927,92.662,92.662,0,0,1-5.008,11.81c-3.565,6.419-6.581,13.21-11.982,18.483a66.088,66.088,0,0,0-4.875,6.049c-3.464,4.294-8.159,6.7-13.284,8.236-7.35,2.208-14.759,4.23-22.487,4.658a10.8,10.8,0,0,1-2.089.09c-4.535-.653-9.133-1.062-13.57-2.134a82.687,82.687,0,0,1-13.011-4.393,43.214,43.214,0,0,1-11.574-6.764,58.425,58.425,0,0,1-5.383-5.6,8.2,8.2,0,0,1-2.081-5.771c.03-1.593-.108-3.189-.089-4.782.048-4.028.534-4.441,4.391-3.036,2.991,1.089,5.841,2.558,8.784,3.787,4.177,1.744,7.817,3.949,10.184,8.138,2.405,4.256,7.1,5.29,11.379,6.533A30.124,30.124,0,0,0,620,756a22.559,22.559,0,0,1,4.475-.232,25.653,25.653,0,0,0,17.77-5.78c3.728-3.027,7.461-6,9.859-10.3a53.773,53.773,0,0,0,6.211-17.626,36.618,36.618,0,0,0,1.016-9.806c-.294-4.145-.289-8.322-1.5-12.371a57.423,57.423,0,0,1-1.249-5.843,10.37,10.37,0,0,0-1.132-3.363c-.892-1.548-.927-2.835.049-4.784,2.11-4.212,4.742-8.07,7.1-12.105a11.9,11.9,0,0,1,1.8-2.377c1.162-1.168,1.844-1.135,3.068-.022a21.687,21.687,0,0,1,3.338,4.582,41.89,41.89,0,0,1,5.646,12.749C678.143,695.611,679.671,702.527,679.248,709.692Z" transform="matrix(0.978, 0.208, -0.208, 0.978, -380.993, -719.964)" fill="#172553" opacity="0.5"/>
</svg>
