<svg xmlns="http://www.w3.org/2000/svg" width="66.447" height="57.772" viewBox="0 0 66.447 57.772">
  <path id="Path_4220" data-name="Path 4220" d="M426.894,664.917c3.224-1.978,6.1-4.493,9.544-6.116a6.917,6.917,0,0,0,2.8-2.619c1.5-2.278.971-4.08-1.584-5.17-3.631-1.549-7.385-2.461-11.373-1.65a14.338,14.338,0,0,1-5.161.172c-1.848-.3-3.318-1.177-3.568-3.2-.387-3.138-1.758-5.98-2.568-8.989a14.981,14.981,0,0,0-6.213-8.827c-1.662-1.108-2.6-.937-3.459.722-2.687,5.173-6.2,9.931-8.162,15.456-1.2,3.389-3.485,4.539-6.85,4.722-4.311.234-8.627.64-12.9,1.263-4.108.6-4.91,2.992-2.2,6.026a32.08,32.08,0,0,0,7.064,6.164c1.472.9,2.856,1.952,4.256,2.967,1.26.913,1.474,1.868.457,3.261-2.045,2.8-3.392,6.018-5.014,9.071a8.991,8.991,0,0,0-.936,4.06,2.378,2.378,0,0,0,2.056,2.524,6.5,6.5,0,0,0,2.847-.53c5.638-1.682,10.454-5.07,15.635-7.69,1.461-.739,2.506-.973,3.84-.231a27.724,27.724,0,0,1,2.529,1.449,53.646,53.646,0,0,0,13.715,6.5,31.433,31.433,0,0,0,5.35,1.283c2.582.4,4.691-1.728,3.815-4.081-1.577-4.236-2.252-8.809-4.764-12.706C424.658,666.579,424.676,666.277,426.894,664.917Zm-5.827,2.2a37.722,37.722,0,0,0,2.215,4.676,29.194,29.194,0,0,1,3.342,9.838c-2.132.225-3.785-.566-5.488-1.174a68.617,68.617,0,0,1-12.694-6.427,31.2,31.2,0,0,0-4.34-2.177c-1.514-.629-2.971-.68-3.807,1.171-.172.38-.454.865-.8.988-3.995,1.427-6.8,4.992-10.975,6.085-1.132.3-2.227.736-4.072,1.356a39.641,39.641,0,0,1,3.987-9.475,26.646,26.646,0,0,1,2.24-3.565c1.18-1.542.723-2.765-.443-4.009a16.391,16.391,0,0,0-3.851-2.917,26.134,26.134,0,0,1-8.54-7.09c.473-1.024,1.319-.98,2.019-1.011,4.428-.2,8.727-1.586,13.189-1.422a4.884,4.884,0,0,0,4.376-2.105c2.4-3.018,3.752-6.544,5.385-9.927a55.369,55.369,0,0,1,4.8-7.675,5.961,5.961,0,0,1,3.4,4.223c1.4,4.868,3.417,9.563,4.061,14.653.353,2.8.513,2.807,3.229,1.924.2-.067.413-.253.6-.228,4.6.628,9.272-.986,13.843.419a18.3,18.3,0,0,1,2.722,1.009c.791.391.732,1.1.048,1.5-1.3.769-2.709,1.34-4.007,2.106-3.251,1.919-6,4.608-9.494,6.172C420.641,664.65,420.642,665.972,421.067,667.113Z" transform="translate(-373.626 -627.813)" fill="#172553" opacity="0.5"/>
</svg>
