<svg xmlns="http://www.w3.org/2000/svg" width="121.681" height="185.604" viewBox="0 0 121.681 185.604">
  <g id="Group_157" data-name="Group 157" transform="translate(-103.318 -390.896)" opacity="0.5">
    <path id="Path_4194" data-name="Path 4194" d="M571.752,661.583c2.374-4.971,4.125-9.931,4.171-15.337.209-7.457-.827-10.365-5.424-15.648a30.354,30.354,0,0,0-2.821-2.425c-4.608-4.156-9.894-6.9-16.719-6.61-.826.035-1.665-.211-2.492-.186-2.835.088-5.768-.267-8.378,1.083a45.962,45.962,0,0,0-10.535,7.56,9.67,9.67,0,0,0-3.162,4.9,10.65,10.65,0,0,1-1.159,2.659,36.859,36.859,0,0,0-3.295,7.739c-.783,2.932-1.8,5.953-.234,8.99,1.556,3.021,3.84,5.632,5.939,8.337,1.258,1.619,2.427,1.49,3.493-.292,1.174-1.962,2.207-4,3.193-6.04a10.805,10.805,0,0,1,4.066-4.362,4.36,4.36,0,0,1,6.022.651,5.606,5.606,0,0,1,1.773,5.825,55.643,55.643,0,0,1-4.269,10.778c-4.115,8.149-5.368,16.93-6.658,25.676-.538,3.654.82,5.343,4.959,6.1,2.677.492,5.437.63,8.162.9a3.323,3.323,0,0,0,3.493-1.655,14.626,14.626,0,0,1,5.35-5.446,4.678,4.678,0,0,0,2.662-3.557,52.044,52.044,0,0,1,2.228-7.367C564.512,676.155,568.258,668.9,571.752,661.583Zm-20.023,24.649a11.2,11.2,0,0,1-2.066,4.714c-1.034,1.19-.409,2.67-.338,4.032.114,2.2-.313,2.622-2.75,2.731-5.991.269-7.844-1.147-7.82-6.455.021-4.818,1.456-9.443,2.925-14.055,1.375-4.316,3.827-8.249,5.367-12.5a29.763,29.763,0,0,0,2.12-8.38c.162-2.851-3.512-7.941-6.44-8.983a4.54,4.54,0,0,0-2.793.16c-3.453.924-5.541,3.224-7.314,5.8-.934,1.356-1.685,2.812-2.552,4.206-.223.357-.509.769-1.1.648a1.163,1.163,0,0,1-.895-.9c-.353-1.236-.665-2.48-1-3.719-.225-.834-.4-1.846-1.276-2.209-2.193-.913-1.585-2.277-1.086-3.748a39.745,39.745,0,0,0,1.342-4.632c.807-3.867,3.517-6.44,7.1-8.382a26.169,26.169,0,0,1,19.7-2.291c7.279,2.02,13.213,5.644,12.574,13.85-.041.529-.009,1.063-.01,1.595a32.172,32.172,0,0,1-4.082,16.912C557.527,671.583,553.837,678.639,551.729,686.232Zm7.956-5.012c-1.214,2.87-1.712,5.971-3.235,8.767-.556,1.021-.94,2.16-2.616,2.686A28.641,28.641,0,0,1,556.3,682a164.624,164.624,0,0,1,8.764-18.135,28.688,28.688,0,0,0,3.359-14.872c-.068-2.445-.235-4.889-.429-7.33-.31-3.888-2.786-6.7-5.952-9.1-6.562-4.974-14.208-5.56-22.294-4.254-.677.11-1.3.612-2.173.188a6.228,6.228,0,0,1,5.255-3.362c5.454-.43,10.922-.753,16.212,1.3,4.023,1.559,6.774,4.295,9.407,7.189,4.926,5.414,5.406,11.6,3.782,18.12a43.842,43.842,0,0,1-2.811,7.55C566.1,666.573,562.8,673.864,559.685,681.22Z" transform="translate(-144.109 -283.959) rotate(17)" fill="#172553"/>
    <path id="Path_4195" data-name="Path 4195" d="M487.783,662.763a30.333,30.333,0,0,1-6.155-1.008c-4.035-1.07-4.383-.915-6.967,2.275a3.98,3.98,0,0,1-.937,1.016c-2.7,1.6-2.867,3.946-2.531,6.448.191,1.416.419,2.829.631,4.243l.184-.014c.194,2.077.275,4.169.613,6.226a4.332,4.332,0,0,0,4.749,3.681,43.545,43.545,0,0,0,7.591-1.427,23.518,23.518,0,0,0,7.785-4.859c.987-.845.9-2,.652-3.113-.8-3.652-1.675-7.293-2.39-10.96C490.674,663.556,489.655,662.865,487.783,662.763Zm-3.539,17.129c-.822,1.122-5.887,2.219-7.139,1.5-1.485-.852-1.265-2.231-1.23-3.536.146-1.588-.712-2.962-1.105-4.435-.479-1.8-.037-2.348,2-2.79a13.268,13.268,0,0,1,5.1.082,3.378,3.378,0,0,1,2.084,1.236C485.116,673.368,485.3,678.456,484.244,679.892Zm.437-12.356a25.8,25.8,0,0,0-6.035-1.091.591.591,0,0,1-.6-.676,1.417,1.417,0,0,1,.551-.812c1.21-.766,6.381,0,7.248,1.044a1.894,1.894,0,0,1,.169.3A1.174,1.174,0,0,1,484.681,667.536Zm5.041,9.18a.926.926,0,0,1-.795.967,1.013,1.013,0,0,1-1.182-.951,11.6,11.6,0,0,1,.207-6.012A9.059,9.059,0,0,1,489.722,676.716Z" transform="translate(-144.109 -283.959) rotate(17)" fill="#172553"/>
    <path id="Path_4196" data-name="Path 4196" d="M554.252,718.814c-1.272-.966-1.252-2.215-1.09-3.5.159-1.264.365-2.524.555-3.784.476-3.15-1.5-5.34-5-5.62-2.013-.161-4.077.182-6.039-.369-2.814-.791-4.917-.3-6.052,2.326a3.144,3.144,0,0,1-1.5,1.314,2.392,2.392,0,0,0-1.409,2.084c-.021,2.054-.866,3.959-1.484,5.879a12.784,12.784,0,0,0,.416,8.142c1.025,3.115,3.487,4.747,7,4.8,3.462-.543,7.389.14,10.477-3.04a59.44,59.44,0,0,0,4.628-5.912A1.61,1.61,0,0,0,554.252,718.814Zm-8.421,3.482c-.368,2.913-.633,3.2-3.029,3.52-4.048.536-5.411.091-6.486-2.334a13.13,13.13,0,0,1-1.1-3.669,6.372,6.372,0,0,1,2.54-6.011c1.691-1.2,4.308-.831,6.546-.61a1.776,1.776,0,0,1,1.65,1.811c.088,1.163.134,2.328.215,3.809C546.078,719.766,545.99,721.035,545.831,722.3Zm4.078-6.324c-.624-1.067-.968-1.823-.534-2.647.391-.229.751-.208.846.175A3.593,3.593,0,0,1,549.909,715.972Z" transform="translate(-144.109 -283.959) rotate(17)" fill="#172553"/>
    <path id="Path_4197" data-name="Path 4197" d="M494.418,573.231a6.85,6.85,0,0,0-5.342-5.677,55.113,55.113,0,0,0-15.976-2.193,11.645,11.645,0,0,0-7.635,2.937,24.522,24.522,0,0,0-5.886,7.569c-.724,1.459-.849,2.746.368,3.97,1.141,1.149,1.218,2.516,1.315,3.981.375,5.7.812,11.389,1.392,17.069.5,4.915,1.677,9.8,1.736,14.715.064,5.285.684,10.519.871,15.78a92.727,92.727,0,0,0,3.292,20.16c.824,2.829,1.055,3.109,4.184,2.811,3.459-.329,6.909-.507,10.236.571,1.805.585,2.727.009,3.377-1.522a16.384,16.384,0,0,1,3.174-5.212,8.885,8.885,0,0,0,2.675-7.205c-.4-6.8.734-13.6.69-20.418-.033-5.04.319-10.093.7-15.13.451-5.909,1.412-11.779,1.012-17.737a57.973,57.973,0,0,1,.083-11.526A9.635,9.635,0,0,0,494.418,573.231ZM474.9,568.672c4.122.554,8.3.8,12.349,1.752,1.388.328,2.763.606,2.266,2.3-.554,1.885-2.884,3.378-4.259,2.588-5.226-3-10.971-3.521-16.987-3.059a11.719,11.719,0,0,1-2.035-.325C468.954,569.355,471.538,568.22,474.9,568.672Zm7.1,47.745a22.9,22.9,0,0,0,.633,5.555,58.085,58.085,0,0,1,.95,10.479c.021,4.828.144,9.656.031,14.482-.083,3.528-.491,3.8-4.321,3.572-2.194-.13-4.667.568-6.52-.49-1.947-1.111-1.5-3.58-2.411-5.362-1.29-2.533-1.123-5.364-1.488-8.072-.44-3.263-.645-6.553-.951-9.832l.082-.007c-.173-1.858-.426-3.712-.5-5.574a68.695,68.695,0,0,0-1.194-12.432c-1.146-5.052-.793-10.264-1.713-15.319-.9-4.969-.41-10.028-1.475-14.96a1.877,1.877,0,0,1,1.209-2.19,10.8,10.8,0,0,1,3.5-1.031,27,27,0,0,1,13.642,2.028c3.348,1.319,3.839,2.449,3.4,5.758a5.419,5.419,0,0,1-.148.979C481.246,594.654,482.688,605.6,482,616.417Zm9.7-20.807c-.206,4.71-.97,9.4-1.242,14.115-.532,9.207-.89,18.42-1.326,27.631a16.194,16.194,0,0,1-1.761,7.183,53.479,53.479,0,0,1-1.07-12.525,62.436,62.436,0,0,0-.829-9.17c-1.158-7.75-.6-15.542-.389-23.333a53.209,53.209,0,0,1,2.884-15.864c.672-1.972.227-4.187,1.655-6.014.342-.438.511-1.01,1.276-1.082.912.279.743,1.014.7,1.619C491.242,583.991,491.962,589.8,491.708,595.61Z" transform="translate(-144.109 -283.959) rotate(17)" fill="#172553"/>
  </g>
</svg>
