<svg xmlns="http://www.w3.org/2000/svg" width="540" height="149.833" viewBox="0 0 540 149.833">
  <g id="Group_145" data-name="Group 145" transform="translate(0 0)">
    <path id="Path_4136" data-name="Path 4136" d="M272.606,26.313h-1.845c.259.924.224,2.08,1.845,1.932Z" transform="translate(-11.508 -26.313)" fill="#436cde" fill-rule="evenodd"/>
    <path id="Path_4137" data-name="Path 4137" d="M242.633,26.765c-1.792-.71-1.792,2.161,0,1.45Z" transform="translate(54.709 -26.283)" fill="#436cde" fill-rule="evenodd"/>
    <path id="Path_4138" data-name="Path 4138" d="M248.241,26.756h-2.456v.966h2.456Z" transform="translate(43.572 -26.274)" fill="#436cde" fill-rule="evenodd"/>
    <path id="Path_4139" data-name="Path 4139" d="M227.91,27.2c-.26,1.011.423,1.28.615,1.934C230.307,29.051,230.006,26.84,227.91,27.2Z" transform="translate(84.175 -26.238)" fill="#436cde" fill-rule="evenodd"/>
    <path id="Path_4140" data-name="Path 4140" d="M151.305,32.133c1.232,1.011,2.772.368,4.3.484-.038,0,2.323,1.2,3.073.483.457-.441.652-.1,1.842,0a28.052,28.052,0,0,1,4.3,0c.514.095.6.444,1.227.483.461.028,1.008-.529,1.846-.483-.219-.012.423.446.612.483.38.075.839-.04,1.229,0,1.118.115,2.506.415,3.686.483-.2-.011.3-.483.615-.483.5,0,1.452.436,2.457.483,4.547.213,9.235.522,14.744.484.556-1.543-1.823-.838-2.457-.968-.152-.03-.057-.46-.615-.483-1.155-.048-3.051.18-4.913,0-2.3-.222-7.081-.342-11.058-.483-1.919-.07-4.714-.385-7.986-.484-.8-.023-1.661.084-2.46,0C159.744,31.926,154.3,30.925,151.305,32.133Z" transform="translate(216.685 -25.851)" fill="#436cde" fill-rule="evenodd"/>
    <path id="Path_4141" data-name="Path 4141" d="M185.32,31.648c.627,1.118,2.825,1,4.916.968C190.61,30.709,186.862,32.047,185.32,31.648Z" transform="translate(175.912 -25.85)" fill="#436cde" fill-rule="evenodd"/>
    <ellipse id="Ellipse_17" data-name="Ellipse 17" cx="0.869" cy="0.683" rx="0.869" ry="0.683" transform="translate(360.977 7.049)" fill="#436cde"/>
    <path id="Path_4142" data-name="Path 4142" d="M153.6,34.75c-.668.12-.418.962-1.23.966-.113.411.239.456.615.484h1.227C154.39,35.419,153.636,35.368,153.6,34.75Z" transform="translate(252.476 -25.568)" fill="#436cde" fill-rule="evenodd"/>
    <path id="Path_4143" data-name="Path 4143" d="M160.514,35.241c-.851-.949-5.213-.59-6.143,0a1.693,1.693,0,0,0,1.845.968c.225-.03,1.126-.958,1.227-.968C158.065,35.185,159.5,36.382,160.514,35.241Z" transform="translate(243.721 -25.576)" fill="#436cde" fill-rule="evenodd"/>
    <path id="Path_4144" data-name="Path 4144" d="M177.467,35.638c-.62,1.455,1.369.858,2.456.968A2.964,2.964,0,0,0,177.467,35.638Z" transform="translate(196.052 -25.489)" fill="#436cde" fill-rule="evenodd"/>
    <path id="Path_4145" data-name="Path 4145" d="M286.824,38.045c2.788-.454,3.68.115,5.529-.483C292.055,35.28,285.993,34.853,286.824,38.045Z" transform="translate(-50.914 -25.479)" fill="#436cde" fill-rule="evenodd"/>
    <path id="Path_4146" data-name="Path 4146" d="M160.864,36.57c.857.739,3.18,1.372,4.3.482C165.152,35.649,161.693,35.91,160.864,36.57Z" transform="translate(231.085 -25.454)" fill="#436cde" fill-rule="evenodd"/>
    <path id="Path_4147" data-name="Path 4147" d="M165.159,36.559c1.862,1.786,2.069-1.468,0,0Z" transform="translate(224.334 -25.443)" fill="#436cde" fill-rule="evenodd"/>
    <path id="Path_4148" data-name="Path 4148" d="M250.563,36.084c-1.418-.148-.684,1.4-1.844,1.45.75.688,2.344,1.1,3.071.483C252.238,36.7,250.571,37.044,250.563,36.084Z" transform="translate(36.337 -25.451)" fill="#436cde" fill-rule="evenodd"/>
    <path id="Path_4149" data-name="Path 4149" d="M254.277,37.05c.722,1.708,4.173,1.737,4.3-.482C257.259,35.524,255.144,36.321,254.277,37.05Z" transform="translate(22.794 -25.451)" fill="#436cde" fill-rule="evenodd"/>
    <path id="Path_4150" data-name="Path 4150" d="M272.589,36.083c-1.423.135-1.411,1.291-.615,1.933C273.761,37.6,272.666,37.292,272.589,36.083Z" transform="translate(-12.721 -25.45)" fill="#436cde" fill-rule="evenodd"/>
    <path id="Path_4151" data-name="Path 4151" d="M280.2,37.051c.059,1.457,5.639,1.58,4.913-.482C283.757,35.557,281.023,36.189,280.2,37.051Z" transform="translate(-35.689 -25.453)" fill="#436cde" fill-rule="evenodd"/>
    <path id="Path_4152" data-name="Path 4152" d="M297.58,36.083h-1.229c.113.41-.241.455-.615.483v.966c.524-.089.579.188.615.483h1.229c-.113-.411.239-.456.615-.483v-.966C297.672,36.654,297.615,36.378,297.58,36.083Z" transform="translate(-67.813 -25.45)" fill="#436cde" fill-rule="evenodd"/>
    <path id="Path_4153" data-name="Path 4153" d="M322.9,36.085c-1.513-.064-2.958-.074-3.684.483.521,1.039,1.513,1.71,3.684,1.45Z" transform="translate(-121.395 -25.452)" fill="#436cde" fill-rule="evenodd"/>
    <path id="Path_4154" data-name="Path 4154" d="M332.259,36.084c-.58,3.057,3.423,1.562,4.917.965C336.192,36.212,334.408,36,332.259,36.084Z" transform="translate(-151.639 -25.451)" fill="#436cde" fill-rule="evenodd"/>
    <path id="Path_4155" data-name="Path 4155" d="M152.373,37c.5.936,2.877.422,4.3.484,1.4.06,2.61.52,3.071,0-.215-.554-1.081-1.225-1.227-.484C155,36.819,154.921,36.419,152.373,37Z" transform="translate(246.947 -25.398)" fill="#436cde" fill-rule="evenodd"/>
    <path id="Path_4156" data-name="Path 4156" d="M238.3,37.015c-.419,1.5,3.518,2.013,4.3.968C243.018,36.486,239.077,35.969,238.3,37.015Z" transform="translate(58.431 -25.416)" fill="#436cde" fill-rule="evenodd"/>
    <path id="Path_4157" data-name="Path 4157" d="M247.627,36.527H246.4c.113.411-.24.456-.614.482v.968c.521-.089.578.187.614.484h1.229c-.112-.412.24-.457.614-.484v-.968C247.719,37.1,247.662,36.822,247.627,36.527Z" transform="translate(43.572 -25.411)" fill="#436cde" fill-rule="evenodd"/>
    <path id="Path_4158" data-name="Path 4158" d="M263.125,37.5c.55-1.688-2-.825-2.456-.484-.973.04-2.345-.233-2.458.484h2.458C261.811,37.034,262.72,38.944,263.125,37.5Z" transform="translate(13.331 -25.414)" fill="#436cde" fill-rule="evenodd"/>
    <path id="Path_4159" data-name="Path 4159" d="M267.109,36.527h-1.842v.966h1.842Z" transform="translate(0.745 -25.411)" fill="#436cde" fill-rule="evenodd"/>
    <path id="Path_4160" data-name="Path 4160" d="M219.355,39.373c1.655.53,3.152.091,4.917-.483C223.766,36.768,218.78,36.16,219.355,39.373Z" transform="translate(100.102 -25.357)" fill="#436cde" fill-rule="evenodd"/>
    <path id="Path_4161" data-name="Path 4161" d="M225.239,37.435c-.223,1.945,4.474,2.9,3.686,0C226.63,37.392,227.175,36.893,225.239,37.435Z" transform="translate(88.076 -25.353)" fill="#436cde" fill-rule="evenodd"/>
    <path id="Path_4162" data-name="Path 4162" d="M229.315,37.46c-.483,2.319,6.486,1.924,6.143,0C234.339,36.721,230.435,36.721,229.315,37.46Z" transform="translate(76.627 -25.377)" fill="#436cde" fill-rule="evenodd"/>
    <path id="Path_4163" data-name="Path 4163" d="M235.9,36.973c-.259,1.011.422,1.281.615,1.934C238.3,38.82,238,36.61,235.9,36.973Z" transform="translate(66.354 -25.375)" fill="#436cde" fill-rule="evenodd"/>
    <path id="Path_4164" data-name="Path 4164" d="M142.842,37.421c.593.983,2.359,1.044,4.3.968C147.636,36.55,144.238,37.773,142.842,37.421Z" transform="translate(271.222 -25.339)" fill="#436cde" fill-rule="evenodd"/>
    <path id="Path_4165" data-name="Path 4165" d="M213.839,39.348c1.231.164,1.922-.1,1.842-.965,1.283.278,1.752,1.2,3.686.965.077-.866-.753-1.019-.614-1.933C216.477,37.558,213.491,37.142,213.839,39.348Z" transform="translate(111.763 -25.332)" fill="#436cde" fill-rule="evenodd"/>
    <path id="Path_4166" data-name="Path 4166" d="M203.294,39.792c2.56-.514,2.708-.125,5.529,0,.448-1.318-1.22-.973-1.23-1.933C205.517,38.992,202.944,36.75,203.294,39.792Z" transform="translate(135.208 -25.293)" fill="#436cde" fill-rule="evenodd"/>
    <path id="Path_4167" data-name="Path 4167" d="M211.662,37.868c-1.791-.711-1.791,2.16,0,1.45Z" transform="translate(123.767 -25.302)" fill="#436cde" fill-rule="evenodd"/>
    <path id="Path_4168" data-name="Path 4168" d="M380.389,40.523h-1.23v.968h1.23Z" transform="translate(-252.6 -25.058)" fill="#436cde" fill-rule="evenodd"/>
    <path id="Path_4169" data-name="Path 4169" d="M378.169,41.861c-.893.264-3.175-.565-3.072.482C374.638,44.186,379.076,43.39,378.169,41.861Z" transform="translate(-245.465 -24.945)" fill="#436cde" fill-rule="evenodd"/>
    <path id="Path_4170" data-name="Path 4170" d="M382.157,41.856v1.451c1.227.276,3.121.953,3.686-.969C383.965,42.689,383.6,41.845,382.157,41.856Z" transform="translate(-261.741 -24.94)" fill="#436cde" fill-rule="evenodd"/>
    <path id="Path_4171" data-name="Path 4171" d="M395.358,41.856c-1.788.42-.692.723-.615,1.933C397.341,43.756,396.2,42.684,395.358,41.856Z" transform="translate(-287.227 -24.94)" fill="#436cde" fill-rule="evenodd"/>
    <path id="Path_4172" data-name="Path 4172" d="M389.581,42.3c-.992-.135-1.059.458-1.843.484-.449,1.319,1.221.973,1.23,1.933C390.529,44.669,390.417,42.918,389.581,42.3Z" transform="translate(-272.85 -24.903)" fill="#436cde" fill-rule="evenodd"/>
    <path id="Path_4173" data-name="Path 4173" d="M439.1,44.557c-.014,1.784.277,3.329,2.458,3.384a9.448,9.448,0,0,0,1.229-2.9C440.957,45.149,440.7,43.257,439.1,44.557Z" transform="translate(-388.721 -24.742)" fill="#436cde" fill-rule="evenodd"/>
    <path id="Path_4174" data-name="Path 4174" d="M443.587,45.447q.116,1.843,2.458,1.933c-.077-.867.753-1.02.614-1.933A2.768,2.768,0,0,0,443.587,45.447Z" transform="translate(-398.12 -24.664)" fill="#436cde" fill-rule="evenodd"/>
    <path id="Path_4175" data-name="Path 4175" d="M435.084,47.23c-1.863-1.787-2.07,1.468,0,0Z" transform="translate(-374.256 -24.514)" fill="#436cde" fill-rule="evenodd"/>
    <path id="Path_4176" data-name="Path 4176" d="M465.549,51.734h2.457C468.43,49.825,465.417,50.15,465.549,51.734Z" transform="translate(-446.495 -24.183)" fill="#436cde" fill-rule="evenodd"/>
    <path id="Path_4177" data-name="Path 4177" d="M456.543,68.951c-1.677-.352-1.238.961-2.458.966C454.467,71.615,456.651,70.348,456.543,68.951Z" transform="translate(-420.902 -22.552)" fill="#436cde" fill-rule="evenodd"/>
    <path id="Path_4178" data-name="Path 4178" d="M45.473,93.816a1.72,1.72,0,0,0,1.842.968A1.718,1.718,0,0,0,45.473,93.816Z" transform="translate(490.842 -20.35)" fill="#436cde" fill-rule="evenodd"/>
    <path id="Path_4179" data-name="Path 4179" d="M48.983,114.319c-.242,1.159,2.8-.268,1.842,1.45,2.633-.416,4.465-.035,7.988-.482v-1.451c-1.767-1.037-4.882.1-6.758.483C50.526,114.267,50.152,113.414,48.983,114.319Z" transform="translate(475.046 -18.62)" fill="#436cde" fill-rule="evenodd"/>
    <path id="Path_4180" data-name="Path 4180" d="M65.454,128.055c.012,1.405,3.473,1.144,4.3.484C69.742,127.135,66.283,127.4,65.454,128.055Z" transform="translate(443.83 -17.373)" fill="#436cde" fill-rule="evenodd"/>
    <path id="Path_4181" data-name="Path 4181" d="M55.737,135.563H54.508c-.287,1.032.878.92,1.843.966C56.235,136.138,55.737,136.047,55.737,135.563Z" transform="translate(470.749 -16.663)" fill="#436cde" fill-rule="evenodd"/>
    <path id="Path_4182" data-name="Path 4182" d="M122.962,155.6c-.464-.643-6.006-1.212-5.529.483C120.22,155.629,121.113,156.2,122.962,155.6Z" transform="translate(326.734 -14.949)" fill="#436cde" fill-rule="evenodd"/>
    <path id="Path_4183" data-name="Path 4183" d="M67.732,159.585c1.449,1.555,2.483-1.7,0,0Z" transform="translate(441.552 -14.585)" fill="#436cde" fill-rule="evenodd"/>
    <path id="Path_4184" data-name="Path 4184" d="M58.947,163.282c1.31,1.548,4.276-.048,7.371.482.5.085.611.488,1.231.483.917-.007,1.987-.4,3.07-.483,4.847-.382,10.311-.221,15.358-.482-.077-.868.753-1.02.615-1.934-.546-.3-1.1-.584-1.229,0-3.2-.614-9.153.153-12.9.483-1.365.12-3.975-.539-4.3.966-.426-.954-3.426.119-3.686-.966A43.707,43.707,0,0,1,58.947,163.282Z" transform="translate(434.979 -14.415)" fill="#436cde" fill-rule="evenodd"/>
    <path id="Path_4185" data-name="Path 4185" d="M81.942,163.137c-.1,1.047,2.179.218,3.071.482C84.952,162.389,82.725,162.477,81.942,163.137Z" transform="translate(408.298 -14.269)" fill="#436cde" fill-rule="evenodd"/>
    <path id="Path_4186" data-name="Path 4186" d="M131.8,39.549c2.035-.472-.686-.956-.615-1.45,2.121-.38,2.7.451,3.073,1.45,1.069.476,1.566-.96,1.842-.965.694-.019,1.1.824,1.842.965,1.446.278,3.1-.431,4.914,0,.221.052.787.49.615.483.985.036,1.077-.53,1.842-.483-.032,0,4.173.36,4.3.483.657.631.264-.1,1.23,0,.985.1,1.9.3,3.071.484,1.231.189,1.182-.037,1.842.482.853.673,3.049-.454,3.686-.482.829-.038,1.885.883,2.457,0,.412-1.232-1.042-.657-1.841-.968-.382-.146-1.059-.926-1.23-.965-.323-.076-.753.482-1.227.482-.443,0-.683-.421-1.23-.482-.593-.069-1.258.1-1.843,0-.515-.089-.612-.415-1.229-.484-2.227-.252-4.564-.171-6.758-.483-.905-.13-1.1-.417-1.841-.484-4.458-.4-9.06-.164-13.517-.482-.96-.07-1.071-.444-1.842-.483-2.484-.127-4.918.121-7.373,0-1.243-.062-3.018-.306-5.529-.484-1.058-.075-2.014-.46-3.072-.483a.552.552,0,0,1-.614.483c-.148-.023,0-.547-.615-.483-.514.054-.6.491-1.227.483-1.792-.021-3.929-1.219-5.529,0-.359.306,3.218,1.818,4.3.968.922-.726.691.357,2.457.482,1.995.143,4.055-.1,6.758,0,.245,1.159-2.8-.267-1.842,1.452,1.348-.484,2.492.432,3.686.482.619.026,2.9-1.1,3.686-.482.041.03-.041.478,0,.482,1.792.2,4.961-.555,6.143.483C131.117,39.252,131.669,38.965,131.8,39.549Zm-7.373-1.45c-.139-.133-1.01.069-1.23,0-2.873-.9,4.964-.607,3.686,0C124.624,38.088,125.072,38.718,124.427,38.1Z" transform="translate(302.538 -25.534)" fill="#436cde" fill-rule="evenodd"/>
    <path id="Path_4187" data-name="Path 4187" d="M498.585,137.909c-.218-1.654,2.466-.963,3.072-.966,2.846-.019,3.586.624,6.757,0,.563-.111,1.414-.176,3.072-.483.505-.094.606-.469,1.227-.484,1.179-.027,2.376.517,3.687.484s2.884-.481,4.3-.484c1.484,0,2.927.47,4.3.484a8.421,8.421,0,0,0,2.457-.484c.943-.155,17.366.32,17.457-.483.665-1.4-1.167-.441-1.844-.482.053,0-.213-.467-.614-.484-1-.04-1.052.384-1.842.484-.914-.369-1.251-.909-2.458-.968s-2.273.483-3.686.483c-1.075,0-2.543-.466-3.686-.483-2.188-.034-4.279.788-6.144,0-1.971.424-1.273-1.254-2.456-1.45-5.4-.009-2.942-.057-7.058-.968a1.377,1.377,0,0,1,1.23-1.45c1.152-.34,2.014-.032,3.071-.483.668-.285,1.032-1.209,2.457-1.45,1.765-.3,1.363.448,3.986,0,.5-.086.605-.479,1.229-.483,1.186-.01,2.009.521,3.07.483,1.119-.04,2.656-.473,3.687-.483,1.452-.013,2.728.458,4.3.483,1.957.03-.837-.761,2.6-.483,1.157.091,1.727.484,2.458.483,1.716,0,3.231-.527,4.914-.483,4.08.1,2.328.9,8.2.483,1.983.433.863-1.577,1.843-1.934a40.127,40.127,0,0,0,4.3-.966c1.112-.218,2.016.192,1.845-.966-1.92.643-6.054-.553-9.215-.483.085-2.913,4.5-1.269,7.37-1.451,1.377-.086,1.379-.816,2.458-.966-.793.111,1.2,1.885,1.229,0,.433-1.813-1.034-.483-1.842-.483-.52,0-.963-.655-1.845-.483-.322.063-.681.489-.612.483-.742.056-1.109-.49-1.229-.483-2.235.131-3.011.831-4.916,0-.323-.141.081-.454-.614-.483-.852-.035-.925-1.838-2.457-.483-.039-.852.473-1.218,1.23-1.45.374-.115.69.594,1.227.483.108-.023.13-.429.614-.483,1.242-.143,1.2.021,1.843-.483,0,0,1.045.447,1.229.483,1.368.27,3-.483,4.916-.483,1.391,0,2.383.4,3.686.483,1,.066,1.069-.54,1.842-.483a.746.746,0,0,0,.614.483c2.488.1,5.169-2,7.373-2.417.7-.133,1.107.15,1.227.483,1.9-1.368-3.568-1.032-4.3-1.933,1.566-1.253,2.286-.665,5.529-.968-.319-2.167-4.223-1.51-6.143-2.416-.813-.931.451-1.945-.616-3.384,1.248-3.046,10.7.365,10.445-3.866-5.091-1.259-7.68.048-11.057-1.451-.287-2.641,3.472-2.1,5.529-2.9-1.289-1.489-5.11.093-6.144-2.416,1.671-1.362,4.443-.829,6.757-.966.515-.032.6-.483,1.23-.483.588,0,2.711,1.223,4.3,0-.455-2.058-4.212-1.518-5.529-2.9,1.091-.914.449-3.193.615-4.833-2.607-.67-6.12-.362-9.829-.483-3.261-.107-6.9.64-8.6-.968-.487-3.281,5.022-1.847,4.3-5.315-.892-.749-3.145-.427-4.915-.484-1.973.426-.841-1.592-2.456-1.45-.872.041-1.74.079-1.843-.483-3.22.974-7.248-.435-11.057-.484-1.659-.467-2.965-1.211-3.072-2.9-3.11.514-3.1-1.428-4.916-1.933a14.4,14.4,0,0,1-4.914-.484c-.97-.322-.813-2.077-1.227-3.381-.2-.639-1.017-.774-1.23-1.451-.235-.754.277-1.674,0-2.417a13.533,13.533,0,0,0-1.229-1.934c-.225-.4.24-1.054,0-1.45-.066-.112-1.218-.433-1.227-.483-.043-.2.557-1.3.614-1.934.168-1.866-.878-4.083,0-5.8a16.536,16.536,0,0,0-3.687-.965c-.994.015-1.275-1.083-1.842-1.451s-1.639-.33-1.842-.966c-2.185.109-3.682-.327-4.3-1.451,1.671-1.261,4.362-1.723,6.757-2.416.517-1.281-1.178-.591-1.842-.966-.448-.254-.767-1.276-1.229-1.451-.5-.19-1.331.173-1.842,0-.207-.069-.111-.378-.615-.482-1.146-.239-1.622-.3-2.457-.484-3.3-.729-4.5-.728-9.215-.966a.686.686,0,0,0-.615-.483.643.643,0,0,0-.612.483c-.963-.021-1.091-.5-1.845-.483-1.1.03-1.3.529-2.457.483-.641-.025-.4-.451-.614-.483-.127-.02-1.473.839-1.842.483-.06-.057.074-.454,0-.483-.224-.084-1.082.141-1.23,0-.745-.716-1.839,0-4.3,0-1.28,0-3.017-.5-4.3-.483.128,0-.272.469-.616.483-2.209.091-6.088-.067-9.214,0-2.183.751-.37-1.642-1.842-1.45-2.3-.517-1.751,1.2-3.687.966-1.932-.827-5.265-.285-8.6-.484a17.658,17.658,0,0,1-1.843,0c-.5-.086-.608-.483-1.229-.482-1.295,0-2.474.532-3.686.482-1.053-.042-1.926-.368-3.072-.482-1.329-.135-3.206.5-4.3-.484-.374.835-2.913-.037-3.072.966-.948.194-1.567-.764-3.072-.966a16.684,16.684,0,0,0-3.687,0c-1.166.15-1.97-.138-1.841.966-1.176.422-1.428-.887-1.843-.966-1.275-.244-1.712.624-2.456.484-.913-.171-1.066-1.146-2.457-.968-1.606.188-3.373.248-4.3.968a28.345,28.345,0,0,0-7.37-1.451,5.722,5.722,0,0,0-1.229,0c-.263.051-.767.485-.615.483-.467.009-1.022-.476-1.843-.483.127,0-.248.483-.615.483-.51,0-1.434-.447-2.457-.483.178.007-.311.78-.614.483-.7-.687-1.57-.123-3.072.483-1.142.463-2.053-1.447-2.457,0-1.448-.149-1.143-1.678-3.072-1.449-4.563.848-8.166-.369-11.671-.484a1.723,1.723,0,0,1-1.844.966c-.129,1.714,2.881.954,2.457,2.9a15.007,15.007,0,0,0-1.227.965c-.459.027-.648-.471-1.23-.482-.911-.016-3.226.411-3.686-.483-1.129.646-2.3.476-3.686.483-1.293.007-1.618-.481-2.457-.483-.948,0-1.118.542-1.842.483-.523-.044-1.012-.415-1.843-.483-2.017-.168-6.249-.222-7.986-1.45-.379.14-2.365,1.2-2.46,0-.255.089-3.388,2.166-4.913.966-.578-.455-.551-.018-1.843,0-3.693.053-10.73.5-14.743,0-.894-.111-2.1-.929-3.072-.966-.829-.033-2.316.432-3.071.482a114,114,0,0,1-16.588-.482,21.423,21.423,0,0,0-3.071,0c-1.855.115-4.217.516-7.374.482,0,0-.1-.564-.612-.482-.042.005-.177.436-.615.482a13.2,13.2,0,0,1-1.843,0c-.979-.044-2.565-.492-3.686-.482.137,0-.278.468-.615.482-5.305.221-13.369.307-19.657,0a16.282,16.282,0,0,1-1.843,0c-.505-.086-.605-.475-1.229-.482-1.825-.026-3.819.9-6.757.482-.6-.085-.915-.493-1.844-.482.133,0-.277.468-.615.482-.2.01-3.82-.377-4.3,0-1,.785-.459-.054-2.457,0-.98.028-2.081.493-3.071.484-1.05-.009-1.879-.39-3.072-.484a132.194,132.194,0,0,0-15.359,0,17.046,17.046,0,0,0-1.842,0c-.478.082-.632.521-1.229.484-2.059-.125-2.61-1.243-5.529-.966a6.006,6.006,0,0,0-1.229,0c-.037.036-.883.815-1.229.482-.576-.553-.3-.041-1.229,0-2.692.121-5.481-.176-7.985,0a11.667,11.667,0,0,0-2.458,0,5.671,5.671,0,0,0-.615.968c-.974,0-.925-.665-2.457-.968-1.375-.271-.325-.221-2.457,0a21.777,21.777,0,0,1-2.457,0c-1.688-.021-3.357-.53-4.3-.482.223-.011-.432.446-.614.482-1.149.225-1.732.007-2.458.484a5.935,5.935,0,0,1-3.687-.966c-2.183.221-4.62,1.589-7.986.966-.515-.1-.605-.43-1.229-.484-1.415-.122-2.884.127-4.3,0-1.847-.164-5.16-1.562-6.757.484-.964-.208-.525-1.52-2.457-.966.906,2.163-1.8,1.484-1.229,3.384a16.7,16.7,0,0,0,5.529.482,1.357,1.357,0,0,1-1.229,1.451c-.964.12-1.13-.616-1.843-.484a1.18,1.18,0,0,1-.614.484c-1.106.218-5.1,1.443-6.144-.484-1.862,1-4.1-.032-6.143,0-2.808.044-5.479.76-8.6.968-1.887.125-4.964-.412-7.371,0-.5.086-.609.482-1.229.483-.995,0-2.257-.419-3.072-.483a34.106,34.106,0,0,0-5.529,0c-1.2.1-1.67.455-2.457.483a6.274,6.274,0,0,1-1.23,0c-.3-.059-.712-.489-.612-.483-1.016-.057-1.037.461-1.845.483a87.017,87.017,0,0,1-11.671,0,6.247,6.247,0,0,1-1.229,0c-.671-.645-.294.231-1.229.483-1.652.447-1.767-.775-3.072-.483-.528.389-.364,1.323-1.229,1.45-1.869-.606-2.388-.369-3.686.483-.884-.109-.214-1.442-1.229-1.45-3.329.4-4.726-.174-6.756.483a1.717,1.717,0,0,0,1.842.966c-2.173,1.452-4.891.641-7.371,0-.2,1.132-2.681.469-3.072,1.45-1.279.336-1.634-.5-2.458-.482-.54.013-.948.525-1.843.482-2.407-.112-2.117-.493-4.913,0-1.288.227-2.148.086-4.3.484-.514.095-.608.421-1.227.483-1.067.1-2.039-.569-3.072-.483a.748.748,0,0,1-.614.483c-.98.04-1.067.321-1.843.483,1.873,1.342,5.915,1.277,9.829.968,2.65-.211,6.918-.234,11.06-.484,1.328-.081,2.955-.483,4.3-.483,1.194,0,2.536.387,3.687.483,2.441.2,5.311.036,7.985,0,.508-.008.6-.513,1.229-.483-.077,0,.232.467.614.483.156.007,1.047-.663,1.23-.483,1.071,1.054,2.934.173,4.914,0a48.446,48.446,0,0,1,7.371,0,23.948,23.948,0,0,0,5.529,0,29.992,29.992,0,0,1,4.914,0c1.192.1,1.68.459,2.457.483,1.168.035,1.974-.515,3.071-.483,1.294.037,2.526.5,3.687.483,1.331-.023,2.3-.379,3.687-.483a228.94,228.94,0,0,1,23.343,0,10.839,10.839,0,0,1,2.458,0c.568.447.316.157,1.229,0,1.245-.212,3.537.407,4.914-.483.861.2,1.277.741,2.458.966,1.3.249,3.189-.6,3.686.484,1.342-.073,1.757-.774,3.07-.968a58.3,58.3,0,0,1,7.374,0c1.281.041,1.6.444,2.456.483,1.216.056,1.75-.571,2.458-.483.983.122,2.066.938,3.072.968,3.549.1,7.48-.682,12.286-.484,1.942.079,4.662.743,7.986.484.844-.066,2.046-.457,3.071-.484,1.285-.033,2.439.466,3.686.484,2.14.029,5.072-.762,8.6-.484,2.11.167,6.721,1.12,10.444.484.492-.085.619-.5,1.229-.484,2.03.062,4.143.917,6.144.968,1.358.033,2.285-.393,3.686-.483,1.468-.1,2.894.5,4.3,0,1.889.125,2.763,1.048,4.3,1.449,2.2-.133,4.989-1.522,6.757-.483-.167,1-2.72.115-2.457,1.451-2.982-1.128-6.311.711-9.829.966-1.272.093-2.551-.468-3.687-.484-3.563-.051-6.605.935-9.829,0a1.473,1.473,0,0,1-.615-.482c-.423-.067-1.016.645-1.844.482-.921-.181-.673-.974-2.456-.965-2.177-.261-1.511,1.711-3.687,1.45-.483-.463-3.06.6-3.687,0-.033-.033.038-.479,0-.484-1.3-.146-2.889.526-3.686-.482a8.789,8.789,0,0,1-2.456.966c-.54.132-1.327-.174-1.843,0-.267.09.014.428-.614.483-1.5.133-3.9.318-4.913-.483-1.893-.36-1.183,1.326-3.073.966-2.278-.178-3.771-1.031-6.144-1.451-.819-.144-1.78.223-1.842-.482-1.364-.267-.874.923-1.842.966-1.858.026-2.644-.612-4.3-.966-.639-.137-1.154.065-1.229-.483-1.974-.426-.844,1.593-2.457,1.45-.873-.041-1.74-.079-1.843.483-2.606-.14-4.866.192-7.373,0-1.941-.148-5.283-1.05-8.6-.483-.508.087-.6.471-1.229.483-.5.009-.605-.544-1.229-.483-.3.028-.8.467-.614.483-.849-.074-3.221-1.222-4.916,0-.782-.673-3.007-.21-3.07-1.45-1.677-.353-1.237.96-2.457.966-1.575-1.753-4.081-.109-6.144-.966-.691,1.551-4.18.9-5.529,1.933-1.8.126-1.887-1.093-3.686-.966-1.135,1.038-4.521.31-5.529,1.45-1.77-.91-3.517,0-6.143-.483a9.8,9.8,0,0,0-4.916,0,1.084,1.084,0,0,0-.615.483c-1.083.113-1.3-.557-2.457-.483.2-.013-.416.444-.614.483a24.765,24.765,0,0,1-4.3,0,29.82,29.82,0,0,0-6.759,0,.692.692,0,0,1-.612.483.63.63,0,0,1-.615-.483c-.514.029-.6.479-1.23.483-2.5.017-6.813-.952-11.057-.483a2.3,2.3,0,0,0-.614,1.933c-2.886-.494-3.879.03-7.986,0a29.555,29.555,0,0,1-3.686-.965c-.412-.131-.665-.022-.615-.484-1.925-.225-1.732,1.216-2.457,1.933-2.214-.69-5.277.274-8.6.484-3.159.2-6.4.1-9.214.483-.953.131-2.359-.3-2.458.483-1.57-.022-.748.359-.614.966.667.12.416.961,1.229.968-.218.635-1.081.76-1.229,1.45-.5.091-.614.484-1.227.483-.116.41.237.456.614.483a14.345,14.345,0,0,0,3.686.483c2.024-.055,4.14-.727,7.371-.483.2.015,6.364,1.452,7.373.483.668-.642.189.021.614,0,1.509-.072,2.729-.433,4.3-.483,6.048-.19,12.646.389,18.43,0,1.267-.085,2.547-.47,3.685-.483,1.349-.016,2.477.416,3.687.483,1.328.075,1.6-.493,2.457-.483.41,0,.727.4,1.227.483.58.1,1.254-.054,1.845,0,.507.047.6.513,1.227.483-.078,0,.234-.468.615-.483.979-.04,1.077.353,1.843.483,1.509.258,3.207-.261,4.3.966,1.1.177,1.762-.69,2.457-.966.992-.394,1.706-.232,2.458-.966,2.2-.122,2.252,1.452,4.3,1.45.369-1.589,2.3-.624,4.3-.966a10.091,10.091,0,0,1,3.687,0,37.2,37.2,0,0,0,6.143,0c1.579-.128,3.489-.788,6.143-.483.915.106,1.1.445,1.843.483,1.333.07,1.589-.483,2.457-.483.528,0,1.413.463,2.457.483,1.8.036,3.924.036,5.529,0a18.083,18.083,0,0,0,2.456-.483c1.007-.07,1.058.522,1.843.483.862-.042,2.885-.828,4.3.483,2.255.234,6.049-1.792,6.144.966-.851,1.1-4.275.181-6.144.483-1.727.091-2.617.841-2.457,2.417-1.36.267-.874-.923-1.842-.966-.139-.7-1.832-.169-1.843-.966-.833.149-.509,1.209-.612,1.933-1.209.389-1.385-.846-1.843-.966-1.179-.313-2.833.4-3.687-.484-2.1.364-.78-1.963-3.071-1.45-.363.369-1.066.208-2.458.483-.178.036.025.584-.614.484-.1-.017-.03-.678-.614-.484-.844.28-.545,1.506-1.843.484-.023-.019-.74-.944-.614-.968-1.673.312-.448,1.178-1.23,1.934-.776-1.161-4.844.267-5.528-.966-.411.627-1.568.186-2.458.482a9.433,9.433,0,0,0-1.227.969c-.3.042-1.57-.484-2.458-.484-2.123,0-2.981.713-5.527,0-1.99.6-.471-1.564-2.46-.966H147.19c-.112.412,1.568.475,1.229.966a3.4,3.4,0,0,1-1.843.966c.134,0-.274-.469-.615-.482a3.21,3.21,0,0,1-.614,0c-.178-.058-.774-.5-.615-.484-.191-.02-1.388.84-1.842.484-.512-.4-1.55-.392-1.842-.969-.719.078-.519.883-.614,1.451-1.871-.606-2.389-.369-3.687.483-2.677-.087.733-2.3-1.842-1.934.237,2.315-2.958-.83-3.072,1.451a11,11,0,0,0-6.758-.966,6.078,6.078,0,0,1-3.071.484c-1.336-.127-2.66-.658-3.687.482-1.633-.648-4.719-.155-5.528-1.451-1.072,0-1.259.572-1.843.969-.449.3-1.173.355-1.23.965-1.933.234-1.39-1.482-3.684-.965-1.622-.149-1.584,1.009-1.843,1.933-.819-.805-3.48-.162-4.3-.968-3.895,1.308-7.086.2-11.06,1.45-1.675.353-1.236-.96-2.457-.966-.117-.392-.616-.481-.615-.966-.521-.089-.577.188-.614.483-.188,1.141-2.133.9-1.843,2.416,2.2.232,3.55.787,5.529,0,1.152.706,4.072.02,4.915.968,1.323-1.095,3.332-.793,6.759-.968a16.5,16.5,0,0,0,1.841,0c.343-.058,3.554-1.271,3.687.484,1.615.143.483-1.875,2.457-1.451,1.524-.071,2.981-.09,3.071.966-.711,1.656-3.237.794-4.913.968-2.656.273-5.454.814-7.986.966-1.536.093-2.863-.163-4.3,0-1.55.176-2.729.805-4.3.968-1.536.158-3.285-.252-4.916,0-4.981.771-9.18,3.376-13.514,2.415.133,1.769.844,1.855,0,3.385,0,.5-.77.338-1.23.482-.606.192-.46.936-1.227.968a6.879,6.879,0,0,0-1.229.483c-.478.173-1.246.227-1.844.483-.424.182-.858.785-1.229.968a3.443,3.443,0,0,1-1.842.482c.507,1.366-.866,1.253-.616,2.417-3.949,1.564-6.925,3.9-11.055,5.316-.4.412-.129,1.621-.616,1.933-.085.053-.563-.067-.614,0-.13.178.189.845,0,.968-1.133.729-.593.274-1.229,1.934-.175.451-.411.8-.615,1.449-.108.342-.6.42-.614.484-.458,1.668-.188,3.768-.615,5.316-.023.086-.588.07-.615.483-.018.272-.453.961-.614,1.45.021-.066.866.623.614.966-.134.184-1.558-.1-1.229.484a10.409,10.409,0,0,1,.615,2.416c.054.8-.589.816-.615,1.451a1.417,1.417,0,0,0,.615.965c-.33,1.466-1.8,1.322-1.229,3.385.1.365.676.506.614.966-.125.9-.992,1.195-1.227,1.933-.113.346.765.51.614.966-.039.118-.577.051-.614.483-.092,1.036.507,1.573.614,2.416.133,1.047-.652,1.265-.614,1.934-.011-.2.572.353.614.483.287.9-.3,3.22,0,4.833.148.8,1.091,1.948,1.229,2.9.121.841-.626,1.038-.615,1.933.01.783.393,1.134.615,1.933.084.308-.1.664,0,.968.121.377.577.374.614.484.2.6-.229,1.341,0,1.933.091.233,1.179.81,1.23.966.46,1.436.15,3.144.614,4.35.057.151.583.02.615.483a11.511,11.511,0,0,0,1.229,2.416c.087.173-.17.859,0,.968a5.245,5.245,0,0,1,1.23,2.416c0,.027-.823.54-.616.968.1.2.622-.036.616.483-.012.823-1.087,1.755-1.23,2.416a4.963,4.963,0,0,0,0,1.933c.111.375.652.5.614.968,0-.055-.6.178-.614.483a2.04,2.04,0,0,1,0,.482c-.069.195-.605,1.173-.616.968.047.855,1.039,1.464,1.23,2.417.157.787-.883.527,0,1.933a4.359,4.359,0,0,1,2.457.483c.259.119,1.035.922,1.229.966,2.38.549,6.008-.449,7.985.968-.4,1.724-3.651.017-5.527,0-1.233-.164-1.923.1-1.845.965-1.1-.587-3.574-.088-4.3-.965-1.418,1.086,1.513,1.636,2.457,1.933.219.069,1.09-.133,1.229,0,.644.619,1.511.218,3.687.483,1.984.242,4.579,1.049,7.371,1.451,1.525.219,2.919.323,4.3.483,1.318.152,2.5.421,3.684.483a12.44,12.44,0,0,0,2.457,0,15.065,15.065,0,0,1,4.916,0c1.15.152,1.962.382,3.072.482.465.042.631-.51,1.227-.482-.078,0,.234.467.614.482a21.037,21.037,0,0,1,2.457,0c.515.089.6.452,1.229.484,1.017.052,1.038-.461,1.845-.484,1.045-.028,1.364.389,2.457.484-.123-.01.194-.55.614-.484.087.015.111.46.615.484a143.8,143.8,0,0,0,15.359,0c.838-.055,2.182-.483,3.071-.484,2.094,0,6.4.88,10.444.484-.125.012.288-.8.615-.484.026.027-.023.484,0,.484,2.964,0,6.012.2,8.6,0a19.891,19.891,0,0,1,4.914,0c-.2-.02.33-.766.616-.484.574.565,2.217.579,4.3.484.451-.02.669-.6,1.229-.484.171.037.026.479.614.484,2.984.025,5.974-.276,8.6-.484,8.6-.679,18.981.52,28.257,0a17.067,17.067,0,0,0,1.843,0c1.369-.234,1.172-.14,3.684,0a48.583,48.583,0,0,0,7.373,0c2.885-.319,6.856-2.044,10.444,0,1.891.361,1.179-1.327,3.073-.965,1.765-.1,3.12.122,3.686.965,1.73-1.079,3.507-.244,5.528,0a114.655,114.655,0,0,0,18.429,0c1.071-.077,1.933-.8,3.073-.965,3.13-.46,7.46-.063,11.057,0a14.07,14.07,0,0,1,2.457.483c.471.046.637-.606,1.227-.483.171.036.031.476.615.483,1.011.011,1.038-.435,1.843-.483,1.231-.075,1.671.532,3.072.483-.095,0,.245-.469.614-.483,5.2-.215,14.513-.336,20.273,0,1.2.07,1.686.479,2.457.483,1.06,0,1.35-.387,2.457-.483-.124.01.194.55.615.483.085-.014.111-.459.615-.483,1.869-.094,3.792.121,5.528,0,1.537-.108,2.324-.482,3.686-.483,2.445,0,5.467.58,9.215.483-.152,0,.3-.793.615-.483.663.653.214-.041.612,0,.572.057.926.584,1.845.483.82-.091,2.171-.278,3.072-.483.962-.22.663-.058,1.227-.484.351-.263,2.356-.319,3.072-.966,2.9.943,6.111.368,9.215.483,1.23.046,1.669.485,2.458.483,2.065,0,3.764-.951,6.143-.483.813.16.969.824,1.842.968a24.274,24.274,0,0,0,5.529,0A11.264,11.264,0,0,0,345,170.293c2.1.424,6.095-.78,7.373.483.21.209-.01.612.612.483,1.893.36,1.182-1.327,3.072-.966,1.471.295,4.458-.606,4.916.483.524-.31,2.059-.1,2.456-.483.038-.035-.041-.478,0-.483.531-.077,1.986,1.415,2.457,0,.992.67,3.169.409,3.688,1.45,1.022-.3,1.427-1.412,3.687-.966.259.052.765.486.612.483.458.009,1.033-.467,1.844-.483,1.6-.032,3.336-.107,4.3,0a30.561,30.561,0,0,1,3.686.966,6.113,6.113,0,0,1,3.071-.966,56.9,56.9,0,0,1,14.129.483c-.226-.035.342-.752.615-.483.373.367.462.913,1.229.966,1.1.076,1.306-.628,2.457-.483,1.326.168,2.337.912,3.686.968,1.254.051,2.311-.423,3.686-.484,1.872-.083,4.3,1.166,5.53-.483,2.174-.261,1.51,1.711,3.685,1.451.171-.994,1.643-.965,2.458-1.451,3.218.379,4.687-.528,7.371,0,.695.137.227.295.615.483.074.036,1.476.962,1.23.968,1.861-.041,2.28-2.641,4.913-1.451,1.361-.266.876.923,1.843.968a4.574,4.574,0,0,0,1.842.966c2.377.42,2.187-1.181,3.686-1.451,2.1-.362.781,1.964,3.072,1.451-.448-1.319,1.22-.973,1.23-1.934,4.163.879,9.669.555,14.743.968,1.6.131,3.461.741,6.143.483,1.059-.1,1.331-.519,2.456-.483,1.479.045,1.155,1.269,1.844.483.4-.063.735.678,1.229.483.45-.176-.252-.875.615-.966,1.36-.145,1.964.371,3.073.483,1.428.143,3.391-.416,4.3.483.21.209-.007.611.615.482,8.78.444,20.163.631,28.872,1.451a28.176,28.176,0,0,0,4.914,0c1.411-.11,2.8-.845,4.914-.482.518.087.6.435,1.23.482,1.345.1,1.579-.482,2.457-.482.187,0,4.037,1.235,5.529.482.446-.225.357-1.505.615-1.933-3.741.065-5.206.654-8.6,0,.181-.7,1.551-.348,2.457-.483.29-.044,2.508-1.025,3.072-.483.654.628.263-.1,1.227,0a10.127,10.127,0,0,1,2.458.483c.792.273,1.353.03,1.23.965,1.208.389,1.38-.843,1.841-.965,1.68-.446,5.673.389,5.529-1.934-.49-.046-.621-.542-1.229-.483-.3.029-.8.467-.612.483a14.056,14.056,0,0,0-2.46-.483c-.108,0-.633.662-1.229.483-.253-.076.043-.483-.615-.483-1.269,0-1.644.5-2.456.483-1.074-.017-1.337-.391-2.458-.483-2.89-.239-6.316.192-9.215,0-.453-.029-4.625-1.193-5.528-.483-.584.459-.547.01-1.845,0-.681-.005-.374.445-.613.483a18.107,18.107,0,0,0-3.072-.483c-3.557-.036-6.889.122-10.444,0a16.635,16.635,0,0,1-2.457-.484c-.472-.046-.637.607-1.227.484-.155-.032-.06-.457-.615-.484s-7.354-.607-7.986,0-.994.132-3.071,0c-2.458-.155-5.971.217-9.217,0-.835-.054-2.181-.482-3.072-.482-1.08,0-1.909.391-3.07.482a78.692,78.692,0,0,1-10.445,0c-1.577-.091-2.627-.956-4.916-.482-.291.06-.5.6-1.227.482.331.052-.662-.507-.615-.482a10.59,10.59,0,0,0-1.841-.968,5.017,5.017,0,0,1,2.456-.966c.469-.057.637.606,1.227.483.183-.038.007-.5.616-.483,1.3.03,2.474.5,3.686.483,2.092-.02,3.74-.774,6.757-.483a18.721,18.721,0,0,0,2.458.483c-.154,0,.291-.469.614-.483a60.748,60.748,0,0,1,6.143,0c1.311.082,2.471.484,3.687.483a.558.558,0,0,1,.615-.483c.149.024,0,.565.615.483.054-.007.129-.464.615-.483.627-.025,3.655.021,4.914,0,.306-1.52-1.339-1.889,0-2.9.734.373,1.063-.476,1.226-.483.475-.023.632.483,1.231.483.5,0,.6-.513,1.227-.483-.077,0,.232.468.615.483.612.025,2.417-.5,3.687-.483s2.228.4,3.686.483c3.655.2,8.646.1,12.9,0,.928-.022,1.13-.535,1.844-.483a.741.741,0,0,0,.612.483c4.3.177,10.927-.568,15.973,0a6.094,6.094,0,0,1,1.23,0c.657.632,1.493.192,3.072-.483,1.343.116,1.942.792,3.071.966a25.853,25.853,0,0,0,4.917,0c1.188-.094,1.99-.494,3.071-.483,1.909.018,3.366,1.4,4.3.483.33-.325.758.451.615.482,1.643-.377,1.243-1.471,3.071-.965-.67-2.14,1.04-2.4,1.229-3.867a35.078,35.078,0,0,0-7.986-.483c-1.377.1-2.377.479-3.686.483-2.971.007-7.235-.5-11.672-.483-.506,0-.6.512-1.23.483.08,0-.231-.468-.614-.483-.475-.021-2.9.121-4.3,0-3.248-.282-9.15-.48-14.129-.484.164,0-.3-.787-.614-.483-.716.7-5.925.7-8.6.483-1.231-.1-1.947-.442-3.071-.483-7.5-.273-14.662.292-21.5-.965,1.246-3.464,7.228-1.554,10.444-1.451,4.074.132,8.9-.249,13.514,0,1.081.058,2.8.519,3.686.483-.086,0,.24-.468.616-.483.449-.019,1.081-.4,1.841-.483,3.3-.367,7.646,0,11.673,0,3.713,0,7.866-.211,11.056,0,7.069.468,18.576.993,27.031,0-.4-.492-1.413-.5-1.229-1.45-3.111-.032-5.086.83-8.6.482-1.577-.048-.989-1.8-1.842-2.416a43.692,43.692,0,0,0-9.215-.483c-.835-.15-.512-1.21-.615-1.933-.378-.67-2.365-.074-2.458-.966-.475-1.947,3.124-1.945,5.529-2.417.229-.046.817-.481.615-.484,1.555.026,2.531,1.116,3.686.968.946-.972,2.635-.422,3.686-.483-.21.012.422-.445.615-.484,1.031-.2,1.334.6,2.457.484a.767.767,0,0,1,.615-.484c.464-.018.664-.412,1.227-.482,1.088-.135,1.3.63,2.458.482.049-.005.137-.464.614-.482.494-.022.625-.446,1.229-.484.462-.028.639.484,1.229.484.505,0,.6-.529,1.231-.484-.138-.009,2.936,1.2,3.685.484.579-.556.3-.036,1.229,0,1.022.038,2.049-.03,3.071,0,.508-1.367-.866-1.253-.614-2.417-1.4.135-2.31-.116-2.457-.966h-6.144c-1.444-.152-.364-2.292-2.457-1.934-.113.41.24.456.616.483a.308.308,0,1,1-.616,0c-.713.079-1.095-.107-1.229-.483-.558-.3-2.661.4-3.071,0-.76-.729-.876-.134-1.844,0,.187-.025-.245-.541-.612-.482-.1.014-.1.464-.616.482-.478.017-1-.514-1.842-.482-.544.019-.952.51-1.844.482-1.339-.041-2.554-.322-4.916-.482a11.014,11.014,0,0,1-1.229,0c-.3-.06-.713-.49-.612-.483-1-.055-1.064.525-1.844.483-1.08-.059-1.332-.383-2.459-.483-1.589-.145-3.355.024-4.914,0-1.874-.03-.786-.329-2.457,0a6.91,6.91,0,0,1-1.229,0c-1.873-.023-.785-.329-2.456,0-1.369.269-1.507-.685-3.072-.484-.049.005-.135.464-.615.484-.668.026-2.21-.317-3.687-.484-.43-.049-2.169.225-2.456,0-.66-.519-1.045-.127-3.071,0-1.744.11-3.809.087-6.144,0C500.069,138.356,498.7,138.622,498.585,137.909Zm-306.55-92.8c-.964-.045-2.129.065-1.841-.966h1.229C191.42,44.627,191.921,44.719,192.035,45.108Zm-81.7,4.351c-.146-.691-1.012-.815-1.229-1.451.919.083,2.265-.173,2.456.483C110.747,48.5,111,49.339,110.332,49.46ZM224.6,66.859h-2.457v-1.45C223.677,65.327,224.06,66.151,224.6,66.859Zm-8.6,1.45c-1.35,1.07-2.04-.847-3.686-.966-.831.152-1.174.688-2.458.484-.182-.986-1.663-.948-1.841-1.934C210.546,65.334,215.621,65.691,216,68.308Zm-9.829-1.45c-.427.379-3.429,1.076-3.687,0C203.636,66.458,205.671,65.075,206.167,66.859ZM522.543,172.71c-1.736-.4-1.591.68-3.071.482-1.221-.005-.781-1.317-2.457-.965-.252.606-.792.986-1.845.965-.128-.583-.68-.3-1.227,0a1.673,1.673,0,0,1-1.23-.965C515.048,171.4,520.977,171.379,522.543,172.71Zm-13.514,0H507.8v-.966h1.229Zm-6.758-.966c1.468.293,4.458-.607,4.916.483C505.928,173.159,503.16,172.554,502.27,171.743Zm-9.829.966c-1.4.135-2.31-.116-2.457-.966C491.073,171.853,493.06,171.256,492.442,172.71Z" transform="translate(-43.975 -25.293)" fill="#436cde" fill-rule="evenodd"/>
  </g>
</svg>
