<svg xmlns="http://www.w3.org/2000/svg" width="20" height="16.254" viewBox="0 0 20 16.254">
  <path id="twitter" d="M20,1.923a8.192,8.192,0,0,1-2.357.646A4.115,4.115,0,0,0,19.448.3a8.2,8.2,0,0,1-2.606,1A4.1,4.1,0,0,0,9.745,4.1a4.15,4.15,0,0,0,.106.935A11.65,11.65,0,0,1,1.394.751a4.107,4.107,0,0,0,1.27,5.477A4.084,4.084,0,0,1,.8,5.715v.052A4.1,4.1,0,0,0,4.1,9.79a4.082,4.082,0,0,1-1.081.144,4.164,4.164,0,0,1-.772-.072,4.108,4.108,0,0,0,3.832,2.849,8.231,8.231,0,0,1-5.1,1.757A8.184,8.184,0,0,1,0,14.409a11.611,11.611,0,0,0,6.289,1.844A11.594,11.594,0,0,0,17.963,4.58q0-.267-.013-.531A8.36,8.36,0,0,0,20,1.923Z" transform="translate(0 0)" fill="#be8723"/>
</svg>
