<svg xmlns="http://www.w3.org/2000/svg" width="261.335" height="262.038" viewBox="0 0 261.335 262.038"><g transform="translate(3.14 3.02)"><text transform="translate(171.43 106.868) rotate(11)" fill="#436cde" font-size="110" font-family="CoveredByYourGrace, Covered By Your Grace"><tspan x="0" y="107">˚</tspan></text><path d="M2368.253,1051.93c-31.076-8.67-71.5-23.378-102.552-7.712-22.93,11.565-33.489,35.255-35.6,59.875-3.037,35.4,11.506,72.535,39.7,94.148s69.661,25.584,100.073,7.216,46.171-59.1,33.5-92.292c-6.019-15.761-17.56-29.044-31.263-38.88-20.469-14.689-46.527-22.045-71.419-18.157-44.229,6.914-79.769,53.1-65.379,97.931,10.54,32.838,43.467,52.929,75.617,65.414,19.9,7.731,41.03,13.761,62.334,12.3,22.75-1.565,45.673-12.8,55.965-33.982,11.118-22.879,4.19-51.048-11.044-70.344-16.477-20.87-41.325-33.407-66.426-42.188a325.22,325.22,0,0,0-83.978-17.378c-10.684-.768-23.383,6.137-33.068,17.714s-19.325,59.005-10.7,83.5,30.7,49.155,51.762,56.918,103.184,21.328,129.351-32.353c14.781-30.327,10.513-68.993-10.534-95.362" transform="translate(-2405.652 -417.498) rotate(-14)" fill="none" stroke="#c0880d" stroke-linecap="round" stroke-miterlimit="10" stroke-width="5" fill-rule="evenodd"/><text transform="translate(67.295 50.551) rotate(11)" fill="#436cde" font-size="110" font-family="CoveredByYourGrace, Covered By Your Grace"><tspan x="0" y="107">2˚/</tspan></text></g></svg>