<?xml version="1.0" encoding="utf-8"?>
<!-- Generator: Adobe Illustrator 19.1.0, SVG Export Plug-In . SVG Version: 6.00 Build 0)  -->
<!DOCTYPE svg PUBLIC "-//W3C//DTD SVG 1.1//EN" "http://www.w3.org/Graphics/SVG/1.1/DTD/svg11.dtd">
<svg version="1.1" id="Layer_1" xmlns="http://www.w3.org/2000/svg" xmlns:xlink="http://www.w3.org/1999/xlink" x="0px" y="0px"
	 viewBox="0 0 40 40" style="enable-background:new 0 0 40 40;" xml:space="preserve">
<g>
	<path d="M33,13.2H7c-0.9,0-1.6-0.7-1.6-1.6v0C5.4,10.7,6.1,10,7,10h26c0.9,0,1.6,0.7,1.6,1.6v0C34.6,12.5,33.9,13.2,33,13.2z"/>
	<path d="M33,21.6H7c-0.9,0-1.6-0.7-1.6-1.6v0c0-0.9,0.7-1.6,1.6-1.6h26c0.9,0,1.6,0.7,1.6,1.6v0C34.6,20.9,33.9,21.6,33,21.6z"/>
	<path d="M33,30H7c-0.9,0-1.6-0.7-1.6-1.6v0c0-0.9,0.7-1.6,1.6-1.6h26c0.9,0,1.6,0.7,1.6,1.6v0C34.6,29.3,33.9,30,33,30z"/>
</g>
</svg>
